<?xml version="1.0" encoding="iso-8859-1"?>
<!-- Generator: Adobe Illustrator 16.0.4, SVG Export Plug-In . SVG Version: 6.00 Build 0)  -->
<!DOCTYPE svg PUBLIC "-//W3C//DTD SVG 1.1//EN" "http://www.w3.org/Graphics/SVG/1.1/DTD/svg11.dtd">
<svg version="1.1" id="Layer_1" xmlns="http://www.w3.org/2000/svg" xmlns:xlink="http://www.w3.org/1999/xlink" x="0px" y="0px"
	 width="512px" height="512px" viewBox="0 0 512 512" style="enable-background:new 0 0 512 512;" xml:space="preserve">
<rect id="background_1_" style="opacity:0;fill:#929292;" width="512" height="512"/>
<path id="cloud" d="M293.348,157.249c43.244,0,78.301,35.056,78.301,78.3c0,6.455-0.786,12.725-2.258,18.727
	c24.446,2.433,43.54,23.652,43.54,48.743c0,26.726-21.665,48.981-48.391,48.981H136.7c-20.418,0-36.968-17.139-36.968-37.559
	c0-20.416,16.55-37.471,36.968-37.471c0-33.034,26.78-59.86,59.816-59.86c7.009,0,13.732,1.194,19.984,3.41
	C223.518,184.479,255.254,157.249,293.348,157.249 M293.348,134.153c-40.561,0-76.51,24.173-92.547,59.925
	c-1.423-0.073-2.853-0.109-4.284-0.109c-39.058,0-71.894,27.145-80.633,63.56c-22.892,8.542-39.249,30.88-39.249,56.864
	C76.635,347.74,103.58,375,136.7,375h227.84c39.418,0,71.487-32.385,71.487-72.029c0-17.82-6.581-35.015-18.531-48.294
	c-6.481-7.204-14.231-12.969-22.773-16.986c0.015-0.703,0.021-1.421,0.021-2.124C394.744,179.656,349.258,134.153,293.348,134.153
	L293.348,134.153z"/>
<polygon points="284.125,427.569 264.082,427.598 262.383,427.773 263.355,426.434 273.378,409.032 258.345,400.389 248.34,417.775 
	247.65,419.32 246.951,417.768 236.906,400.423 221.895,409.101 231.865,426.307 232.939,427.812 231.062,427.642 211.209,427.667 
	211.232,445.077 231.062,445.05 232.963,444.874 231.821,446.511 221.969,463.614 237.002,472.26 246.933,455.003 247.695,453.328 
	248.408,454.903 258.441,472.227 273.452,463.548 263.362,446.141 262.406,444.835 263.928,445.008 284.147,444.981 "/>
<polygon points="188.125,427.569 168.082,427.598 166.383,427.773 167.355,426.434 177.378,409.032 162.345,400.389 152.34,417.775 
	151.65,419.32 150.951,417.768 140.906,400.423 125.895,409.101 135.865,426.307 136.939,427.812 135.062,427.642 115.209,427.667 
	115.232,445.077 135.062,445.05 136.963,444.874 135.821,446.511 125.969,463.614 141.002,472.26 150.933,455.003 151.695,453.328 
	152.408,454.903 162.441,472.227 177.452,463.548 167.362,446.141 166.406,444.835 167.928,445.008 188.147,444.981 "/>
<rect x="312" y="411" width="108" height="18"/>
<rect x="312" y="445" width="88" height="18"/>
</svg>
