<?xml version="1.0" encoding="iso-8859-1"?>
<!-- Generator: Adobe Illustrator 16.0.4, SVG Export Plug-In . SVG Version: 6.00 Build 0)  -->
<!DOCTYPE svg PUBLIC "-//W3C//DTD SVG 1.1//EN" "http://www.w3.org/Graphics/SVG/1.1/DTD/svg11.dtd">
<svg version="1.1" id="Layer_1" xmlns="http://www.w3.org/2000/svg" xmlns:xlink="http://www.w3.org/1999/xlink" x="0px" y="0px"
	 width="512px" height="512px" viewBox="0 0 512 512" style="enable-background:new 0 0 512 512;" xml:space="preserve">
<rect id="background_1_" style="opacity:0;fill:#929292;" width="512" height="512"/>
<polygon points="148,472 124,472 160,400 184,400 "/>
<polygon points="196,472 172,472 208,400 232,400 "/>
<polygon points="314.125,427.569 294.082,427.598 292.383,427.773 293.355,426.434 303.378,409.032 288.345,400.389 278.34,417.775 
	277.65,419.32 276.951,417.768 266.906,400.423 251.895,409.101 261.865,426.307 262.939,427.812 261.062,427.642 241.209,427.667 
	241.232,445.077 261.062,445.05 262.963,444.874 261.821,446.511 251.969,463.614 267.002,472.26 276.933,455.003 277.695,453.328 
	278.408,454.903 288.441,472.227 303.452,463.548 293.362,446.141 292.406,444.835 293.928,445.008 314.147,444.981 "/>
<polygon points="410.125,427.569 390.082,427.598 388.383,427.773 389.355,426.434 399.378,409.032 384.345,400.389 374.34,417.775 
	373.65,419.32 372.951,417.768 362.906,400.423 347.895,409.101 357.865,426.307 358.939,427.812 357.062,427.642 337.209,427.667 
	337.232,445.077 357.062,445.05 358.963,444.874 357.821,446.511 347.969,463.614 363.002,472.26 372.933,455.003 373.695,453.328 
	374.408,454.903 384.441,472.227 399.452,463.548 389.362,446.141 388.406,444.835 389.928,445.008 410.147,444.981 "/>
<path id="cloud_1_" d="M323.348,157.249c43.244,0,78.301,35.056,78.301,78.3c0,6.455-0.786,12.725-2.258,18.727
	c24.446,2.433,43.54,23.652,43.54,48.743c0,26.726-21.665,48.981-48.391,48.981H166.7c-20.418,0-36.968-17.139-36.968-37.559
	c0-20.416,16.55-37.471,36.968-37.471c0-33.034,26.78-59.86,59.816-59.86c7.009,0,13.732,1.194,19.984,3.41
	C253.518,184.479,285.254,157.249,323.348,157.249 M323.348,134.153c-40.561,0-76.51,24.173-92.547,59.925
	c-1.423-0.073-2.853-0.109-4.284-0.109c-39.058,0-71.894,27.145-80.633,63.56c-22.892,8.542-39.249,30.88-39.249,56.864
	C106.635,347.74,133.58,375,166.7,375h227.84c39.418,0,71.487-32.385,71.487-72.029c0-17.82-6.581-35.015-18.531-48.294
	c-6.481-7.204-14.231-12.969-22.773-16.986c0.015-0.703,0.021-1.421,0.021-2.124C424.744,179.656,379.258,134.153,323.348,134.153
	L323.348,134.153z"/>
<path id="moon_2_" d="M152.517,114.041c0-26.631,15.351-49.731,37.66-60.957c-5-4.231-10.512-7.873-16.452-10.783
	c-10.575-5.181-22.451-8.099-35-8.099c-44.024,0-79.84,35.816-79.84,79.839s35.816,79.84,79.84,79.84c12.549,0,24.425-2.919,35-8.1
	c5.94-2.91,11.453-6.552,16.453-10.783C167.867,163.772,152.517,140.672,152.517,114.041z M151.328,169.455
	c-4.057,0.922-8.271,1.426-12.604,1.426c-31.342,0-56.84-25.498-56.84-56.84c0-31.341,25.498-56.839,56.84-56.839
	c4.332,0,8.547,0.503,12.604,1.426c-13.879,14.371-22.443,33.905-22.443,55.414C128.885,135.55,137.449,155.084,151.328,169.455z"/>
</svg>
