<?xml version="1.0" encoding="iso-8859-1"?>
<!-- Generator: Adobe Illustrator 16.0.4, SVG Export Plug-In . SVG Version: 6.00 Build 0)  -->
<!DOCTYPE svg PUBLIC "-//W3C//DTD SVG 1.1//EN" "http://www.w3.org/Graphics/SVG/1.1/DTD/svg11.dtd">
<svg version="1.1" id="Layer_1" xmlns="http://www.w3.org/2000/svg" xmlns:xlink="http://www.w3.org/1999/xlink" x="0px" y="0px"
	 width="512px" height="512px" viewBox="0 0 512 512" style="enable-background:new 0 0 512 512;" xml:space="preserve">
<rect id="background_1_" style="opacity:0;fill:#929292;" width="512" height="512"/>
<path d="M179.238,112.197c-3.58,0-8.238,0.194-11.238,0.577V72h23v40.83C187,112.41,182.998,112.197,179.238,112.197z
	 M138.493,120.607l-20.202-34.99L99.14,96.675l20.174,34.944C125.295,127.251,131.725,123.561,138.493,120.607z M466.027,302.971
	c0,39.645-32.069,72.029-71.487,72.029h-55.021l11.737-23h43.284c26.726,0,48.391-22.256,48.391-48.981
	c0-25.091-19.094-46.311-43.54-48.743c1.472-6.002,2.258-12.271,2.258-18.727c0-43.244-35.057-78.3-78.301-78.3
	c-38.094,0-69.83,27.229-76.847,63.271c-6.251-2.216-12.975-3.41-19.984-3.41c-33.036,0-59.816,26.826-59.816,59.86
	c-20.418,0-36.968,17.055-36.968,37.471c0,20.42,16.55,37.559,36.968,37.559h80.212l-11.738,23H166.7
	c-33.12,0-60.065-27.26-60.065-60.607c0-16.695,6.759-31.877,17.659-42.87C108.74,256.93,99.009,236.2,99.009,213.241
	c0-44.077,35.859-79.936,79.936-79.936c28.12,0,52.886,14.603,67.138,36.616c18.78-22.049,46.711-35.768,77.264-35.768
	c55.91,0,101.396,45.503,101.396,101.414c0,0.703-0.007,1.421-0.021,2.124c8.542,4.018,16.292,9.782,22.773,16.986
	C459.446,267.956,466.027,285.15,466.027,302.971z M231.714,192.137c-8.397-20.92-28.882-35.736-52.769-35.736
	c-31.342,0-56.839,25.498-56.839,56.839c0,18.267,8.664,34.547,22.096,44.953c0.558-0.228,1.116-0.454,1.682-0.665
	c8.739-36.415,41.575-63.56,80.633-63.56c1.431,0,2.86,0.037,4.284,0.109C231.093,193.424,231.407,192.783,231.714,192.137z
	 M259.275,96.674l-19.153-11.058l-20.307,35.176c6.763,2.987,13.176,6.705,19.131,11.092L259.275,96.674z M51.584,152.326
	l34.787,20.083c2.998-6.756,6.728-13.163,11.126-19.111l-34.855-20.125L51.584,152.326z M77.703,213.2c0-3.735,0.21-7.2,0.626-11.2
	H39v22h39.286C77.899,220,77.703,216.802,77.703,213.2z M51.584,274.156l11.058,19.152l34.649-20.006
	c-4.38-5.965-8.087-12.385-11.062-19.148L51.584,274.156z"/>
<polygon id="new_lightning" points="298.5,352 323,303 299,303 263,375 286.5,375 262,424 286,424 262,472 286,472 322,400 298,400 
	322,352 "/>
</svg>
