<?xml version="1.0" encoding="iso-8859-1"?>
<!-- Generator: Adobe Illustrator 16.0.4, SVG Export Plug-In . SVG Version: 6.00 Build 0)  -->
<!DOCTYPE svg PUBLIC "-//W3C//DTD SVG 1.1//EN" "http://www.w3.org/Graphics/SVG/1.1/DTD/svg11.dtd">
<svg version="1.1" id="Layer_1" xmlns="http://www.w3.org/2000/svg" xmlns:xlink="http://www.w3.org/1999/xlink" x="0px" y="0px"
	 width="512px" height="512px" viewBox="0 0 512 512" style="enable-background:new 0 0 512 512;" xml:space="preserve">
<rect id="background_1_" style="opacity:0;fill:#929292;" width="512" height="512"/>
<path id="cloud_1_" d="M323.348,157.249c43.244,0,78.301,35.056,78.301,78.3c0,6.455-0.786,12.725-2.258,18.727
	c24.446,2.433,43.54,23.652,43.54,48.743c0,26.726-21.665,48.981-48.391,48.981H166.7c-20.418,0-36.968-17.139-36.968-37.559
	c0-20.416,16.55-37.471,36.968-37.471c0-33.034,26.78-59.86,59.816-59.86c7.009,0,13.732,1.194,19.984,3.41
	C253.518,184.479,285.254,157.249,323.348,157.249 M323.348,134.153c-40.561,0-76.51,24.173-92.547,59.925
	c-1.423-0.073-2.853-0.109-4.284-0.109c-39.058,0-71.894,27.145-80.633,63.56c-22.892,8.542-39.249,30.88-39.249,56.864
	C106.635,347.74,133.58,375,166.7,375h227.84c39.418,0,71.487-32.385,71.487-72.029c0-17.82-6.581-35.015-18.531-48.294
	c-6.481-7.204-14.231-12.969-22.773-16.986c0.015-0.703,0.021-1.421,0.021-2.124C424.744,179.656,379.258,134.153,323.348,134.153
	L323.348,134.153z"/>
<path id="thekillingmoon" d="M143.377,270.616c-1.536,0.128-3.083,0.216-4.652,0.216c-31.342,0-56.84-25.498-56.84-56.84
	c0-31.341,25.498-56.839,56.84-56.839c4.332,0,8.547,0.503,12.604,1.426c-13.879,14.371-22.443,33.905-22.443,55.414
	c0,19.618,7.141,37.579,18.924,51.492L156,256l5.814-7.674c-5.907-10.088-9.297-21.821-9.297-34.333
	c0-26.631,15.351-49.731,37.66-60.957c-5-4.231-10.512-7.873-16.452-10.783c-10.575-5.181-22.451-8.099-35-8.099
	c-44.024,0-79.84,35.816-79.84,79.839c0,39.15,28.333,71.786,65.567,78.537L143.377,270.616z"/>
</svg>
