<?xml version="1.0" encoding="iso-8859-1"?>
<!-- Generator: Adobe Illustrator 16.0.4, SVG Export Plug-In . SVG Version: 6.00 Build 0)  -->
<!DOCTYPE svg PUBLIC "-//W3C//DTD SVG 1.1//EN" "http://www.w3.org/Graphics/SVG/1.1/DTD/svg11.dtd">
<svg version="1.1" id="Layer_1" xmlns="http://www.w3.org/2000/svg" xmlns:xlink="http://www.w3.org/1999/xlink" x="0px" y="0px"
	 width="512px" height="512px" viewBox="0 0 512 512" style="enable-background:new 0 0 512 512;" xml:space="preserve">
<rect id="background_1_" style="opacity:0;fill:#929292;" width="512" height="512"/>
<path id="volcano" d="M440.392,464H71.615l157.496-210.998h53.778L440.392,464z M115.49,442h281.027L271.857,275.002h-31.715
	L115.49,442z"/>
<path d="M136.7,311h21.666l17.168-23H136.7c-20.418,0-36.968-17.139-36.968-37.559c0-20.416,16.55-37.471,36.968-37.471
	c0-33.034,26.78-59.86,59.816-59.86c7.009,0,13.732,1.194,19.984,3.41c7.017-36.042,38.753-63.271,76.847-63.271
	c43.244,0,78.301,35.056,78.301,78.3c0,6.455-0.786,12.725-2.258,18.727c24.446,2.433,43.54,23.652,43.54,48.743
	c0,26.726-21.665,48.981-48.391,48.981h-28.073l17.169,23h10.904c39.418,0,71.487-32.385,71.487-72.029
	c0-17.82-6.581-35.015-18.531-48.294c-6.481-7.204-14.231-12.969-22.773-16.986c0.015-0.703,0.021-1.421,0.021-2.124
	c0-55.911-45.486-101.414-101.396-101.414c-40.561,0-76.51,24.173-92.547,59.925c-1.423-0.073-2.853-0.109-4.284-0.109
	c-39.058,0-71.894,27.145-80.633,63.56c-22.892,8.542-39.249,30.88-39.249,56.864C76.635,283.74,103.58,311,136.7,311z"/>
</svg>
