<?xml version="1.0" encoding="iso-8859-1"?>
<!-- Generator: Adobe Illustrator 16.0.4, SVG Export Plug-In . SVG Version: 6.00 Build 0)  -->
<!DOCTYPE svg PUBLIC "-//W3C//DTD SVG 1.1//EN" "http://www.w3.org/Graphics/SVG/1.1/DTD/svg11.dtd">
<svg version="1.1" id="Layer_1" xmlns="http://www.w3.org/2000/svg" xmlns:xlink="http://www.w3.org/1999/xlink" x="0px" y="0px"
	 width="512px" height="512px" viewBox="0 0 512 512" style="enable-background:new 0 0 512 512;" xml:space="preserve">
<rect id="background_1_" style="opacity:0;fill:#929292;" width="512" height="512"/>
<path id="suncloud" d="M51.584,152.326l11.058-19.152l34.855,20.125c-4.398,5.948-8.128,12.354-11.126,19.111L51.584,152.326z
	 M191,72h-23v40.774c3-0.383,7.658-0.577,11.238-0.577c3.76,0,7.762,0.212,11.762,0.633V72z M119.313,131.619
	c5.982-4.368,12.412-8.058,19.18-11.011l-20.202-34.99L99.14,96.675L119.313,131.619z M78.286,224c-0.387-4-0.583-7.198-0.583-10.8
	c0-3.735,0.21-7.2,0.626-11.2H39v22H78.286z M259.275,96.674l-19.153-11.058l-20.307,35.176c6.763,2.987,13.176,6.705,19.131,11.092
	L259.275,96.674z M62.642,293.309l34.649-20.006c-4.38-5.965-8.087-12.385-11.062-19.148l-34.645,20.002L62.642,293.309z
	 M466.027,302.971c0,39.645-32.069,72.029-71.487,72.029H166.7c-33.12,0-60.065-27.26-60.065-60.607
	c0-16.695,6.759-31.877,17.659-42.87C108.74,256.93,99.009,236.2,99.009,213.241c0-44.077,35.859-79.936,79.936-79.936
	c28.12,0,52.886,14.603,67.138,36.616c18.78-22.049,46.711-35.768,77.264-35.768c55.91,0,101.396,45.503,101.396,101.414
	c0,0.703-0.007,1.421-0.021,2.124c8.542,4.018,16.292,9.782,22.773,16.986C459.446,267.956,466.027,285.15,466.027,302.971z
	 M144.202,258.193c0.558-0.228,1.116-0.454,1.682-0.665c8.739-36.415,41.575-63.56,80.633-63.56c1.431,0,2.86,0.037,4.284,0.109
	c0.293-0.654,0.607-1.295,0.914-1.941c-8.397-20.92-28.882-35.736-52.769-35.736c-31.342,0-56.839,25.498-56.839,56.839
	C122.106,231.508,130.77,247.788,144.202,258.193z M442.931,303.019c0-25.091-19.094-46.311-43.54-48.743
	c1.472-6.002,2.258-12.271,2.258-18.727c0-43.244-35.057-78.3-78.301-78.3c-38.094,0-69.83,27.229-76.847,63.271
	c-6.251-2.216-12.975-3.41-19.984-3.41c-33.036,0-59.816,26.826-59.816,59.86c-20.418,0-36.968,17.055-36.968,37.471
	c0,20.42,16.55,37.559,36.968,37.559h227.84C421.266,352,442.931,329.744,442.931,303.019z"/>
<polygon points="148,472 124,472 160,400 184,400 "/>
<polygon points="196,472 172,472 208,400 232,400 "/>
<polygon points="244,472 220,472 256,400 280,400 "/>
<polygon points="292,472 268,472 304,400 328,400 "/>
<polygon points="340,472 316,472 352,400 376,400 "/>
<polygon points="388,472 364,472 400,400 424,400 "/>
</svg>
