<?xml version="1.0" encoding="iso-8859-1"?>
<!-- Generator: Adobe Illustrator 16.0.4, SVG Export Plug-In . SVG Version: 6.00 Build 0)  -->
<!DOCTYPE svg PUBLIC "-//W3C//DTD SVG 1.1//EN" "http://www.w3.org/Graphics/SVG/1.1/DTD/svg11.dtd">
<svg version="1.1" id="Layer_1" xmlns="http://www.w3.org/2000/svg" xmlns:xlink="http://www.w3.org/1999/xlink" x="0px" y="0px"
	 width="512px" height="512px" viewBox="0 0 512 512" style="enable-background:new 0 0 512 512;" xml:space="preserve">
<rect id="background_1_" style="opacity:0;fill:#929292;" width="512" height="512"/>
<path d="M417.496,254.677c-6.481-7.204-14.231-12.969-22.773-16.986c0.015-0.703,0.021-1.421,0.021-2.124
	c0-55.911-45.486-101.414-101.396-101.414c-40.561,0-76.51,24.173-92.547,59.925c-1.423-0.073-2.853-0.109-4.284-0.109
	c-39.058,0-71.894,27.145-80.633,63.56c-22.892,8.542-39.249,30.88-39.249,56.864C76.635,347.74,103.58,375,136.7,375h108.492
	l11.703-23H136.7c-20.418,0-36.968-17.139-36.968-37.559c0-20.416,16.55-37.471,36.968-37.471c0-33.034,26.78-59.86,59.816-59.86
	c7.009,0,13.732,1.194,19.984,3.41c7.017-36.042,38.753-63.271,76.847-63.271c43.244,0,78.301,35.056,78.301,78.3
	c0,6.455-0.786,12.725-2.258,18.727c24.446,2.433,43.54,23.652,43.54,48.743c0,26.726-21.665,48.981-48.391,48.981h-3.302
	l-11.702,23h15.004c39.418,0,71.487-32.385,71.487-72.029C436.027,285.15,429.446,267.956,417.496,254.677z"/>
<polygon id="new_lightning_1_" points="308.5,352 333,303 309,303 273,375 296.5,375 272,424 296,424 272,472 296,472 332,400 
	308,400 332,352 "/>
<polygon points="236.125,427.569 216.082,427.598 214.383,427.773 215.355,426.434 225.378,409.032 210.345,400.389 200.34,417.775 
	199.65,419.32 198.951,417.768 188.906,400.423 173.895,409.101 183.865,426.307 184.939,427.812 183.062,427.642 163.209,427.667 
	163.232,445.077 183.062,445.05 184.963,444.874 183.821,446.511 173.969,463.614 189.002,472.26 198.933,455.003 199.695,453.328 
	200.408,454.903 210.441,472.227 225.452,463.548 215.362,446.141 214.406,444.835 215.928,445.008 236.147,444.981 "/>
</svg>
