<?xml version="1.0" encoding="iso-8859-1"?>
<!-- Generator: Adobe Illustrator 16.0.4, SVG Export Plug-In . SVG Version: 6.00 Build 0)  -->
<!DOCTYPE svg PUBLIC "-//W3C//DTD SVG 1.1//EN" "http://www.w3.org/Graphics/SVG/1.1/DTD/svg11.dtd">
<svg version="1.1" id="Layer_1" xmlns="http://www.w3.org/2000/svg" xmlns:xlink="http://www.w3.org/1999/xlink" x="0px" y="0px"
	 width="512px" height="512px" viewBox="0 0 512 512" style="enable-background:new 0 0 512 512;" xml:space="preserve">
<rect id="background_1_" style="opacity:0;fill:#808080;" width="512" height="512"/>
<path id="cloud" d="M253.348,157.249c43.244,0,78.301,35.056,78.301,78.3c0,6.455-0.786,12.725-2.258,18.727
	c24.446,2.433,43.54,23.652,43.54,48.743c0,26.726-21.665,48.981-48.391,48.981H96.7c-20.418,0-36.968-17.139-36.968-37.559
	c0-20.416,16.55-37.471,36.968-37.471c0-33.034,26.78-59.86,59.816-59.86c7.009,0,13.732,1.194,19.984,3.41
	C183.518,184.479,215.254,157.249,253.348,157.249 M253.348,134.153c-40.561,0-76.51,24.173-92.547,59.925
	c-1.423-0.073-2.853-0.109-4.284-0.109c-39.058,0-71.894,27.145-80.633,63.56c-22.892,8.542-39.249,30.88-39.249,56.864
	C36.635,347.74,63.58,375,96.7,375h227.84c39.418,0,71.487-32.385,71.487-72.029c0-17.82-6.581-35.015-18.531-48.294
	c-6.481-7.204-14.231-12.969-22.773-16.986c0.015-0.703,0.021-1.421,0.021-2.124C354.744,179.656,309.258,134.153,253.348,134.153
	L253.348,134.153z"/>
<path d="M422.027,302.971c0,7.572-0.859,14.946-2.482,22.029h61.375v-23h-58.915C422.008,302.324,422.027,302.646,422.027,302.971z"
	/>
<path d="M380.072,222.434c1.181,0.826,2.338,1.687,3.481,2.566h97.366v-23H376.258C378.065,208.614,379.354,215.441,380.072,222.434
	z"/>
<path d="M417.947,275h62.973v-23h-73.157C412.146,259.209,415.555,266.941,417.947,275z"/>
</svg>
