<?xml version="1.0" encoding="iso-8859-1"?>
<!-- Generator: Adobe Illustrator 16.0.4, SVG Export Plug-In . SVG Version: 6.00 Build 0)  -->
<!DOCTYPE svg PUBLIC "-//W3C//DTD SVG 1.1//EN" "http://www.w3.org/Graphics/SVG/1.1/DTD/svg11.dtd">
<svg version="1.1" id="Layer_1" xmlns="http://www.w3.org/2000/svg" xmlns:xlink="http://www.w3.org/1999/xlink" x="0px" y="0px"
	 width="512px" height="512px" viewBox="0 0 512 512" style="enable-background:new 0 0 512 512;" xml:space="preserve">
<rect id="background_2_" style="opacity:0;fill:#808080;" width="512" height="512"/>
<path id="tornado_4_" d="M301.711,201.457c-2.025,4.854-3.942,10.338-5.557,16.51c-5.934,22.69-6.525,48.854-1.81,79.99
	c3.812,25.17,2.192,48.443-5.099,73.244c-2.864,9.742-6.471,19.191-10.47,28.418c2.315-22.311,0.099-43.526-12.141-68.702
	c-6.541-13.457-13.866-25.657-20.329-36.422c-8.709-14.505-16.23-27.031-19.992-38.963c-6.215-19.712-7.788-37.833-4.714-54.075
	H301.711 M338.918,179.457H205.087c-9.391,24.227-9.317,52.363,0.245,82.691c7.748,24.569,26.722,47.95,41.517,78.388
	c18.477,38.007,9.676,64.406-1.154,113.209l-2.819,12.701h27.836l2.863-5.851c22.967-46.943,53.223-95.271,42.521-165.933
	c-11.656-76.958,15.641-99.647,21.381-112.185L338.918,179.457L338.918,179.457z"/>
<path d="M417.496,190.677c-6.481-7.204-14.231-12.969-22.773-16.986c0.015-0.703,0.021-1.421,0.021-2.124
	c0-55.911-45.486-101.414-101.396-101.414c-40.561,0-76.51,24.173-92.547,59.925c-1.423-0.073-2.853-0.109-4.284-0.109
	c-39.058,0-71.894,27.145-80.633,63.56c-22.892,8.542-39.249,30.88-39.249,56.864C76.635,283.74,103.58,311,136.7,311h70.534
	c-4.613-7.727-9.01-15.306-12.823-23H136.7c-20.418,0-36.968-17.139-36.968-37.559c0-20.416,16.55-37.471,36.968-37.471
	c0-33.034,26.78-59.86,59.816-59.86c7.009,0,13.732,1.194,19.984,3.41c7.017-36.042,38.753-63.271,76.847-63.271
	c43.244,0,78.301,35.056,78.301,78.3c0,6.455-0.786,12.725-2.258,18.727c24.446,2.433,43.54,23.652,43.54,48.743
	c0,26.726-21.665,48.981-48.391,48.981h-29.189c0.167,1.213,0.332,2.421,0.521,3.667c1.003,6.622,1.674,13.06,2.06,19.333h26.609
	c39.418,0,71.487-32.385,71.487-72.029C436.027,221.15,429.446,203.956,417.496,190.677z"/>
</svg>
