<?xml version="1.0" encoding="iso-8859-1"?>
<!-- Generator: Adobe Illustrator 16.0.4, SVG Export Plug-In . SVG Version: 6.00 Build 0)  -->
<!DOCTYPE svg PUBLIC "-//W3C//DTD SVG 1.1//EN" "http://www.w3.org/Graphics/SVG/1.1/DTD/svg11.dtd">
<svg version="1.1" id="Layer_1" xmlns="http://www.w3.org/2000/svg" xmlns:xlink="http://www.w3.org/1999/xlink" x="0px" y="0px"
	 width="512px" height="512px" viewBox="0 0 512 512" style="enable-background:new 0 0 512 512;" xml:space="preserve">
<rect id="background_1_" style="opacity:0;fill:#929292;" width="512" height="512"/>
<polygon id="new_lightning" points="338.5,352 363,303 339,303 303,375 326.5,375 302,424 326,424 302,472 326,472 362,400 338,400 
	362,352 "/>
<polygon points="266.125,427.569 246.082,427.598 244.383,427.773 245.355,426.434 255.378,409.032 240.345,400.389 230.34,417.775 
	229.65,419.32 228.951,417.768 218.906,400.423 203.895,409.101 213.865,426.307 214.939,427.812 213.062,427.642 193.209,427.667 
	193.232,445.077 213.062,445.05 214.963,444.874 213.821,446.511 203.969,463.614 219.002,472.26 228.933,455.003 229.695,453.328 
	230.408,454.903 240.441,472.227 255.452,463.548 245.362,446.141 244.406,444.835 245.928,445.008 266.147,444.981 "/>
<path d="M447.496,254.677c-6.481-7.204-14.231-12.969-22.773-16.986c0.015-0.703,0.021-1.421,0.021-2.124
	c0-55.911-45.486-101.414-101.396-101.414c-40.561,0-76.51,24.173-92.547,59.925c-1.423-0.073-2.853-0.109-4.284-0.109
	c-39.058,0-71.894,27.145-80.633,63.56c-22.892,8.542-39.249,30.88-39.249,56.864C106.635,347.74,133.58,375,166.7,375h108.492
	l11.702-23H166.7c-20.418,0-36.968-17.139-36.968-37.559c0-20.416,16.55-37.471,36.968-37.471c0-33.034,26.78-59.86,59.816-59.86
	c7.009,0,13.732,1.194,19.984,3.41c7.017-36.042,38.753-63.271,76.847-63.271c43.244,0,78.301,35.056,78.301,78.3
	c0,6.455-0.786,12.725-2.258,18.727c24.446,2.433,43.54,23.652,43.54,48.743c0,26.726-21.665,48.981-48.391,48.981h-3.302
	l-11.702,23h15.004c39.418,0,71.487-32.385,71.487-72.029C466.027,285.15,459.446,267.956,447.496,254.677z"/>
<path id="moon_2_" d="M152.517,114.041c0-26.631,15.351-49.731,37.66-60.957c-5-4.231-10.512-7.873-16.452-10.783
	c-10.575-5.181-22.451-8.099-35-8.099c-44.024,0-79.84,35.816-79.84,79.839s35.816,79.84,79.84,79.84c12.549,0,24.425-2.919,35-8.1
	c5.94-2.91,11.453-6.552,16.453-10.783C167.867,163.772,152.517,140.672,152.517,114.041z M151.328,169.455
	c-4.057,0.922-8.271,1.426-12.604,1.426c-31.342,0-56.84-25.498-56.84-56.84c0-31.341,25.498-56.839,56.84-56.839
	c4.332,0,8.547,0.503,12.604,1.426c-13.879,14.371-22.443,33.905-22.443,55.414C128.885,135.55,137.449,155.084,151.328,169.455z"/>
</svg>
