<?xml version="1.0" encoding="iso-8859-1"?>
<!-- Generator: Adobe Illustrator 16.0.4, SVG Export Plug-In . SVG Version: 6.00 Build 0)  -->
<!DOCTYPE svg PUBLIC "-//W3C//DTD SVG 1.1//EN" "http://www.w3.org/Graphics/SVG/1.1/DTD/svg11.dtd">
<svg version="1.1" id="Layer_1" xmlns="http://www.w3.org/2000/svg" xmlns:xlink="http://www.w3.org/1999/xlink" x="0px" y="0px"
	 width="512px" height="512px" viewBox="0 0 512 512" style="enable-background:new 0 0 512 512;" xml:space="preserve">
<rect id="background_1_" style="opacity:0;fill:#929292;" width="512" height="512"/>
<g>
	<path style="fill:#AB9168;" d="M114.103,333c-16.726,0-32.5-6.6-44.418-18.803c-11.827-12.11-18.34-27.973-18.34-44.775
		c0-34.605,28.153-62.728,62.758-62.728c1.167,0,2.36,0.051,3.571,0.124c6.167-17.174,17.472-32.499,32.151-43.494
		c16.313-12.218,35.738-18.673,56.174-18.673c26.348,0,51.383,11.052,69.143,30.422c3.353-0.531,6.761-0.798,10.168-0.798
		c29.588,0,55.479,20.384,62.571,48.844c20.723,9.074,34.462,29.777,34.462,52.538c0,31.686-25.777,57.343-57.462,57.343H114.103z"
		/>
	<path style="fill:#DBD1AF;" d="M206,149.655c26.892,0,50.99,11.956,67.272,30.841c3.888-0.799,7.914-1.22,12.038-1.22
		c28.741,0,52.722,20.385,58.271,47.484c19.737,7.535,33.762,26.513,33.762,48.896c0,28.975-23.488,52.343-52.462,52.343H114.103
		c-31.899,0-57.758-26.739-57.758-58.639c0-31.898,25.859-57.697,57.758-57.697c2.392,0,4.744,0.193,7.059,0.475
		C132.365,175.93,166.109,149.655,206,149.655 M206,139.655c-21.526,0-41.987,6.941-59.172,19.812
		C132.352,170.311,120.99,185,114.27,202c-0.056,0-0.111,0-0.167,0c-37.362,0-67.758,30.258-67.758,67.62
		c0,18.116,7.019,35.089,19.763,48.14C78.975,330.934,96.02,338,114.103,338h210.779c34.441,0,62.462-27.9,62.462-62.343
		c0-12.902-3.905-25.229-11.293-35.76c-6.172-8.798-14.382-15.744-23.951-20.372c-3.856-13.393-11.75-25.451-22.592-34.397
		c-12.4-10.232-28.097-15.859-44.197-15.859c-2.773,0-5.549,0.169-8.298,0.497C258.437,150.561,232.866,139.655,206,139.655
		L206,139.655z"/>
</g>
<radialGradient id="SVGID_1_" cx="181.3394" cy="177.1841" r="73.9754" fx="173.0834" fy="178.4218" gradientTransform="matrix(0.2416 0.9704 -1.6294 0.4057 426.2339 -70.6689)" gradientUnits="userSpaceOnUse">
	<stop  offset="0" style="stop-color:#DBD1AF"/>
	<stop  offset="0.2518" style="stop-color:#D9CEAC"/>
	<stop  offset="0.4524" style="stop-color:#D2C5A2"/>
	<stop  offset="0.6353" style="stop-color:#C7B691"/>
	<stop  offset="0.8067" style="stop-color:#B7A17A"/>
	<stop  offset="0.9071" style="stop-color:#AB9168"/>
</radialGradient>
<circle style="fill:url(#SVGID_1_);" cx="206" cy="238.448" r="88.793"/>
<radialGradient id="SVGID_2_" cx="283.4023" cy="191.2319" r="65.0434" fx="276.0692" fy="191.5549" gradientTransform="matrix(0.1851 0.9827 -1.4858 0.2798 515.0856 -140.7788)" gradientUnits="userSpaceOnUse">
	<stop  offset="0" style="stop-color:#DBD1AF"/>
	<stop  offset="0.3624" style="stop-color:#CCBD98"/>
	<stop  offset="1" style="stop-color:#AB9168"/>
</radialGradient>
<circle style="fill:url(#SVGID_2_);" cx="285.311" cy="238.759" r="59.482"/>
<radialGradient id="SVGID_3_" cx="324.5234" cy="197.1963" r="80.4165" fx="315.4488" fy="197.1036" gradientTransform="matrix(0.0926 0.9957 -1.4518 0.1351 580.7464 -152.5668)" gradientUnits="userSpaceOnUse">
	<stop  offset="0" style="stop-color:#DBD1AF"/>
	<stop  offset="0.228" style="stop-color:#D8CDAB"/>
	<stop  offset="0.4725" style="stop-color:#CFC19E"/>
	<stop  offset="0.7246" style="stop-color:#C1AE88"/>
	<stop  offset="0.9806" style="stop-color:#AD936B"/>
	<stop  offset="1" style="stop-color:#AB9168"/>
</radialGradient>
<circle style="fill:url(#SVGID_3_);" cx="324.881" cy="275.778" r="52.462"/>
<radialGradient id="SVGID_4_" cx="105.168" cy="237.0645" r="63.9384" fx="97.9528" fy="236.9908" gradientTransform="matrix(0.0055 1 -1.458 0.008 450.2373 130.0008)" gradientUnits="userSpaceOnUse">
	<stop  offset="0" style="stop-color:#DBD1AF"/>
	<stop  offset="0.228" style="stop-color:#D8CDAB"/>
	<stop  offset="0.4725" style="stop-color:#CFC19E"/>
	<stop  offset="0.7246" style="stop-color:#C1AE88"/>
	<stop  offset="0.9806" style="stop-color:#AD936B"/>
	<stop  offset="1" style="stop-color:#AB9168"/>
</radialGradient>
<circle style="fill:url(#SVGID_4_);" cx="114.103" cy="269.482" r="57.758"/>
<radialGradient id="SVGID_5_" cx="209.6699" cy="224.3628" r="72.0419" fx="201.5405" fy="224.4633" gradientTransform="matrix(0.0968 0.9953 -1.4277 0.1389 509.6945 -15.4859)" gradientUnits="userSpaceOnUse">
	<stop  offset="0" style="stop-color:#DBD1AF"/>
	<stop  offset="0.228" style="stop-color:#D8CDAB"/>
	<stop  offset="0.4725" style="stop-color:#CFC19E"/>
	<stop  offset="0.7246" style="stop-color:#C1AE88"/>
	<stop  offset="0.9806" style="stop-color:#AD936B"/>
	<stop  offset="1" style="stop-color:#AB9168"/>
</radialGradient>
<circle style="fill:url(#SVGID_5_);" cx="221.707" cy="262.155" r="65.086"/>
<g>
	<path style="fill:#DBD1AF;" d="M163.533,298.242c-19.701,0-35.73-16.029-35.73-35.731c0-16.823,13.688-30.511,30.51-30.511
		c4.678,0,9.28,1.254,13.306,3.582c0.067-19.896,16.274-36.061,36.186-36.061c17.011,0,30.85,13.84,30.85,30.851
		c0,7.202-2.849,13.956-7.818,18.936H460v48.935H163.533z"/>
</g>
<g>
	<path style="fill:#FFFFFF;" d="M449.97,268.974H214.915c-18.344,0-33.267-14.924-33.267-33.267
		c0-14.422,11.733-26.156,26.155-26.156c11.48,0,20.819,9.341,20.819,20.821c0,9.275-7.545,16.82-16.818,16.82v-9.636
		c3.961,0,7.183-3.223,7.183-7.185c0-6.168-5.017-11.185-11.184-11.185c-9.109,0-16.52,7.41-16.52,16.52
		c0,13.029,10.601,23.631,23.631,23.631H449.97V268.974z"/>
</g>
<g>
	<path style="fill:#FFFFFF;" d="M449.97,288.212H163.533c-14.172,0-25.701-11.529-25.701-25.701c0-11.293,9.188-20.48,20.48-20.48
		c9.135,0,16.565,7.431,16.565,16.565c0,7.515-6.113,13.628-13.628,13.628v-9.636c2.201,0,3.992-1.791,3.992-3.992
		c0-3.821-3.108-6.93-6.93-6.93c-5.979,0-10.844,4.865-10.844,10.845c0,8.858,7.207,16.065,16.064,16.065H449.97V288.212z"/>
</g>
</svg>
