<?xml version="1.0" encoding="iso-8859-1"?>
<!-- Generator: Adobe Illustrator 16.0.4, SVG Export Plug-In . SVG Version: 6.00 Build 0)  -->
<!DOCTYPE svg PUBLIC "-//W3C//DTD SVG 1.1//EN" "http://www.w3.org/Graphics/SVG/1.1/DTD/svg11.dtd">
<svg version="1.1" id="Layer_1" xmlns="http://www.w3.org/2000/svg" xmlns:xlink="http://www.w3.org/1999/xlink" x="0px" y="0px"
	 width="512px" height="512px" viewBox="0 0 512 512" style="enable-background:new 0 0 512 512;" xml:space="preserve">
<g id="raindrop_19_">
	<path style="fill:#00BFEF;" d="M146.977,435.917c-6.163,0-11.829-2.814-15.544-7.722c-5.58-7.363-5.122-16.732,1.225-25.062
		c4.713-6.175,17.953-14.41,19.447-15.329l4.078-2.508l2.25,4.226c0.26,0.488,6.395,12.106,7.952,23.764
		c0.931,6.997-2.143,14.501-7.647,18.676C155.319,434.55,151.253,435.917,146.977,435.917z"/>
	<path style="fill:#2A9CDE;" d="M154.462,391.637c0,0,5.996,11.257,7.463,22.244c0.687,5.165-1.603,11.23-5.906,14.494
		c-2.708,2.051-5.889,3.042-9.042,3.042c-4.532,0-9.01-2.047-11.957-5.938c-4.375-5.772-3.887-12.92,1.217-19.618
		C140.577,400.175,154.462,391.637,154.462,391.637 M157.904,378.955l-8.157,5.015c-2.557,1.572-15.568,9.753-20.665,16.431
		c-7.535,9.889-8.007,21.578-1.235,30.514c4.572,6.038,11.545,9.503,19.129,9.503c5.265,0,10.27-1.683,14.475-4.866
		c6.758-5.126,10.531-14.31,9.395-22.856c-1.664-12.457-8.166-24.771-8.441-25.288L157.904,378.955L157.904,378.955z"/>
</g>
<rect id="background_1_" style="fill:#929292;fill-opacity:0;" width="512" height="512"/>
<g id="raindrop_lolite_19_">
	<linearGradient id="SVGID_1_" gradientUnits="userSpaceOnUse" x1="141.7266" y1="405.3936" x2="164.0949" y2="429.3177">
		<stop  offset="0.1801" style="stop-color:#00FFFF;stop-opacity:0"/>
		<stop  offset="0.4166" style="stop-color:#31FFFF;stop-opacity:0.3348"/>
		<stop  offset="0.7099" style="stop-color:#73FFFF;stop-opacity:0.75"/>
	</linearGradient>
	<path style="fill:url(#SVGID_1_);" d="M154.462,391.637c0,0,5.996,11.257,7.463,22.244c0.687,5.165-1.603,11.23-5.906,14.494
		c-6.601,4.997-16.002,3.703-20.999-2.896c-4.375-5.772-3.887-12.92,1.217-19.618C140.577,400.175,154.462,391.637,154.462,391.637z
		"/>
</g>
<ellipse id="raindrop_hilite_10_" transform="matrix(0.5012 -0.8654 0.8654 0.5012 -286.0927 326.6785)" style="fill:#BDFFFF;" cx="140.3" cy="411.483" rx="5.83" ry="3.223"/>
<g id="raindrop_17_">
	<path style="fill:#00BFEF;" d="M256.978,435.917c-6.163,0-11.829-2.814-15.544-7.722c-5.58-7.364-5.122-16.733,1.225-25.062
		c4.713-6.175,17.952-14.41,19.446-15.329l4.079-2.508l2.25,4.226c0.261,0.489,6.395,12.106,7.952,23.763
		c0.931,6.998-2.143,14.502-7.646,18.677C265.319,434.55,261.253,435.917,256.978,435.917z"/>
	<path style="fill:#2A9CDE;" d="M264.462,391.637c0,0,5.995,11.257,7.464,22.244c0.687,5.165-1.603,11.23-5.906,14.495
		c-2.708,2.05-5.889,3.041-9.042,3.041c-4.532,0-9.01-2.047-11.957-5.938c-4.374-5.772-3.888-12.92,1.217-19.618
		C250.577,400.175,264.462,391.637,264.462,391.637 M267.904,378.954l-8.156,5.017c-2.557,1.571-15.568,9.752-20.665,16.429
		c-7.536,9.889-8.007,21.578-1.236,30.515c4.572,6.038,11.545,9.503,19.13,9.503c5.264,0,10.269-1.683,14.474-4.865
		c6.759-5.127,10.532-14.311,9.396-22.856c-1.666-12.458-8.166-24.771-8.442-25.289L267.904,378.954L267.904,378.954z"/>
</g>
<g id="raindrop_lolite_17_">
	<linearGradient id="SVGID_2_" gradientUnits="userSpaceOnUse" x1="251.7266" y1="405.3936" x2="274.0956" y2="429.3185">
		<stop  offset="0.1801" style="stop-color:#00FFFF;stop-opacity:0"/>
		<stop  offset="0.4166" style="stop-color:#31FFFF;stop-opacity:0.3348"/>
		<stop  offset="0.7099" style="stop-color:#73FFFF;stop-opacity:0.75"/>
	</linearGradient>
	<path style="fill:url(#SVGID_2_);" d="M264.462,391.637c0,0,5.995,11.257,7.464,22.244c0.687,5.165-1.603,11.23-5.906,14.495
		c-6.601,4.996-16.002,3.702-20.999-2.897c-4.374-5.772-3.888-12.92,1.217-19.618C250.577,400.175,264.462,391.637,264.462,391.637z
		"/>
</g>
<path id="raindrop_hilite_9_" style="fill:#BDFFFF;" d="M253.222,406.438c1.541,0.89,1.48,3.872-0.133,6.66
	c-1.615,2.785-4.172,4.32-5.71,3.43c-1.541-0.892-1.482-3.873,0.129-6.66C249.124,407.08,251.68,405.544,253.222,406.438z"/>
<g id="raindrop_15_">
	<path style="fill:#00BFEF;" d="M366.978,435.917c-6.163,0-11.829-2.814-15.545-7.722c-5.579-7.364-5.122-16.733,1.226-25.062
		c4.713-6.175,17.952-14.41,19.446-15.329l4.079-2.508l2.25,4.226c0.261,0.489,6.395,12.106,7.952,23.763
		c0.931,6.998-2.143,14.502-7.646,18.677C375.319,434.55,371.253,435.917,366.978,435.917z"/>
	<path style="fill:#2A9CDE;" d="M374.462,391.637c0,0,5.995,11.257,7.464,22.244c0.687,5.165-1.603,11.23-5.906,14.495
		c-2.708,2.05-5.889,3.041-9.042,3.041c-4.532,0-9.01-2.047-11.957-5.938c-4.374-5.772-3.888-12.92,1.217-19.618
		C360.577,400.175,374.462,391.637,374.462,391.637 M377.904,378.954l-8.156,5.017c-2.557,1.571-15.568,9.752-20.665,16.429
		c-7.535,9.889-8.007,21.578-1.235,30.515c4.571,6.038,11.545,9.503,19.13,9.503c5.264,0,10.269-1.683,14.474-4.865
		c6.759-5.127,10.532-14.311,9.396-22.856c-1.666-12.458-8.166-24.771-8.442-25.289L377.904,378.954L377.904,378.954z"/>
</g>
<g id="raindrop_lolite_15_">
	<linearGradient id="SVGID_3_" gradientUnits="userSpaceOnUse" x1="361.7266" y1="405.3936" x2="384.0949" y2="429.3177">
		<stop  offset="0.1801" style="stop-color:#00FFFF;stop-opacity:0"/>
		<stop  offset="0.4166" style="stop-color:#31FFFF;stop-opacity:0.3348"/>
		<stop  offset="0.7099" style="stop-color:#73FFFF;stop-opacity:0.75"/>
	</linearGradient>
	<path style="fill:url(#SVGID_3_);" d="M374.462,391.637c0,0,5.995,11.257,7.464,22.244c0.687,5.165-1.603,11.23-5.906,14.495
		c-6.601,4.996-16.002,3.702-20.999-2.897c-4.374-5.772-3.888-12.92,1.217-19.618C360.577,400.175,374.462,391.637,374.462,391.637z
		"/>
</g>
<path id="raindrop_hilite_8_" style="fill:#BDFFFF;" d="M363.222,406.438c1.541,0.89,1.48,3.872-0.133,6.66
	c-1.615,2.785-4.172,4.32-5.71,3.43c-1.541-0.892-1.482-3.873,0.129-6.66C359.124,407.08,361.68,405.544,363.222,406.438z"/>
<g>
	<path style="fill:#CCCCCC;" d="M164.103,253c-16.726,0-32.5-6.6-44.418-18.803c-11.827-12.11-18.34-27.972-18.34-44.775
		c0-34.605,28.153-62.728,62.758-62.728c1.167,0,2.36,0.051,3.571,0.124c6.167-17.174,17.472-32.499,32.151-43.494
		C216.139,71.106,235.563,64.651,256,64.651c26.349,0,51.383,11.052,69.143,30.422c3.353-0.531,6.761-0.798,10.168-0.798
		c29.588,0,55.479,20.384,62.571,48.844c20.723,9.074,34.462,29.777,34.462,52.538c0,31.686-25.777,57.343-57.462,57.343H164.103z"
		/>
	<path style="fill:#BCBEC0;" d="M256,69.655c26.892,0,50.99,11.956,67.272,30.841c3.888-0.799,7.914-1.22,12.038-1.22
		c28.741,0,52.722,20.385,58.271,47.484c19.737,7.535,33.762,26.513,33.762,48.896c0,28.975-23.488,52.343-52.462,52.343H164.103
		c-31.899,0-57.758-26.739-57.758-58.639c0-31.898,25.859-57.697,57.758-57.697c2.392,0,4.744,0.193,7.059,0.475
		C182.365,95.93,216.109,69.655,256,69.655 M256,59.655c-21.526,0-41.987,6.941-59.172,19.812C182.352,90.311,170.99,105,164.27,122
		c-0.056,0-0.111,0-0.167,0c-37.362,0-67.758,30.258-67.758,67.62c0,18.116,7.019,35.09,19.763,48.139
		C128.975,250.934,146.02,258,164.103,258h210.779c34.441,0,62.462-27.9,62.462-62.343c0-12.903-3.905-25.229-11.293-35.76
		c-6.172-8.798-14.382-15.744-23.951-20.372c-3.856-13.393-11.75-25.451-22.592-34.397c-12.4-10.232-28.097-15.859-44.197-15.859
		c-2.773,0-5.549,0.169-8.298,0.497C308.437,70.561,282.866,59.655,256,59.655L256,59.655z"/>
</g>
<g>
	<path style="fill:#EFEFEF;" d="M195.77,436.084c-4.448,0-5.15-4.291-5.57-6.854c-0.291-1.773-0.642-4.293-1.075-7.703
		c-0.785-6.175-1.827-15.241-3.099-26.946c-2.138-19.68-4.958-47.115-8.382-81.543c-5.828-58.605-11.462-117.972-11.518-118.565
		L165.606,189h60.319l-0.51,5.465c-0.056,0.593-5.605,59.962-11.392,118.568c-3.399,34.431-6.214,61.868-8.367,81.55
		c-1.281,11.711-2.339,20.781-3.146,26.961c-0.446,3.419-0.813,5.947-1.122,7.73C200.977,431.654,200.209,436.084,195.77,436.084z"
		/>
	<g>
		<path style="fill:#BCBEC0;" d="M220.218,194c0,0-22.04,237.084-24.558,237.084c-2.179,0-24.557-237.084-24.557-237.084H220
			 M231.414,184h-10.978h-49.333H160.11l1.038,10.944c0.056,0.593,5.691,59.972,11.52,118.587
			c3.425,34.443,6.247,61.894,8.387,81.589c1.275,11.735,2.321,20.832,3.109,27.037c0.441,3.47,0.801,6.047,1.101,7.881
			c0.187,1.136,0.349,1.986,0.513,2.675c1.466,6.179,6.299,8.371,9.992,8.371c3.627,0,8.417-2.143,9.975-8.182
			c0.187-0.722,0.368-1.604,0.57-2.775c0.321-1.852,0.698-4.447,1.153-7.936c0.812-6.214,1.875-15.319,3.159-27.064
			c2.154-19.699,4.971-47.154,8.372-81.603c5.788-58.619,11.339-118.001,11.394-118.594L231.414,184L231.414,184z"/>
	</g>
</g>
<g>
	<path style="fill:#EFEFEF;" d="M272.385,350c-4.481,0-5.111-3.79-5.983-9.035c-0.493-2.968-1.147-7.313-1.944-12.917
		c-1.335-9.393-3.096-22.481-5.232-38.902c-3.636-27.941-7.151-56.247-7.187-56.53L251.341,227h42.078l-0.686,5.607
		c-0.034,0.283-3.497,28.59-7.108,56.534c-2.122,16.425-3.88,29.517-5.225,38.911c-0.803,5.61-1.467,9.962-1.976,12.935
		C277.531,346.22,276.885,350,272.385,350z"/>
	<g>
		<path style="fill:#BCBEC0;" d="M287.885,232c0,0-13.872,113-15.442,113C271.083,345,257,232,257,232h31 M299.067,222h-11.297H257
			h-11.318l1.394,11.232c0.035,0.283,3.552,28.603,7.19,56.558c2.14,16.441,3.903,29.55,5.241,38.961
			c0.802,5.643,1.462,10.027,1.962,13.033c0.291,1.751,0.533,3.073,0.741,4.043c0.156,0.729,0.303,1.305,0.461,1.814
			c1.687,5.432,6.287,7.358,9.714,7.358c1.908,0,8.28-0.653,10.185-9.061c0.225-0.992,0.481-2.337,0.784-4.11
			c0.516-3.018,1.188-7.415,1.997-13.068c1.348-9.418,3.108-22.532,5.233-38.979c3.613-27.96,7.078-56.285,7.112-56.568L299.067,222
			L299.067,222z"/>
	</g>
</g>
<g>
	<path style="fill:#EFEFEF;" d="M223.195,328c-4.289,0-5.09-3.835-5.865-7.544c-0.459-2.199-1.066-5.41-1.805-9.546
		c-1.233-6.908-2.86-16.532-4.833-28.604c-3.356-20.53-6.601-41.329-6.633-41.536L203.16,235h40.058l-0.885,5.759
		c-0.032,0.208-3.229,21.009-6.562,41.542c-1.96,12.075-3.583,21.703-4.826,28.615c-0.745,4.143-1.362,7.361-1.836,9.567
		C228.316,324.179,227.496,328,223.195,328z"/>
	<g>
		<path style="fill:#BCBEC0;" d="M237.196,240c0,0-12.65,83-14.098,83C221.843,323,209,240,209,240h28 M249.045,230h-11.653H209
			h-11.68l1.799,11.541c0.033,0.208,3.28,21.024,6.639,41.573c1.977,12.096,3.607,21.744,4.846,28.676
			c0.757,4.242,1.357,7.411,1.833,9.688c0.284,1.361,0.525,2.404,0.736,3.19c2.082,7.731,8.198,8.332,10.022,8.332
			c1.803,0,7.853-0.591,10.017-8.195c0.234-0.824,0.484-1.864,0.787-3.272c0.492-2.292,1.103-5.476,1.868-9.731
			c1.248-6.94,2.876-16.596,4.841-28.698c3.336-20.555,6.536-41.376,6.568-41.584L249.045,230L249.045,230z"/>
	</g>
</g>
<g>
	<path style="fill:#EFEFEF;" d="M162.155,355.325c-4.121,0-5.054-3.991-5.36-5.303c-0.236-1.011-0.518-2.423-0.861-4.319
		c-0.611-3.368-1.42-8.301-2.406-14.663c-1.654-10.664-3.833-25.527-6.48-44.175c-4.503-31.73-8.856-63.874-8.899-64.195
		l-0.767-5.67h49.537l-0.755,5.661c-0.042,0.321-4.331,32.467-8.802,64.2c-2.627,18.65-4.804,33.517-6.469,44.185
		c-0.994,6.368-1.816,11.308-2.445,14.683C167.371,351.507,166.659,355.325,162.155,355.325z"/>
	<g>
		<path style="fill:#BCBEC0;" d="M181.104,222c0,0-17.056,128.325-19,128.325c-1.684,0-19-128.325-19-128.325H181 M192.628,212
			h-11.421h-38.104h-11.445l1.535,11.341c0.043,0.321,4.398,32.48,8.904,64.226c2.649,18.669,4.833,33.553,6.489,44.239
			c0.993,6.403,1.81,11.379,2.428,14.788c0.359,1.979,0.657,3.473,0.913,4.565c0.189,0.809,0.365,1.445,0.555,2.005
			c1.79,5.285,6.33,7.16,9.674,7.16c2.408,0,8.227-0.881,10.243-9.044c0.276-1.116,0.591-2.634,0.965-4.638
			c0.638-3.423,1.469-8.411,2.47-14.827c1.668-10.692,3.848-25.583,6.479-44.259c4.473-31.751,8.764-63.915,8.807-64.236
			L192.628,212L192.628,212z"/>
	</g>
</g>
<radialGradient id="SVGID_4_" cx="195.7695" cy="272.042" r="14.3017" gradientTransform="matrix(1 0 0 5.7665 0 -1296.6936)" gradientUnits="userSpaceOnUse">
	<stop  offset="0" style="stop-color:#FFFFFF"/>
	<stop  offset="0.3623" style="stop-color:#FBFBFB"/>
	<stop  offset="0.6857" style="stop-color:#F1F1F1"/>
	<stop  offset="0.994" style="stop-color:#DEDEDE"/>
	<stop  offset="1" style="stop-color:#DEDEDE"/>
</radialGradient>
<path style="fill:url(#SVGID_4_);" d="M220.437,195c0,0-22.148,237.084-24.667,237.084c-2.179,0-24.667-237.084-24.667-237.084
	H220.437z"/>
<radialGradient id="SVGID_5_" cx="272.3848" cy="222.249" r="9.9199" gradientTransform="matrix(1 0 0 7.8823 0 -1531.5713)" gradientUnits="userSpaceOnUse">
	<stop  offset="0" style="stop-color:#FFFFFF"/>
	<stop  offset="0.3623" style="stop-color:#FBFBFB"/>
	<stop  offset="0.6857" style="stop-color:#F1F1F1"/>
	<stop  offset="0.994" style="stop-color:#DEDEDE"/>
	<stop  offset="1" style="stop-color:#DEDEDE"/>
</radialGradient>
<path style="fill:url(#SVGID_5_);" d="M287.771,232c0,0-13.815,113-15.386,113C271.025,345,257,232,257,232H287.771z"/>
<radialGradient id="SVGID_6_" cx="223.1958" cy="254" r="8.7531" gradientTransform="matrix(1 0 0 7.6544 0 -1690.2227)" gradientUnits="userSpaceOnUse">
	<stop  offset="0" style="stop-color:#FFFFFF"/>
	<stop  offset="0.3623" style="stop-color:#FBFBFB"/>
	<stop  offset="0.6857" style="stop-color:#F1F1F1"/>
	<stop  offset="0.994" style="stop-color:#DEDEDE"/>
	<stop  offset="1" style="stop-color:#DEDEDE"/>
</radialGradient>
<path style="fill:url(#SVGID_6_);" d="M237.392,240c0,0-12.748,83-14.196,83C221.941,323,209,240,209,240H237.392z"/>
<radialGradient id="SVGID_7_" cx="162.0005" cy="221.1665" r="110.6752" gradientTransform="matrix(-4.371139e-08 1 -0.1175 -5.134209e-09 187.9781 59.166)" gradientUnits="userSpaceOnUse">
	<stop  offset="0" style="stop-color:#FFFFFF"/>
	<stop  offset="0.3623" style="stop-color:#FBFBFB"/>
	<stop  offset="0.6857" style="stop-color:#F1F1F1"/>
	<stop  offset="0.994" style="stop-color:#DEDEDE"/>
	<stop  offset="1" style="stop-color:#DEDEDE"/>
</radialGradient>
<path style="fill:url(#SVGID_7_);" d="M181.207,222c0,0-17.107,128.325-19.052,128.325c-1.684,0-19.052-128.325-19.052-128.325
	H181.207z"/>
<g>
	<path style="fill:#CCCCCC;" d="M374.882,248c28.974,0,52.462-23.368,52.462-52.343c0-22.384-14.024-41.422-33.762-48.957
		c-5.55-27.1-29.53-47.454-58.271-47.454c-4.124,0-8.15,0.436-12.038,1.235C306.99,81.596,282.892,69.647,256,69.647
		c-39.891,0-73.635,26.309-84.838,62.518c-2.315-0.282-4.667-0.443-7.059-0.443c-31.899,0-57.758,25.739-57.758,57.638
		c0,31.899,25.859,58.64,57.758,58.64H374.882z"/>
</g>
<radialGradient id="SVGID_8_" cx="231.3394" cy="97.1841" r="73.9754" fx="223.0834" fy="98.4218" gradientTransform="matrix(0.2416 0.9704 -1.6294 0.4057 333.7988 -166.7303)" gradientUnits="userSpaceOnUse">
	<stop  offset="0" style="stop-color:#FFFFFF"/>
	<stop  offset="0.2886" style="stop-color:#FCFCFC"/>
	<stop  offset="0.5185" style="stop-color:#F2F2F2"/>
	<stop  offset="0.7274" style="stop-color:#E1E1E1"/>
	<stop  offset="0.9071" style="stop-color:#CCCCCC"/>
</radialGradient>
<circle style="fill:url(#SVGID_8_);" cx="256" cy="158.448" r="88.793"/>
<radialGradient id="SVGID_9_" cx="333.4023" cy="111.2319" r="65.0434" fx="326.0692" fy="111.5549" gradientTransform="matrix(0.1851 0.9827 -1.4858 0.2798 436.9706 -247.5327)" gradientUnits="userSpaceOnUse">
	<stop  offset="0" style="stop-color:#FFFFFF"/>
	<stop  offset="0.4857" style="stop-color:#E8E8E8"/>
	<stop  offset="1" style="stop-color:#CCCCCC"/>
</radialGradient>
<circle style="fill:url(#SVGID_9_);" cx="335.311" cy="158.759" r="59.482"/>
<radialGradient id="SVGID_10_" cx="374.5234" cy="117.1963" r="80.4165" fx="365.4488" fy="117.1036" gradientTransform="matrix(0.0926 0.9957 -1.4518 0.1351 509.9721 -271.5463)" gradientUnits="userSpaceOnUse">
	<stop  offset="0" style="stop-color:#FFFFFF"/>
	<stop  offset="0.2716" style="stop-color:#FBFBFB"/>
	<stop  offset="0.5628" style="stop-color:#EEEEEE"/>
	<stop  offset="0.8622" style="stop-color:#D8D8D8"/>
	<stop  offset="1" style="stop-color:#CCCCCC"/>
</radialGradient>
<circle style="fill:url(#SVGID_10_);" cx="374.881" cy="195.778" r="52.462"/>
<radialGradient id="SVGID_11_" cx="155.168" cy="157.0645" r="63.9384" fx="147.9528" fy="156.9908" gradientTransform="matrix(0.0055 1 -1.458 0.008 383.3206 0.6418)" gradientUnits="userSpaceOnUse">
	<stop  offset="0" style="stop-color:#FFFFFF"/>
	<stop  offset="0.2716" style="stop-color:#FBFBFB"/>
	<stop  offset="0.5628" style="stop-color:#EEEEEE"/>
	<stop  offset="0.8622" style="stop-color:#D8D8D8"/>
	<stop  offset="1" style="stop-color:#CCCCCC"/>
</radialGradient>
<circle style="fill:url(#SVGID_11_);" cx="164.103" cy="189.482" r="57.758"/>
<radialGradient id="SVGID_12_" cx="259.6699" cy="144.3628" r="72.0419" fx="251.5405" fy="144.4633" gradientTransform="matrix(0.0968 0.9953 -1.4277 0.1389 440.6354 -134.1389)" gradientUnits="userSpaceOnUse">
	<stop  offset="0" style="stop-color:#FFFFFF"/>
	<stop  offset="0.2716" style="stop-color:#FBFBFB"/>
	<stop  offset="0.5628" style="stop-color:#EEEEEE"/>
	<stop  offset="0.8622" style="stop-color:#D8D8D8"/>
	<stop  offset="1" style="stop-color:#CCCCCC"/>
</radialGradient>
<circle style="fill:url(#SVGID_12_);" cx="271.707" cy="182.155" r="65.086"/>
</svg>
