<?xml version="1.0" encoding="iso-8859-1"?>
<!-- Generator: Adobe Illustrator 16.0.4, SVG Export Plug-In . SVG Version: 6.00 Build 0)  -->
<!DOCTYPE svg PUBLIC "-//W3C//DTD SVG 1.1//EN" "http://www.w3.org/Graphics/SVG/1.1/DTD/svg11.dtd">
<svg version="1.1" id="Layer_1" xmlns="http://www.w3.org/2000/svg" xmlns:xlink="http://www.w3.org/1999/xlink" x="0px" y="0px"
	 width="512px" height="512px" viewBox="0 0 512 512" style="enable-background:new 0 0 512 512;" xml:space="preserve">
<rect id="background_1_" style="opacity:0;fill:#929292;" width="512" height="512"/>
<g>
	<path style="fill:#CCCCCC;" d="M261.9,418.242c-28.827,0-52.279-23.454-52.279-52.282c0-5.788,0.936-11.44,2.787-16.855
		c-18.669-11.882-30.094-32.498-30.094-54.812c0-7.051,1.114-13.937,3.316-20.535c-11.765-4.729-22.138-12.295-30.312-22.132
		c-30.916-4.315-53.974-30.668-53.974-62.144c0-34.605,28.153-62.758,62.758-62.758c1.167,0,2.36,0.036,3.571,0.108
		c6.167-17.174,17.472-32.506,32.151-43.501C216.139,71.114,235.563,64.655,256,64.655c26.349,0,51.383,11.05,69.143,30.42
		c3.353-0.531,6.761-0.799,10.168-0.799c29.588,0,55.479,20.384,62.571,48.844c20.723,9.074,34.462,29.898,34.462,52.658
		c0,27.305-19.673,51.059-46.192,56.354c-12.782,26.308-39.543,43.161-68.919,43.161c-1.66,0-3.339-0.057-5.025-0.169
		c-0.16,12.998-4.083,25.318-11.407,35.928c8.552,9.545,13.383,22.035,13.383,34.908C314.183,394.788,290.729,418.242,261.9,418.242
		z"/>
	<path style="fill:#A0A0A0;" d="M256,69.655c26.892,0,50.99,11.956,67.272,30.841c3.888-0.799,7.914-1.22,12.038-1.22
		c28.741,0,52.722,20.385,58.271,47.484c19.737,7.535,33.762,26.634,33.762,49.018c0,26.312-19.37,48.096-44.627,51.879
		c-11.128,25.109-36.252,42.636-65.484,42.636c-3.473,0-6.884-0.261-10.225-0.738c0.123,1.564,0.204,3.142,0.204,4.738
		c0,14.061-4.854,26.98-12.96,37.204c9.186,8.625,14.931,20.87,14.931,34.463c0,26.113-21.167,47.282-47.282,47.282
		c-26.11,0-47.279-21.169-47.279-47.282c0-6.761,1.429-13.184,3.986-19c-18.642-10.166-31.292-29.938-31.292-52.667
		c0-8.343,1.708-16.285,4.787-23.503c-13.646-4.432-25.487-12.849-34.166-23.879c-28.998-3.079-51.591-27.613-51.591-57.428
		c0-31.898,25.859-57.758,57.758-57.758c2.392,0,4.744,0.163,7.059,0.445C182.365,95.96,216.11,69.655,256,69.655 M256,59.655
		c-21.526,0-41.987,6.803-59.171,19.675c-14.476,10.843-25.838,25.696-32.559,42.395c-0.056,0-0.111,0-0.167,0
		c-37.362,0-67.758,30.396-67.758,67.758c0,16.836,6.217,32.978,17.507,45.451c10.259,11.334,23.932,18.817,38.863,21.348
		c7.498,8.61,16.623,15.495,26.864,20.295c-1.505,5.75-2.264,11.677-2.264,17.717c0,22.74,11.018,43.844,29.238,56.888
		c-1.284,4.796-1.931,9.74-1.931,14.779c0,31.586,25.695,57.282,57.279,57.282c31.586,0,57.282-25.696,57.282-57.282
		c0-12.806-4.362-25.266-12.177-35.277c5.665-9.236,9.046-19.546,9.956-30.39c0.09,0,0.181,0,0.271,0
		c30.473,0,58.302-17.021,72.312-43.79c12.556-3.028,23.946-9.927,32.506-19.779c9.861-11.352,15.293-25.893,15.293-40.946
		c0-12.903-3.905-25.289-11.293-35.82c-6.172-8.798-14.382-15.774-23.951-20.402c-3.856-13.393-11.75-25.466-22.592-34.413
		c-12.4-10.232-28.097-15.867-44.197-15.867c-2.773,0-5.549,0.166-8.298,0.493C308.437,70.564,282.866,59.655,256,59.655L256,59.655
		z"/>
</g>
<radialGradient id="SVGID_1_" cx="231.3394" cy="97.1841" r="73.9754" fx="223.0834" fy="98.4218" gradientTransform="matrix(0.2416 0.9704 -1.6294 0.4057 333.7988 -166.7303)" gradientUnits="userSpaceOnUse">
	<stop  offset="0" style="stop-color:#FFFFFF"/>
	<stop  offset="0.2886" style="stop-color:#FCFCFC"/>
	<stop  offset="0.5185" style="stop-color:#F2F2F2"/>
	<stop  offset="0.7274" style="stop-color:#E1E1E1"/>
	<stop  offset="0.9071" style="stop-color:#CCCCCC"/>
</radialGradient>
<circle style="fill:url(#SVGID_1_);" cx="256" cy="158.448" r="88.793"/>
<radialGradient id="SVGID_2_" cx="333.4023" cy="111.2319" r="65.0434" fx="326.0692" fy="111.5549" gradientTransform="matrix(0.1851 0.9827 -1.4858 0.2798 436.9706 -247.5327)" gradientUnits="userSpaceOnUse">
	<stop  offset="0" style="stop-color:#FFFFFF"/>
	<stop  offset="0.4857" style="stop-color:#E8E8E8"/>
	<stop  offset="1" style="stop-color:#CCCCCC"/>
</radialGradient>
<circle style="fill:url(#SVGID_2_);" cx="335.311" cy="158.759" r="59.482"/>
<radialGradient id="SVGID_3_" cx="374.5234" cy="117.1963" r="80.4165" fx="365.4488" fy="117.1036" gradientTransform="matrix(0.0926 0.9957 -1.4518 0.1351 509.9721 -271.5463)" gradientUnits="userSpaceOnUse">
	<stop  offset="0" style="stop-color:#FFFFFF"/>
	<stop  offset="0.2716" style="stop-color:#FBFBFB"/>
	<stop  offset="0.5628" style="stop-color:#EEEEEE"/>
	<stop  offset="0.8622" style="stop-color:#D8D8D8"/>
	<stop  offset="1" style="stop-color:#CCCCCC"/>
</radialGradient>
<circle style="fill:url(#SVGID_3_);" cx="374.881" cy="195.778" r="52.462"/>
<radialGradient id="SVGID_4_" cx="155.168" cy="157.0645" r="63.9384" fx="147.9528" fy="156.9908" gradientTransform="matrix(0.0055 1 -1.458 0.008 383.3206 0.6418)" gradientUnits="userSpaceOnUse">
	<stop  offset="0" style="stop-color:#FFFFFF"/>
	<stop  offset="0.2716" style="stop-color:#FBFBFB"/>
	<stop  offset="0.5628" style="stop-color:#EEEEEE"/>
	<stop  offset="0.8622" style="stop-color:#D8D8D8"/>
	<stop  offset="1" style="stop-color:#CCCCCC"/>
</radialGradient>
<circle style="fill:url(#SVGID_4_);" cx="164.103" cy="189.482" r="57.758"/>
<radialGradient id="SVGID_5_" cx="259.6699" cy="144.3628" r="72.0419" fx="251.5405" fy="144.4633" gradientTransform="matrix(0.0968 0.9953 -1.4277 0.1389 440.6354 -134.1389)" gradientUnits="userSpaceOnUse">
	<stop  offset="0" style="stop-color:#FFFFFF"/>
	<stop  offset="0.2716" style="stop-color:#FBFBFB"/>
	<stop  offset="0.5628" style="stop-color:#EEEEEE"/>
	<stop  offset="0.8622" style="stop-color:#D8D8D8"/>
	<stop  offset="1" style="stop-color:#CCCCCC"/>
</radialGradient>
<circle style="fill:url(#SVGID_5_);" cx="271.707" cy="182.155" r="65.086"/>
<path style="fill-rule:evenodd;clip-rule:evenodd;fill:#DD3900;" d="M250.982,287.488c0,0,10.685,2.512,19.252,8.725
	c6.998,5.074,11.363,13.945,13.309,24.753c1.432,7.95,1.375,17.014-0.154,24.864c-0.444,2.283-1.027,4.661-1.59,6.961
	c-0.528,2.156-1.01,4.192-1.401,6.101c0.638-0.217,2.696-2.517,6.936-3.892c1.766-0.573,6.424-1.114,6.424-1.114l0.719,13.612
	c0.269,4.325,2.746,9.053,5.884,15.037c2.729,5.204,5.82,11.104,8.19,18.253c5.875,17.726,1.836,34.887-11.371,48.324
	c-10.185,10.362-23.923,16.069-38.686,16.069c-19.737,0-37.982-10.4-47.615-27.142c-16.748-29.106-1.726-62.607,16.228-82.452
	c1.647-1.821,3.297-3.619,4.943-5.413c4.262-4.646,8.288-9.033,12.21-13.745c3.509-4.217,10.324-12.514,11.037-19.103
	C257.35,298.333,250.982,287.488,250.982,287.488z"/>
<linearGradient id="SVGID_6_" gradientUnits="userSpaceOnUse" x1="257.4033" y1="361.2324" x2="257.4033" y2="443.2276">
	<stop  offset="0" style="stop-color:#FFB303"/>
	<stop  offset="1" style="stop-color:#FF5C00"/>
</linearGradient>
<path style="fill-rule:evenodd;clip-rule:evenodd;fill:url(#SVGID_6_);" d="M274.476,381.274
	c-9.604-10.248-3.135-25.896-0.902-37.356c2.317-11.895,1.215-31.293-9.569-39.883c1.387,6.14,2.015,13.156-0.283,19.635
	c-2.539,7.158-6.955,13.365-11.775,19.156c-5.644,6.781-11.546,12.972-17.424,19.471c-16.771,18.538-28.554,47.157-14.976,70.756
	c14.485,25.176,50.103,29.806,70.501,9.05c10.379-10.56,13.799-23.722,9.011-38.168c-4.954-14.946-13.865-24.557-14.562-35.818
	C277.403,369.647,274.476,381.274,274.476,381.274z"/>
<linearGradient id="SVGID_7_" gradientUnits="userSpaceOnUse" x1="256.0693" y1="388.4346" x2="256.0693" y2="433.2352">
	<stop  offset="0" style="stop-color:#FFDE03"/>
	<stop  offset="1" style="stop-color:#FF9A00"/>
</linearGradient>
<path style="fill-rule:evenodd;clip-rule:evenodd;fill:url(#SVGID_7_);" d="M248.815,401.408c6.088-5.772,0.857-14.587-0.558-21.045
	c-1.468-6.701-0.769-17.63,6.066-22.468c-0.878,3.457-1.276,7.41,0.18,11.06c1.61,4.034,4.409,7.531,7.463,10.793
	c3.578,3.821,7.319,7.308,11.048,10.969c10.631,10.442,18.099,26.567,9.492,39.86c-9.182,14.184-31.76,16.793-44.691,5.1
	c-6.579-5.95-8.323-8.287-10.937-16.569c-4.324-13.703,6.757-32.051,7.199-38.395C238.573,381.576,248.815,401.408,248.815,401.408z
	"/>
</svg>
