<?xml version="1.0" encoding="iso-8859-1"?>
<!-- Generator: Adobe Illustrator 16.0.4, SVG Export Plug-In . SVG Version: 6.00 Build 0)  -->
<!DOCTYPE svg PUBLIC "-//W3C//DTD SVG 1.1//EN" "http://www.w3.org/Graphics/SVG/1.1/DTD/svg11.dtd">
<svg version="1.1" id="Layer_1" xmlns="http://www.w3.org/2000/svg" xmlns:xlink="http://www.w3.org/1999/xlink" x="0px" y="0px"
	 width="512px" height="512px" viewBox="0 0 512 512" style="enable-background:new 0 0 512 512;" xml:space="preserve">
<rect id="background_2_" style="opacity:0;fill:#929292;" width="512" height="512"/>
<g>
	<path style="fill:#ABABAB;" d="M164.103,253c-16.726,0-32.5-6.6-44.418-18.803c-11.827-12.11-18.34-27.972-18.34-44.775
		c0-34.605,28.153-62.728,62.758-62.728c1.167,0,2.36,0.051,3.571,0.124c6.167-17.174,17.472-32.499,32.151-43.494
		C216.139,71.106,235.563,64.651,256,64.651c26.349,0,51.383,11.052,69.143,30.422c3.353-0.531,6.761-0.798,10.168-0.798
		c29.588,0,55.479,20.384,62.571,48.844c20.723,9.074,34.462,29.777,34.462,52.538c0,31.686-25.777,57.343-57.462,57.343H164.103z"
		/>
	<path style="fill:#A0A0A0;" d="M256,69.655c26.892,0,50.99,11.956,67.272,30.841c3.888-0.799,7.914-1.22,12.038-1.22
		c28.741,0,52.722,20.385,58.271,47.484c19.737,7.535,33.762,26.513,33.762,48.896c0,28.975-23.488,52.343-52.462,52.343H164.103
		c-31.899,0-57.758-26.739-57.758-58.639c0-31.898,25.859-57.697,57.758-57.697c2.392,0,4.744,0.193,7.059,0.475
		C182.365,95.93,216.109,69.655,256,69.655 M256,59.655c-21.526,0-41.987,6.941-59.172,19.812C182.352,90.311,170.99,105,164.27,122
		c-0.056,0-0.111,0-0.167,0c-37.362,0-67.758,30.258-67.758,67.62c0,18.116,7.019,35.09,19.763,48.139
		C128.975,250.934,146.02,258,164.103,258h210.779c34.441,0,62.462-27.9,62.462-62.343c0-12.903-3.905-25.229-11.293-35.76
		c-6.172-8.798-14.382-15.744-23.951-20.372c-3.856-13.393-11.75-25.451-22.592-34.397c-12.4-10.232-28.097-15.859-44.197-15.859
		c-2.773,0-5.549,0.169-8.298,0.497C308.437,70.561,282.866,59.655,256,59.655L256,59.655z"/>
</g>
<radialGradient id="SVGID_1_" cx="231.3394" cy="97.1841" r="73.9754" fx="223.0834" fy="98.4218" gradientTransform="matrix(0.2416 0.9704 -1.6294 0.4057 333.7988 -166.7303)" gradientUnits="userSpaceOnUse">
	<stop  offset="0" style="stop-color:#E0E0E0"/>
	<stop  offset="0.2841" style="stop-color:#DDDDDD"/>
	<stop  offset="0.5103" style="stop-color:#D3D3D3"/>
	<stop  offset="0.7159" style="stop-color:#C2C2C2"/>
	<stop  offset="0.9071" style="stop-color:#ABABAB"/>
</radialGradient>
<circle style="fill:url(#SVGID_1_);" cx="256" cy="158.448" r="88.793"/>
<radialGradient id="SVGID_2_" cx="333.4023" cy="111.2319" r="65.0434" fx="326.0692" fy="111.5549" gradientTransform="matrix(0.1851 0.9827 -1.4858 0.2798 436.9706 -247.5327)" gradientUnits="userSpaceOnUse">
	<stop  offset="0" style="stop-color:#E0E0E0"/>
	<stop  offset="0.4695" style="stop-color:#C9C9C9"/>
	<stop  offset="1" style="stop-color:#ABABAB"/>
</radialGradient>
<circle style="fill:url(#SVGID_2_);" cx="335.311" cy="158.759" r="59.482"/>
<radialGradient id="SVGID_3_" cx="374.5234" cy="117.1963" r="80.4165" fx="365.4488" fy="117.1036" gradientTransform="matrix(0.0926 0.9957 -1.4518 0.1351 509.9721 -271.5463)" gradientUnits="userSpaceOnUse">
	<stop  offset="0" style="stop-color:#E0E0E0"/>
	<stop  offset="0.2662" style="stop-color:#DCDCDC"/>
	<stop  offset="0.5515" style="stop-color:#CFCFCF"/>
	<stop  offset="0.8448" style="stop-color:#B9B9B9"/>
	<stop  offset="1" style="stop-color:#ABABAB"/>
</radialGradient>
<circle style="fill:url(#SVGID_3_);" cx="374.881" cy="195.778" r="52.462"/>
<radialGradient id="SVGID_4_" cx="155.168" cy="157.0645" r="63.9384" fx="147.9528" fy="156.9908" gradientTransform="matrix(0.0055 1 -1.458 0.008 383.3206 0.6418)" gradientUnits="userSpaceOnUse">
	<stop  offset="0" style="stop-color:#E0E0E0"/>
	<stop  offset="0.2662" style="stop-color:#DCDCDC"/>
	<stop  offset="0.5515" style="stop-color:#CFCFCF"/>
	<stop  offset="0.8448" style="stop-color:#B9B9B9"/>
	<stop  offset="1" style="stop-color:#ABABAB"/>
</radialGradient>
<circle style="fill:url(#SVGID_4_);" cx="164.103" cy="189.482" r="57.758"/>
<radialGradient id="SVGID_5_" cx="259.6699" cy="144.3628" r="72.0419" fx="251.5405" fy="144.4633" gradientTransform="matrix(0.0968 0.9953 -1.4277 0.1389 440.6354 -134.1389)" gradientUnits="userSpaceOnUse">
	<stop  offset="0" style="stop-color:#E0E0E0"/>
	<stop  offset="0.2662" style="stop-color:#DCDCDC"/>
	<stop  offset="0.5515" style="stop-color:#CFCFCF"/>
	<stop  offset="0.8448" style="stop-color:#B9B9B9"/>
	<stop  offset="1" style="stop-color:#ABABAB"/>
</radialGradient>
<circle style="fill:url(#SVGID_5_);" cx="271.707" cy="182.155" r="65.086"/>
<radialGradient id="glow_1_" cx="263.4932" cy="256.1069" r="111.5071" gradientTransform="matrix(1 -0.0082 0.0065 0.8 -1.6641 53.3796)" gradientUnits="userSpaceOnUse">
	<stop  offset="0" style="stop-color:#FF6B00"/>
	<stop  offset="0.3589" style="stop-color:#FFAF40;stop-opacity:0.5502"/>
	<stop  offset="0.6224" style="stop-color:#FFE472;stop-opacity:0.22"/>
	<stop  offset="1" style="stop-color:#CCCCCC;stop-opacity:0"/>
</radialGradient>
<path id="glow" style="fill:url(#glow_1_);" d="M375.76,249c0.001-0.237,0.019-0.472,0.019-0.71
	c0-61.622-49.954-111.574-111.575-111.574c-61.62,0-111.573,49.952-111.573,111.574c0,0.238,0.017,0.473,0.018,0.71H375.76z"/>
<g>
	<radialGradient id="SVGID_6_" cx="253.8804" cy="253.4976" r="194.9713" gradientUnits="userSpaceOnUse">
		<stop  offset="0" style="stop-color:#808080"/>
		<stop  offset="1" style="stop-color:#4D4D4D"/>
	</radialGradient>
	<polygon style="fill:url(#SVGID_6_);" points="85.987,454 232.513,243.002 279.486,243.002 426.02,454 	"/>
	<path style="fill:#686868;" d="M276.871,248.002L416.46,449H95.547l139.581-200.998H276.871 M282.102,238.002h-5.23h-41.743h-5.23
		l-2.983,4.296L87.333,443.296L76.428,459h19.119H416.46h19.12l-10.906-15.704L285.085,242.298L282.102,238.002L282.102,238.002z"/>
</g>
</svg>
