<?xml version="1.0" encoding="iso-8859-1"?>
<!-- Generator: Adobe Illustrator 16.0.4, SVG Export Plug-In . SVG Version: 6.00 Build 0)  -->
<!DOCTYPE svg PUBLIC "-//W3C//DTD SVG 1.1//EN" "http://www.w3.org/Graphics/SVG/1.1/DTD/svg11.dtd">
<svg version="1.1" id="Layer_1" xmlns="http://www.w3.org/2000/svg" xmlns:xlink="http://www.w3.org/1999/xlink" x="0px" y="0px"
	 width="512px" height="512px" viewBox="0 0 512 512" style="enable-background:new 0 0 512 512;" xml:space="preserve">
<rect id="background_1_" style="opacity:0;fill:#929292;" width="512" height="512"/>
<g>
	<radialGradient id="SVGID_1_" cx="166.0684" cy="169.4824" r="112.1479" gradientUnits="userSpaceOnUse">
		<stop  offset="0" style="stop-color:#FFF073"/>
		<stop  offset="0.2495" style="stop-color:#FFEF70"/>
		<stop  offset="0.4482" style="stop-color:#FFEB66"/>
		<stop  offset="0.6295" style="stop-color:#FFE455"/>
		<stop  offset="0.8003" style="stop-color:#FFDA3D"/>
		<stop  offset="0.9624" style="stop-color:#FFCE1F"/>
		<stop  offset="1" style="stop-color:#FFCB17"/>
	</radialGradient>
	<path style="fill:url(#SVGID_1_);" d="M166.069,281.631c-61.839,0-112.148-50.31-112.148-112.149
		c0-61.838,50.31-112.148,112.148-112.148c61.838,0,112.147,50.31,112.147,112.148C278.216,231.321,227.907,281.631,166.069,281.631
		z"/>
	<path style="fill:#FBB040;" d="M166.069,62.334c59.177,0,107.147,47.972,107.147,107.148s-47.97,107.149-107.147,107.149
		S58.92,228.658,58.92,169.482S106.892,62.334,166.069,62.334 M166.069,52.334c-31.292,0-60.71,12.186-82.836,34.312
		C61.106,108.772,48.92,138.19,48.92,169.482s12.186,60.71,34.312,82.836c22.126,22.127,51.545,34.312,82.836,34.312
		s60.71-12.186,82.836-34.312c22.125-22.126,34.311-51.545,34.311-82.836s-12.186-60.71-34.311-82.836
		C226.779,64.52,197.36,52.334,166.069,52.334L166.069,52.334z"/>
</g>
<g>
	<linearGradient id="SVGID_2_" gradientUnits="userSpaceOnUse" x1="166.0679" y1="62.334" x2="166.0679" y2="276.6313">
		<stop  offset="0.6339" style="stop-color:#FFF073;stop-opacity:0"/>
		<stop  offset="1" style="stop-color:#FEFF96"/>
	</linearGradient>
	<circle style="fill:url(#SVGID_2_);" cx="166.068" cy="169.482" r="107.148"/>
</g>
<linearGradient id="SVGID_3_" gradientUnits="userSpaceOnUse" x1="166.1997" y1="143.2563" x2="166.1997" y2="71.5488">
	<stop  offset="0" style="stop-color:#FFFFFF;stop-opacity:0.2"/>
	<stop  offset="0.9081" style="stop-color:#FFFFFF;stop-opacity:0.7449"/>
	<stop  offset="1" style="stop-color:#FFFFFF;stop-opacity:0.8"/>
</linearGradient>
<ellipse style="fill:url(#SVGID_3_);" cx="166.2" cy="107.403" rx="62.146" ry="35.854"/>
<g id="raindrop_1_">
	<path style="fill:#00BFEF;" d="M176.914,454.55c-10.604,0-20.353-4.843-26.746-13.285c-9.597-12.662-8.712-28.902,2.366-43.439
		c8.812-11.547,35.392-27.961,36.519-28.654l4.079-2.508l2.25,4.226c0.49,0.919,12.027,22.77,14.944,44.602
		c1.584,11.905-3.835,25.168-13.18,32.255C191.264,452.197,184.269,454.55,176.914,454.55z"/>
	<path style="fill:#2A9CDE;" d="M191.409,373.004c0,0,11.612,21.803,14.455,43.082c1.331,10.003-3.104,21.752-11.438,28.073
		c-5.245,3.971-11.405,5.891-17.512,5.891c-8.778,0-17.451-3.964-23.159-11.502c-8.472-11.179-7.528-25.022,2.357-37.995
		C164.517,389.541,191.409,373.004,191.409,373.004 M194.852,360.321l-8.157,5.017c-2.898,1.782-28.582,17.759-37.737,29.755
		c-12.38,16.246-13.267,34.521-2.376,48.892c7.249,9.573,18.305,15.065,30.332,15.065c8.344,0,16.278-2.668,22.945-7.715
		c10.747-8.15,16.743-22.791,14.927-36.437c-3.023-22.631-14.928-45.177-15.433-46.125L194.852,360.321L194.852,360.321z"/>
</g>
<g id="raindrop_lolite_1_">
	<linearGradient id="SVGID_4_" gradientUnits="userSpaceOnUse" x1="166.7446" y1="399.6484" x2="210.0676" y2="445.9847">
		<stop  offset="0.1801" style="stop-color:#00FFFF;stop-opacity:0"/>
		<stop  offset="0.4166" style="stop-color:#31FFFF;stop-opacity:0.3348"/>
		<stop  offset="0.7099" style="stop-color:#73FFFF;stop-opacity:0.75"/>
	</linearGradient>
	<path style="fill:url(#SVGID_4_);" d="M191.409,373.004c0,0,11.612,21.803,14.455,43.082c1.331,10.003-3.104,21.752-11.438,28.073
		c-12.783,9.678-30.992,7.171-40.671-5.611c-8.472-11.179-7.528-25.022,2.357-37.995
		C164.517,389.541,191.409,373.004,191.409,373.004z"/>
</g>
<path id="raindrop_hilite_1_" style="fill:#BDFFFF;" d="M169.64,401.671c2.983,1.725,2.866,7.501-0.258,12.899
	c-3.128,5.395-8.079,8.368-11.06,6.644c-2.984-1.728-2.87-7.502,0.251-12.9C161.702,402.914,166.652,399.939,169.64,401.671z"/>
<g>
	<path style="fill:#ABABAB;" d="M194.103,333c-16.726,0-32.5-6.6-44.418-18.803c-11.827-12.11-18.34-27.973-18.34-44.775
		c0-34.605,28.153-62.728,62.758-62.728c1.167,0,2.36,0.051,3.571,0.124c6.167-17.174,17.472-32.499,32.151-43.494
		c16.313-12.218,35.738-18.673,56.174-18.673c26.349,0,51.383,11.052,69.143,30.422c3.353-0.531,6.761-0.798,10.168-0.798
		c29.588,0,55.479,20.384,62.571,48.844c20.723,9.074,34.462,29.777,34.462,52.538c0,31.686-25.777,57.343-57.462,57.343H194.103z"
		/>
	<path style="fill:#A0A0A0;" d="M286,149.655c26.892,0,50.99,11.956,67.272,30.841c3.888-0.799,7.914-1.22,12.038-1.22
		c28.741,0,52.722,20.385,58.271,47.484c19.737,7.535,33.762,26.513,33.762,48.896c0,28.975-23.488,52.343-52.462,52.343H194.103
		c-31.899,0-57.758-26.739-57.758-58.639c0-31.898,25.859-57.697,57.758-57.697c2.392,0,4.744,0.193,7.059,0.475
		C212.365,175.93,246.109,149.655,286,149.655 M286,139.655c-21.526,0-41.987,6.941-59.172,19.812
		C212.352,170.311,200.99,185,194.27,202c-0.056,0-0.111,0-0.167,0c-37.362,0-67.758,30.258-67.758,67.62
		c0,18.116,7.019,35.089,19.763,48.14C158.975,330.934,176.02,338,194.103,338h210.779c34.441,0,62.462-27.9,62.462-62.343
		c0-12.902-3.905-25.229-11.293-35.76c-6.172-8.798-14.382-15.744-23.951-20.372c-3.856-13.393-11.75-25.451-22.592-34.397
		c-12.4-10.232-28.097-15.859-44.197-15.859c-2.773,0-5.549,0.169-8.298,0.497C338.437,150.561,312.866,139.655,286,139.655
		L286,139.655z"/>
</g>
<radialGradient id="SVGID_5_" cx="261.3389" cy="177.1841" r="73.9755" fx="253.0829" fy="178.4218" gradientTransform="matrix(0.2416 0.9704 -1.6294 0.4057 486.9043 -148.2982)" gradientUnits="userSpaceOnUse">
	<stop  offset="0" style="stop-color:#E0E0E0"/>
	<stop  offset="0.2841" style="stop-color:#DDDDDD"/>
	<stop  offset="0.5103" style="stop-color:#D3D3D3"/>
	<stop  offset="0.7159" style="stop-color:#C2C2C2"/>
	<stop  offset="0.9071" style="stop-color:#ABABAB"/>
</radialGradient>
<circle style="fill:url(#SVGID_5_);" cx="286" cy="238.448" r="88.793"/>
<radialGradient id="SVGID_6_" cx="363.4023" cy="191.2319" r="65.0434" fx="356.0692" fy="191.5549" gradientTransform="matrix(0.1851 0.9827 -1.4858 0.2798 580.2812 -219.397)" gradientUnits="userSpaceOnUse">
	<stop  offset="0" style="stop-color:#E0E0E0"/>
	<stop  offset="0.4695" style="stop-color:#C9C9C9"/>
	<stop  offset="1" style="stop-color:#ABABAB"/>
</radialGradient>
<circle style="fill:url(#SVGID_6_);" cx="365.311" cy="238.759" r="59.482"/>
<radialGradient id="SVGID_7_" cx="404.5234" cy="197.1963" r="80.4165" fx="395.4488" fy="197.1036" gradientTransform="matrix(0.0926 0.9957 -1.4518 0.1351 653.3354 -232.2228)" gradientUnits="userSpaceOnUse">
	<stop  offset="0" style="stop-color:#E0E0E0"/>
	<stop  offset="0.2662" style="stop-color:#DCDCDC"/>
	<stop  offset="0.5515" style="stop-color:#CFCFCF"/>
	<stop  offset="0.8448" style="stop-color:#B9B9B9"/>
	<stop  offset="1" style="stop-color:#ABABAB"/>
</radialGradient>
<circle style="fill:url(#SVGID_7_);" cx="404.881" cy="275.778" r="52.462"/>
<radialGradient id="SVGID_8_" cx="185.168" cy="237.0645" r="63.9384" fx="177.9528" fy="236.9908" gradientTransform="matrix(0.0055 1 -1.458 0.008 529.7982 50.002)" gradientUnits="userSpaceOnUse">
	<stop  offset="0" style="stop-color:#E0E0E0"/>
	<stop  offset="0.2662" style="stop-color:#DCDCDC"/>
	<stop  offset="0.5515" style="stop-color:#CFCFCF"/>
	<stop  offset="0.8448" style="stop-color:#B9B9B9"/>
	<stop  offset="1" style="stop-color:#ABABAB"/>
</radialGradient>
<circle style="fill:url(#SVGID_8_);" cx="194.103" cy="269.482" r="57.758"/>
<radialGradient id="SVGID_9_" cx="289.6699" cy="224.3628" r="72.0419" fx="281.5405" fy="224.4633" gradientTransform="matrix(0.0968 0.9953 -1.4277 0.1389 581.948 -95.1099)" gradientUnits="userSpaceOnUse">
	<stop  offset="0" style="stop-color:#E0E0E0"/>
	<stop  offset="0.2662" style="stop-color:#DCDCDC"/>
	<stop  offset="0.5515" style="stop-color:#CFCFCF"/>
	<stop  offset="0.8448" style="stop-color:#B9B9B9"/>
	<stop  offset="1" style="stop-color:#ABABAB"/>
</radialGradient>
<circle style="fill:url(#SVGID_9_);" cx="301.707" cy="262.155" r="65.086"/>
<g id="snowflake_1_">
	<path style="fill:#FFFFFF;" d="M306.034,452.566c-2.678,0-5.172-1.438-6.51-3.755l-0.012-0.019
		c-0.518,0.57-1.124,1.062-1.797,1.451c-1.147,0.662-2.448,1.011-3.768,1.011c-1.32,0-2.62-0.349-3.76-1.008l-2.147-1.239
		l-2.15,1.242c-1.14,0.658-2.438,1.006-3.752,1.006c-2.137,0-4.157-0.916-5.565-2.464l-0.01,0.018
		c-0.674,1.154-1.619,2.097-2.747,2.748c-1.141,0.659-2.442,1.008-3.764,1.008c-1.318,0-2.617-0.348-3.755-1.006l-2.37-1.369
		c-1.729-0.994-2.974-2.612-3.496-4.551c-0.522-1.94-0.258-3.967,0.744-5.705l0.013-0.021c-3.381-0.731-5.921-3.745-5.921-7.342
		l0.001-2.264c-0.056-0.031-2.539-1.465-2.539-1.465c-1.735-1.001-2.978-2.621-3.498-4.562c-0.38-1.418-0.339-2.882,0.103-4.245
		c-1.872-0.089-3.619-0.861-4.953-2.197c-1.419-1.422-2.198-3.309-2.195-5.314l-0.001-2.728c0-2.679,1.443-5.173,3.765-6.511
		c1.032-0.595,2.195-0.937,3.384-0.995c-0.442-1.363-0.483-2.827-0.103-4.245c0.519-1.94,1.762-3.561,3.5-4.563l2.341-1.352
		l0.002-2.711c0-2.674,1.442-5.168,3.765-6.506c0.675-0.39,1.406-0.67,2.166-0.833c-0.859-1.661-1.065-3.56-0.578-5.382
		c0.52-1.939,1.762-3.56,3.499-4.562l2.373-1.37c1.142-0.658,2.438-1.005,3.752-1.005c2.558,0,4.948,1.312,6.322,3.446
		c0.523-0.578,1.135-1.073,1.813-1.464c1.138-0.656,2.438-1.005,3.759-1.005c1.313,0,2.608,0.346,3.744,0.999l2.351,1.357
		l2.343-1.354c1.141-0.658,2.438-1.005,3.752-1.005c2.142,0,4.165,0.919,5.573,2.471c0.65-1.008,1.529-1.845,2.564-2.44
		c1.136-0.656,2.438-1.006,3.76-1.006c1.315,0,2.612,0.347,3.749,1.003l2.375,1.372c3.479,2.013,4.741,6.41,2.921,9.944
		c3.386,0.728,5.931,3.744,5.931,7.343c0,0-0.002,2.865-0.003,2.928l1.962,1.133c3.114,1.798,4.455,5.506,3.397,8.8h0.022
		c2,0,3.882,0.778,5.302,2.192c1.431,1.434,2.211,3.321,2.208,5.325l0.001,2.729c-0.003,2.681-1.443,5.172-3.76,6.509
		c-1.147,0.659-2.442,1.005-3.753,1.005h-0.02c0.439,1.359,0.479,2.82,0.101,4.236c-0.52,1.938-1.761,3.558-3.496,4.561
		l-2.155,1.244l0.003,2.479c-0.009,2.69-1.451,5.178-3.765,6.513c-0.679,0.39-1.407,0.67-2.159,0.833l0.011,0.02
		c1.003,1.737,1.268,3.761,0.749,5.699c-0.521,1.94-1.764,3.562-3.502,4.563l-2.37,1.368
		C308.645,452.219,307.348,452.566,306.034,452.566z M288.042,433.477l1.314-2.275l-1.314-2.275l-1.313,2.275L288.042,433.477z
		 M271.346,422.32l1.314-2.275h-3.013l-1.312,2.275H271.346z M307.367,422.319l-1.313-2.275h-2.628l1.313,2.275H307.367z
		 M269.649,402.284h3.012l-1.507-2.61h-3.012L269.649,402.284z M306.054,402.283l1.506-2.609l-2.629-0.001l-1.507,2.61H306.054z
		 M288.043,393.4l1.505-2.608l-1.505-2.607l-1.506,2.608L288.043,393.4z"/>
	<path style="fill:#CCCCCC;" d="M270.053,374.762c0.869,0,1.716,0.449,2.18,1.254l3.887,6.731c0.104,0.181,0.184,0.215,0.185,0.215
		c0.005-0.026,0.073-0.094,0.142-0.215l3.322-5.755c0.221-0.381,0.536-0.696,0.916-0.915c0.391-0.226,0.827-0.338,1.264-0.338
		c0.434,0,0.866,0.111,1.252,0.333l2.371,1.37c1.199,0.693,1.611,2.232,0.918,3.433l-5.1,8.836c-0.328,0.566-0.326,1.598,0,2.164
		l6.49,11.243c0.104,0.181,0.185,0.215,0.187,0.215c0.003-0.026,0.072-0.095,0.141-0.213l6.49-11.245
		c0.327-0.565,0.328-1.598,0.001-2.164l-5.102-8.837c-0.693-1.199-0.279-2.74,0.918-3.432l2.372-1.37
		c0.394-0.228,0.825-0.335,1.251-0.335c0.869,0,1.717,0.45,2.181,1.255l3.323,5.756c0.103,0.178,0.182,0.214,0.186,0.214l0,0
		c0.004-0.025,0.071-0.095,0.141-0.214l3.885-6.731c0.221-0.381,0.538-0.697,0.918-0.916c0.391-0.226,0.827-0.339,1.265-0.339
		c0.433,0,0.865,0.111,1.251,0.334l2.371,1.37c1.198,0.693,1.61,2.232,0.92,3.432l-3.888,6.731
		c-0.081,0.141-0.093,0.225-0.093,0.256c0.001,0,0.002,0,0.003,0c0.021,0,0.098,0.027,0.247,0.027c0.003,0,0.005,0,0.008,0
		l6.643,0.001c1.387,0,2.514,1.125,2.514,2.511l-0.001,2.738c0,0.894-0.483,1.729-1.259,2.176c-0.381,0.22-0.813,0.335-1.252,0.337
		l-10.205-0.002c-0.311,0.001-0.697,0.121-1.059,0.329c-0.361,0.21-0.659,0.484-0.816,0.755L294.928,407
		c-0.08,0.141-0.094,0.223-0.092,0.254c0.001,0,0.001,0,0.002,0c0.019,0,0.098,0.028,0.254,0.028l12.598,0.001
		c0.312,0,0.699-0.12,1.061-0.328c0.361-0.209,0.658-0.483,0.815-0.755l5.101-8.837c0.219-0.38,0.537-0.695,0.917-0.915
		c0.39-0.225,0.826-0.337,1.262-0.337c0.434,0,0.867,0.111,1.253,0.334l2.371,1.369c1.199,0.692,1.611,2.231,0.92,3.43L318.064,407
		c-0.081,0.14-0.092,0.224-0.092,0.255c0.001,0,0.003-0.001,0.004-0.001c0.023,0,0.102,0.028,0.253,0.029l8.158,0.001
		c0.001,0,0.003,0,0.004,0c0.666,0,1.295,0.262,1.771,0.735c0.475,0.476,0.737,1.106,0.736,1.775l0.001,2.738
		c-0.001,0.895-0.483,1.729-1.26,2.177c-0.381,0.219-0.813,0.335-1.253,0.335l-8.159-0.001c-0.155,0-0.235,0.031-0.263,0.045
		c0.006,0.015,0.02,0.1,0.1,0.239l3.322,5.756c0.693,1.198,0.281,2.736-0.918,3.43l-2.371,1.368
		c-0.396,0.228-0.827,0.336-1.253,0.336c-0.868,0-1.713-0.45-2.178-1.254l-5.101-8.836c-0.327-0.566-1.222-1.083-1.877-1.084
		l-12.6,0.001c-0.127,0-0.219,0.021-0.263,0.043c0.009,0.017,0.021,0.1,0.103,0.24l6.297,10.908
		c0.328,0.565,1.219,1.083,1.874,1.083c0.001,0,0.001,0,0.002,0l10.203,0.001c0.67,0,1.3,0.263,1.774,0.737
		c0.476,0.475,0.738,1.105,0.736,1.774l0.003,2.738c-0.003,0.894-0.485,1.729-1.264,2.178c-0.378,0.217-0.808,0.334-1.245,0.334
		c-0.001,0-0.003,0-0.005,0l-6.646,0.001c-0.13,0-0.218,0.021-0.263,0.044c0.008,0.015,0.02,0.099,0.102,0.237l4.078,7.065
		c0.691,1.199,0.279,2.74-0.92,3.432l-2.373,1.37c-0.394,0.228-0.824,0.335-1.249,0.335c-0.869,0-1.715-0.45-2.181-1.256
		l-4.079-7.064c-0.103-0.178-0.183-0.213-0.185-0.213l0,0c-0.006,0.025-0.072,0.093-0.143,0.213l-3.322,5.756
		c-0.219,0.38-0.535,0.695-0.916,0.916c-0.389,0.225-0.825,0.337-1.261,0.337c-0.435,0-0.868-0.111-1.254-0.335l-2.372-1.368
		c-1.199-0.692-1.611-2.232-0.92-3.432l5.103-8.836c0.327-0.567,0.327-1.601-0.001-2.167l-6.298-10.908
		c-0.104-0.178-0.183-0.213-0.185-0.213l0,0c-0.006,0.025-0.073,0.094-0.143,0.213l-6.299,10.909c-0.327,0.566-0.326,1.599,0,2.165
		l5.102,8.838c0.692,1.198,0.279,2.737-0.92,3.43l-2.371,1.369c-0.395,0.228-0.826,0.336-1.252,0.336
		c-0.868,0-1.714-0.45-2.179-1.254l-3.323-5.756c-0.104-0.181-0.184-0.213-0.186-0.214c-0.004,0.026-0.072,0.096-0.143,0.214
		l-4.076,7.064c-0.222,0.38-0.537,0.698-0.916,0.917c-0.39,0.226-0.827,0.338-1.264,0.338c-0.434,0-0.866-0.111-1.252-0.334
		l-2.371-1.37c-1.201-0.69-1.613-2.23-0.922-3.43l4.08-7.066c0.082-0.142,0.092-0.225,0.094-0.255c-0.001,0-0.002,0-0.003,0
		c-0.021,0-0.101-0.028-0.255-0.028h-6.646c-1.382,0-2.511-1.126-2.511-2.511l0.002-2.739c-0.002-0.893,0.48-1.726,1.26-2.176
		c0.379-0.219,0.812-0.337,1.25-0.337l10.203,0.001c0.312,0,0.699-0.12,1.062-0.329c0.359-0.208,0.657-0.483,0.813-0.753
		l6.299-10.91c0.081-0.142,0.092-0.225,0.094-0.255c-0.001,0-0.002,0-0.003,0c-0.021,0-0.098-0.028-0.253-0.029l-12.982,0.001
		c-0.312,0-0.699,0.119-1.061,0.328c-0.362,0.209-0.658,0.484-0.815,0.754l-5.101,8.838c-0.22,0.38-0.537,0.696-0.918,0.916
		c-0.389,0.225-0.825,0.337-1.262,0.337c-0.434,0-0.867-0.111-1.253-0.334l-2.371-1.37c-1.2-0.692-1.611-2.232-0.919-3.43
		l3.323-5.756c0.081-0.141,0.093-0.225,0.094-0.255c-0.001,0-0.002,0-0.004,0c-0.022,0-0.1-0.028-0.253-0.029l-7.774,0.001
		c-1.385,0-2.514-1.128-2.511-2.512l-0.001-2.738c0-0.895,0.484-1.729,1.262-2.177c0.379-0.219,0.812-0.335,1.251-0.336h7.773
		c0.003,0,0.006,0,0.008,0c0.126,0,0.212-0.021,0.254-0.044c-0.007-0.016-0.018-0.1-0.099-0.238l-3.323-5.756
		c-0.692-1.199-0.281-2.738,0.919-3.431l2.371-1.369c0.395-0.229,0.826-0.337,1.252-0.337c0.869,0,1.716,0.451,2.181,1.256
		l5.102,8.837c0.326,0.567,1.221,1.082,1.875,1.084h12.982c0.13-0.002,0.221-0.023,0.263-0.045c-0.007-0.017-0.019-0.1-0.1-0.239
		l-6.491-11.243c-0.326-0.566-1.221-1.083-1.875-1.083h-10.205c-0.001,0-0.003,0-0.004,0c-0.667,0-1.296-0.263-1.771-0.738
		c-0.474-0.475-0.734-1.105-0.736-1.773l0.002-2.738c0-0.893,0.481-1.729,1.26-2.177c0.377-0.218,0.808-0.334,1.244-0.334
		c0.002,0,0.004,0,0.006,0l6.646-0.001c0.003,0,0.005,0,0.008,0c0.127,0,0.214-0.023,0.256-0.045
		c-0.008-0.016-0.019-0.098-0.1-0.238l-3.887-6.731c-0.693-1.199-0.281-2.738,0.918-3.431l2.373-1.37
		C269.195,374.869,269.626,374.762,270.053,374.762 M270.053,364.762c-2.189,0-4.35,0.578-6.247,1.672l-2.378,1.373
		c-2.895,1.671-4.964,4.37-5.829,7.6c-0.348,1.301-0.484,2.624-0.413,3.931c-3.132,2.3-5.052,5.976-5.109,9.906
		c-2.812,1.675-4.826,4.336-5.675,7.51c-0.167,0.623-0.285,1.251-0.354,1.88c-0.201,0.103-0.399,0.209-0.595,0.322
		c-3.865,2.228-6.267,6.381-6.267,10.84l0.001,2.742c-0.006,3.321,1.292,6.466,3.656,8.834c0.954,0.956,2.035,1.738,3.206,2.332
		c0.07,0.626,0.188,1.251,0.354,1.872c0.865,3.23,2.937,5.93,5.832,7.601l0.049,0.028c0.192,3.804,2.087,7.163,4.936,9.33
		c-0.134,1.46-0.008,2.947,0.384,4.405c0.87,3.229,2.944,5.926,5.843,7.592l2.352,1.358c1.895,1.096,4.059,1.676,6.255,1.676
		c2.198,0,4.365-0.581,6.267-1.68c0.33-0.19,0.651-0.396,0.961-0.615c1.517,0.64,3.166,0.985,4.858,0.985
		c2.059,0,4.091-0.511,5.903-1.481c1.802,0.967,3.84,1.48,5.906,1.48c1.675,0,3.332-0.338,4.867-0.984
		c2.081,1.468,4.598,2.296,7.219,2.296c2.19,0,4.352-0.579,6.25-1.676l2.372-1.369c4.356-2.512,6.63-7.271,6.203-11.983
		c2.991-2.276,4.83-5.798,4.953-9.57c2.717-1.687,4.655-4.296,5.484-7.394c0.149-0.557,0.26-1.118,0.331-1.681
		c0.338-0.155,0.669-0.326,0.992-0.512c3.876-2.238,6.274-6.386,6.279-10.838l-0.001-2.753c0.005-3.322-1.294-6.467-3.658-8.835
		c-1.071-1.067-2.295-1.917-3.619-2.529c-0.451-3.553-2.414-6.876-5.611-8.942v-0.057c0-4.139-2.019-7.814-5.122-10.093
		c0.243-4.559-2.017-9.091-6.223-11.524l-2.377-1.373c-1.902-1.098-4.062-1.676-6.254-1.676c-2.198,0-4.366,0.581-6.269,1.681
		c-0.198,0.114-0.394,0.234-0.585,0.359c-1.566-0.69-3.281-1.064-5.044-1.064c-2.131,0-4.234,0.548-6.095,1.586
		c-1.871-1.04-3.969-1.584-6.095-1.584c-1.741,0-3.464,0.364-5.051,1.062C274.892,365.494,272.519,364.762,270.053,364.762
		L270.053,364.762z"/>
</g>
<g id="snowflake_3_">
	<path style="fill:#FFFFFF;" d="M416.034,452.566c-2.678,0-5.172-1.438-6.51-3.755l-0.012-0.019
		c-0.518,0.57-1.124,1.062-1.797,1.451c-1.147,0.662-2.448,1.011-3.768,1.011c-1.32,0-2.62-0.349-3.76-1.008l-2.147-1.239
		l-2.15,1.242c-1.14,0.658-2.438,1.006-3.752,1.006c-2.137,0-4.157-0.916-5.565-2.464l-0.01,0.018
		c-0.674,1.154-1.619,2.097-2.747,2.748c-1.141,0.659-2.442,1.008-3.764,1.008c-1.318,0-2.617-0.348-3.755-1.006l-2.37-1.369
		c-1.729-0.994-2.974-2.612-3.496-4.551c-0.522-1.94-0.258-3.967,0.744-5.705l0.013-0.021c-3.381-0.731-5.921-3.745-5.921-7.342
		l0.002-2.264c-0.057-0.031-2.54-1.465-2.54-1.465c-1.734-1.001-2.978-2.621-3.497-4.562c-0.38-1.418-0.339-2.882,0.103-4.245
		c-1.872-0.089-3.62-0.861-4.954-2.198c-1.419-1.422-2.197-3.31-2.193-5.315l-0.002-2.724c0-2.68,1.442-5.173,3.764-6.512
		c1.035-0.597,2.198-0.938,3.386-0.996c-0.441-1.363-0.482-2.827-0.103-4.245c0.52-1.94,1.763-3.561,3.501-4.563l2.341-1.352
		l0.002-2.711c0-2.674,1.442-5.168,3.765-6.506c0.675-0.39,1.406-0.67,2.166-0.833c-0.859-1.661-1.065-3.56-0.578-5.382
		c0.52-1.939,1.762-3.56,3.499-4.562l2.373-1.37c1.142-0.658,2.438-1.005,3.752-1.005c2.558,0,4.948,1.312,6.322,3.446
		c0.523-0.578,1.135-1.073,1.813-1.464c1.138-0.656,2.438-1.005,3.759-1.005c1.313,0,2.608,0.346,3.744,0.999l2.351,1.357
		l2.343-1.354c1.141-0.658,2.438-1.005,3.752-1.005c2.142,0,4.165,0.919,5.573,2.471c0.65-1.008,1.529-1.845,2.564-2.44
		c1.136-0.656,2.438-1.006,3.76-1.006c1.315,0,2.612,0.347,3.749,1.003l2.375,1.372c3.479,2.013,4.741,6.41,2.921,9.944
		c3.386,0.728,5.931,3.744,5.931,7.343c0,0-0.002,2.865-0.003,2.928l1.962,1.133c3.114,1.798,4.455,5.506,3.397,8.8h0.022
		c2,0,3.882,0.778,5.302,2.192c1.431,1.434,2.211,3.321,2.208,5.325l0.001,2.729c-0.003,2.681-1.443,5.172-3.76,6.509
		c-1.147,0.659-2.442,1.005-3.753,1.005h-0.02c0.439,1.359,0.479,2.82,0.101,4.236c-0.52,1.938-1.761,3.558-3.496,4.561
		l-2.155,1.244l0.003,2.479c-0.009,2.69-1.451,5.178-3.765,6.513c-0.679,0.39-1.407,0.67-2.159,0.833l0.011,0.02
		c1.003,1.737,1.268,3.761,0.749,5.699c-0.521,1.94-1.764,3.562-3.502,4.563l-2.37,1.368
		C418.645,452.219,417.348,452.566,416.034,452.566z M398.042,433.477l1.314-2.275l-1.314-2.275l-1.313,2.275L398.042,433.477z
		 M381.346,422.32l1.314-2.275h-3.013l-1.312,2.275H381.346z M417.367,422.319l-1.313-2.275h-2.628l1.313,2.275H417.367z
		 M379.649,402.284h3.012l-1.507-2.61h-3.012L379.649,402.284z M416.054,402.283l1.506-2.609l-2.629-0.001l-1.507,2.61H416.054z
		 M398.043,393.4l1.505-2.608l-1.505-2.607l-1.506,2.608L398.043,393.4z"/>
	<path style="fill:#CCCCCC;" d="M380.053,374.762c0.869,0,1.716,0.449,2.18,1.254l3.887,6.731c0.104,0.181,0.184,0.215,0.185,0.215
		c0.005-0.026,0.073-0.094,0.142-0.215l3.322-5.755c0.221-0.381,0.536-0.696,0.916-0.915c0.391-0.226,0.827-0.338,1.264-0.338
		c0.434,0,0.866,0.111,1.252,0.333l2.371,1.37c1.199,0.693,1.611,2.232,0.918,3.433l-5.1,8.836c-0.328,0.566-0.326,1.598,0,2.164
		l6.49,11.243c0.104,0.181,0.185,0.215,0.187,0.215c0.003-0.026,0.072-0.095,0.141-0.213l6.49-11.245
		c0.327-0.565,0.328-1.598,0.001-2.164l-5.102-8.837c-0.693-1.199-0.279-2.74,0.918-3.432l2.372-1.37
		c0.394-0.228,0.825-0.335,1.251-0.335c0.869,0,1.717,0.45,2.181,1.255l3.323,5.756c0.103,0.178,0.182,0.214,0.186,0.214l0,0
		c0.004-0.025,0.071-0.095,0.141-0.214l3.885-6.731c0.221-0.381,0.538-0.697,0.918-0.916c0.391-0.226,0.827-0.339,1.265-0.339
		c0.433,0,0.865,0.111,1.251,0.334l2.371,1.37c1.198,0.693,1.61,2.232,0.92,3.432l-3.888,6.731
		c-0.081,0.141-0.093,0.225-0.093,0.256c0.001,0,0.002,0,0.003,0c0.021,0,0.098,0.027,0.247,0.027c0.003,0,0.005,0,0.008,0
		l6.643,0.001c1.387,0,2.514,1.125,2.514,2.511l-0.001,2.738c0,0.894-0.483,1.729-1.259,2.176c-0.381,0.22-0.813,0.335-1.252,0.337
		l-10.205-0.002c-0.311,0.001-0.697,0.121-1.059,0.329c-0.361,0.21-0.659,0.484-0.816,0.755L404.928,407
		c-0.08,0.141-0.094,0.223-0.092,0.254c0.001,0,0.001,0,0.002,0c0.019,0,0.098,0.028,0.254,0.028l12.598,0.001
		c0.312,0,0.699-0.12,1.061-0.328c0.361-0.209,0.658-0.483,0.815-0.755l5.101-8.837c0.219-0.38,0.537-0.695,0.917-0.915
		c0.39-0.225,0.826-0.337,1.262-0.337c0.434,0,0.867,0.111,1.253,0.334l2.371,1.369c1.199,0.692,1.611,2.231,0.92,3.43L428.064,407
		c-0.081,0.14-0.092,0.224-0.092,0.255c0.001,0,0.003-0.001,0.004-0.001c0.023,0,0.102,0.028,0.253,0.029l8.158,0.001
		c0.001,0,0.003,0,0.004,0c0.666,0,1.295,0.262,1.771,0.735c0.475,0.476,0.737,1.106,0.736,1.775l0.001,2.738
		c-0.001,0.895-0.483,1.729-1.26,2.177c-0.381,0.219-0.813,0.335-1.253,0.335l-8.159-0.001c-0.155,0-0.235,0.031-0.263,0.045
		c0.006,0.015,0.02,0.1,0.1,0.239l3.322,5.756c0.693,1.198,0.281,2.736-0.918,3.43l-2.371,1.368
		c-0.396,0.228-0.827,0.336-1.253,0.336c-0.868,0-1.713-0.45-2.178-1.254l-5.101-8.836c-0.327-0.566-1.222-1.083-1.877-1.084
		l-12.6,0.001c-0.127,0-0.219,0.021-0.263,0.043c0.009,0.017,0.021,0.1,0.103,0.24l6.297,10.908
		c0.328,0.565,1.219,1.083,1.874,1.083c0.001,0,0.001,0,0.002,0l10.203,0.001c0.67,0,1.3,0.263,1.774,0.737
		c0.476,0.475,0.738,1.105,0.736,1.774l0.003,2.738c-0.003,0.894-0.485,1.729-1.264,2.178c-0.378,0.217-0.808,0.334-1.245,0.334
		c-0.001,0-0.003,0-0.005,0l-6.646,0.001c-0.13,0-0.218,0.021-0.263,0.044c0.008,0.015,0.02,0.099,0.102,0.237l4.078,7.065
		c0.691,1.199,0.279,2.74-0.92,3.432l-2.373,1.37c-0.394,0.228-0.824,0.335-1.249,0.335c-0.869,0-1.715-0.45-2.181-1.256
		l-4.079-7.064c-0.103-0.178-0.183-0.213-0.185-0.213l0,0c-0.006,0.025-0.072,0.093-0.143,0.213l-3.322,5.756
		c-0.219,0.38-0.535,0.695-0.916,0.916c-0.389,0.225-0.825,0.337-1.261,0.337c-0.435,0-0.868-0.111-1.254-0.335l-2.372-1.368
		c-1.199-0.692-1.611-2.232-0.92-3.432l5.103-8.836c0.327-0.567,0.327-1.601-0.001-2.167l-6.298-10.908
		c-0.104-0.178-0.183-0.213-0.185-0.213l0,0c-0.006,0.025-0.073,0.094-0.143,0.213l-6.299,10.909c-0.327,0.566-0.326,1.599,0,2.165
		l5.102,8.838c0.692,1.198,0.279,2.737-0.92,3.43l-2.371,1.369c-0.395,0.228-0.826,0.336-1.252,0.336
		c-0.868,0-1.714-0.45-2.179-1.254l-3.323-5.756c-0.104-0.181-0.184-0.213-0.186-0.214c-0.004,0.026-0.072,0.096-0.143,0.214
		l-4.076,7.064c-0.222,0.38-0.537,0.698-0.916,0.917c-0.39,0.226-0.827,0.338-1.264,0.338c-0.434,0-0.866-0.111-1.252-0.334
		l-2.371-1.37c-1.201-0.69-1.613-2.23-0.922-3.43l4.08-7.066c0.082-0.142,0.092-0.225,0.094-0.255c-0.001,0-0.002,0-0.003,0
		c-0.021,0-0.101-0.028-0.255-0.028h-6.646c-1.382,0-2.511-1.126-2.511-2.511l0.002-2.739c-0.002-0.893,0.48-1.726,1.26-2.176
		c0.379-0.219,0.812-0.337,1.25-0.337l10.203,0.001c0.312,0,0.699-0.12,1.062-0.329c0.359-0.208,0.657-0.483,0.813-0.753
		l6.299-10.91c0.081-0.142,0.092-0.225,0.094-0.255c-0.001,0-0.002,0-0.003,0c-0.021,0-0.098-0.028-0.253-0.029l-12.982,0.001
		c-0.312,0-0.699,0.119-1.061,0.328c-0.362,0.209-0.658,0.484-0.815,0.754l-5.101,8.838c-0.22,0.38-0.537,0.696-0.918,0.916
		c-0.389,0.225-0.825,0.337-1.262,0.337c-0.434,0-0.867-0.111-1.253-0.334l-2.371-1.37c-1.2-0.692-1.611-2.232-0.919-3.43
		l3.323-5.756c0.081-0.141,0.093-0.225,0.094-0.255c-0.001,0-0.002,0-0.004,0c-0.022,0-0.1-0.028-0.253-0.029l-7.774,0.001
		c-1.386,0-2.514-1.128-2.511-2.512l-0.002-2.738c0-0.895,0.484-1.729,1.262-2.177c0.38-0.219,0.812-0.335,1.252-0.336h7.773
		c0.003,0,0.006,0,0.008,0c0.126,0,0.212-0.021,0.254-0.044c-0.007-0.016-0.018-0.1-0.099-0.238l-3.323-5.756
		c-0.692-1.199-0.281-2.738,0.919-3.431l2.371-1.369c0.395-0.229,0.826-0.337,1.252-0.337c0.869,0,1.716,0.451,2.181,1.256
		l5.102,8.837c0.326,0.567,1.221,1.082,1.875,1.084h12.982c0.13-0.002,0.221-0.023,0.263-0.045c-0.007-0.017-0.019-0.1-0.1-0.239
		l-6.491-11.243c-0.326-0.566-1.221-1.083-1.875-1.083h-10.205c-0.001,0-0.003,0-0.004,0c-0.667,0-1.296-0.263-1.771-0.738
		c-0.474-0.475-0.734-1.105-0.736-1.773l0.002-2.738c0-0.893,0.481-1.729,1.26-2.177c0.377-0.218,0.808-0.334,1.244-0.334
		c0.002,0,0.004,0,0.006,0l6.646-0.001c0.003,0,0.005,0,0.008,0c0.127,0,0.214-0.023,0.256-0.045
		c-0.008-0.016-0.019-0.098-0.1-0.238l-3.887-6.731c-0.693-1.199-0.281-2.738,0.918-3.431l2.373-1.37
		C379.195,374.869,379.626,374.762,380.053,374.762 M380.053,364.762c-2.189,0-4.35,0.578-6.247,1.672l-2.378,1.373
		c-2.895,1.671-4.964,4.37-5.829,7.6c-0.348,1.301-0.483,2.624-0.412,3.931c-3.132,2.3-5.052,5.976-5.109,9.906
		c-2.812,1.675-4.825,4.336-5.675,7.51c-0.167,0.623-0.285,1.251-0.354,1.88c-0.2,0.102-0.396,0.208-0.591,0.319
		c-3.87,2.231-6.271,6.386-6.271,10.843l0.002,2.745c-0.007,3.315,1.291,6.461,3.654,8.83c0.955,0.956,2.036,1.739,3.207,2.333
		c0.07,0.626,0.188,1.252,0.354,1.872c0.865,3.23,2.937,5.93,5.832,7.601l0.049,0.028c0.192,3.804,2.088,7.163,4.937,9.33
		c-0.135,1.46-0.009,2.947,0.384,4.405c0.87,3.229,2.944,5.926,5.843,7.592l2.352,1.358c1.895,1.096,4.059,1.676,6.255,1.676
		c2.198,0,4.365-0.581,6.267-1.68c0.33-0.19,0.651-0.396,0.961-0.615c1.517,0.64,3.166,0.985,4.858,0.985
		c2.059,0,4.091-0.511,5.903-1.481c1.802,0.967,3.84,1.48,5.906,1.48c1.675,0,3.332-0.338,4.867-0.984
		c2.081,1.468,4.598,2.296,7.219,2.296c2.19,0,4.352-0.579,6.25-1.676l2.372-1.369c4.356-2.512,6.63-7.271,6.203-11.983
		c2.991-2.276,4.83-5.798,4.953-9.57c2.717-1.687,4.655-4.296,5.484-7.394c0.149-0.557,0.26-1.118,0.331-1.681
		c0.338-0.155,0.669-0.326,0.992-0.512c3.876-2.238,6.274-6.386,6.279-10.838l-0.001-2.753c0.005-3.322-1.294-6.467-3.658-8.835
		c-1.071-1.067-2.295-1.917-3.619-2.529c-0.451-3.553-2.414-6.876-5.611-8.942v-0.057c0-4.139-2.019-7.814-5.122-10.093
		c0.243-4.559-2.017-9.091-6.223-11.524l-2.377-1.373c-1.902-1.098-4.062-1.676-6.254-1.676c-2.198,0-4.366,0.581-6.269,1.681
		c-0.198,0.114-0.394,0.234-0.585,0.359c-1.566-0.69-3.281-1.064-5.044-1.064c-2.131,0-4.234,0.548-6.095,1.586
		c-1.871-1.04-3.969-1.584-6.095-1.584c-1.741,0-3.464,0.364-5.051,1.062C384.892,365.494,382.519,364.762,380.053,364.762
		L380.053,364.762z"/>
</g>
</svg>
