<?xml version="1.0" encoding="iso-8859-1"?>
<!-- Generator: Adobe Illustrator 16.0.4, SVG Export Plug-In . SVG Version: 6.00 Build 0)  -->
<!DOCTYPE svg PUBLIC "-//W3C//DTD SVG 1.1//EN" "http://www.w3.org/Graphics/SVG/1.1/DTD/svg11.dtd">
<svg version="1.1" id="Layer_1" xmlns="http://www.w3.org/2000/svg" xmlns:xlink="http://www.w3.org/1999/xlink" x="0px" y="0px"
	 width="512px" height="512px" viewBox="0 0 512 512" style="enable-background:new 0 0 512 512;" xml:space="preserve">
<rect id="background_2_" style="opacity:0;fill:#808080;" width="512" height="512"/>
<radialGradient id="border_1_" cx="255.7798" cy="256.168" r="170.8891" gradientUnits="userSpaceOnUse">
	<stop  offset="0.602" style="stop-color:#BCBEC0"/>
	<stop  offset="1" style="stop-color:#ABABAB"/>
</radialGradient>
<path id="border" style="fill:url(#border_1_);" d="M327.118,402.621l4.999-8.659c17.337-30.03,5.625-74.843-17.554-109.247
	c-10.092,71.847-69.245,127.173-140.48,127.174h-10v-22.222h10c24.228-0.001,44.411-15.734,57.076-28.934
	c10.317-10.752,19.576-23.886,26.876-37.896c-18.223,7.343-37.655,11.164-57.183,11.164c-24.836,0-49.204-6.171-70.468-17.845
	c-22.009-12.084-40.218-29.86-52.658-51.407l-5-8.66l19.144-11.053l5,8.661c14.317,24.798,48.539,39.602,91.543,39.6
	c4.283,0,8.575-0.161,12.826-0.477c-25.336-19.532-43.803-46.192-52.849-76.772c-11.068-37.413-6.708-76.127,12.278-109.011l5-8.66
	l19.031,10.985l-5,8.661c-17.105,29.626-5.435,74.242,17.597,108.764c9.73-72.281,69.076-128.066,140.603-128.066h10v22.612h-10
	c-24.646,0-45.007,15.907-57.746,29.251c-10.596,11.099-19.997,24.666-27.267,39.104c18.405-7.511,38.065-11.423,57.821-11.423
	c24.837,0,49.204,6.171,70.468,17.846c22.009,12.084,40.217,29.86,52.657,51.407l5.001,8.661l-19.593,11.309l-4.999-8.659
	c-14.383-24.911-48.624-39.783-91.595-39.783c-3.863,0-7.736,0.132-11.58,0.393c57.793,44.554,76.463,123.884,40.683,185.857
	l-5.001,8.661L327.118,402.621z"/>
<radialGradient id="hurricane_1_" cx="255.7793" cy="255.3052" r="158.3991" gradientUnits="userSpaceOnUse">
	<stop  offset="0.2653" style="stop-color:#FFFFFF"/>
	<stop  offset="1" style="stop-color:#ABABAB"/>
</radialGradient>
<path id="hurricane" style="fill:url(#hurricane_1_);" d="M238.795,207.704c-1.808,1.042-3.577,2.124-5.321,3.231
	c14.531-46.546,55.849-99.602,104.425-99.602v-2.612c-72.785,0-132,62.355-132,139c0,2.108,0.053,4.204,0.142,6.289
	c-33.378-35.866-59.389-98.749-35.002-140.987l-1.709-0.987c-36.393,63.033-11.998,145.493,54.378,183.815
	c1.703,0.983,3.421,1.918,5.146,2.824c-48.095,11.549-116.06,2.6-140.643-39.979l-1.823,1.053
	c36.393,63.033,120.002,83.137,186.379,44.814c1.76-1.016,3.483-2.069,5.183-3.146c-15.011,45.64-55.899,98.247-103.865,98.248
	v2.222c72.785-0.001,132-62.356,132-139.001c0.001-1.67-0.038-3.33-0.095-4.984c33.699,35.873,59.269,98.656,34.789,141.059
	l2.312,1.335c36.393-63.034,11.998-145.493-54.378-183.815c-1.818-1.051-3.649-2.048-5.491-3.009
	c47.942-11.292,115.186-2.069,139.682,40.357l2.271-1.311C388.779,189.485,305.171,169.382,238.795,207.704z M256,245.073
	c6.035,0,10.926,4.892,10.926,10.927s-4.892,10.927-10.926,10.927c-6.036,0-10.928-4.892-10.928-10.927S249.965,245.073,256,245.073
	z"/>
</svg>
