<?xml version="1.0" encoding="iso-8859-1"?>
<!-- Generator: Adobe Illustrator 16.0.4, SVG Export Plug-In . SVG Version: 6.00 Build 0)  -->
<!DOCTYPE svg PUBLIC "-//W3C//DTD SVG 1.1//EN" "http://www.w3.org/Graphics/SVG/1.1/DTD/svg11.dtd">
<svg version="1.1" id="Layer_1" xmlns="http://www.w3.org/2000/svg" xmlns:xlink="http://www.w3.org/1999/xlink" x="0px" y="0px"
	 width="512px" height="512px" viewBox="0 0 512 512" style="enable-background:new 0 0 512 512;" xml:space="preserve">
<rect id="background_1_" style="opacity:0;fill:#929292;" width="512" height="512"/>
<g>
	<path style="fill:#ABABAB;" d="M164.103,333c-16.726,0-32.5-6.6-44.418-18.803c-11.827-12.11-18.34-27.973-18.34-44.775
		c0-34.605,28.153-62.728,62.758-62.728c1.167,0,2.36,0.051,3.571,0.124c6.167-17.174,17.472-32.499,32.151-43.494
		c16.313-12.218,35.738-18.673,56.174-18.673c26.349,0,51.383,11.052,69.143,30.422c3.353-0.531,6.761-0.798,10.168-0.798
		c29.588,0,55.479,20.384,62.571,48.844c20.723,9.074,34.462,29.777,34.462,52.538c0,31.686-25.777,57.343-57.462,57.343H164.103z"
		/>
	<path style="fill:#A0A0A0;" d="M256,149.655c26.892,0,50.99,11.956,67.272,30.841c3.888-0.799,7.914-1.22,12.038-1.22
		c28.741,0,52.722,20.385,58.271,47.484c19.737,7.535,33.762,26.513,33.762,48.896c0,28.975-23.488,52.343-52.462,52.343H164.103
		c-31.899,0-57.758-26.739-57.758-58.639c0-31.898,25.859-57.697,57.758-57.697c2.392,0,4.744,0.193,7.059,0.475
		C182.365,175.93,216.109,149.655,256,149.655 M256,139.655c-21.526,0-41.987,6.941-59.172,19.812
		C182.352,170.311,170.99,185,164.27,202c-0.056,0-0.111,0-0.167,0c-37.362,0-67.758,30.258-67.758,67.62
		c0,18.116,7.019,35.089,19.763,48.14C128.975,330.934,146.02,338,164.103,338h210.779c34.441,0,62.462-27.9,62.462-62.343
		c0-12.902-3.905-25.229-11.293-35.76c-6.172-8.798-14.382-15.744-23.951-20.372c-3.856-13.393-11.75-25.451-22.592-34.397
		c-12.4-10.232-28.097-15.859-44.197-15.859c-2.773,0-5.549,0.169-8.298,0.497C308.437,150.561,282.866,139.655,256,139.655
		L256,139.655z"/>
</g>
<radialGradient id="SVGID_1_" cx="231.3394" cy="177.1841" r="73.9754" fx="223.0834" fy="178.4218" gradientTransform="matrix(0.2416 0.9704 -1.6294 0.4057 464.1532 -119.1875)" gradientUnits="userSpaceOnUse">
	<stop  offset="0" style="stop-color:#E0E0E0"/>
	<stop  offset="0.2841" style="stop-color:#DDDDDD"/>
	<stop  offset="0.5103" style="stop-color:#D3D3D3"/>
	<stop  offset="0.7159" style="stop-color:#C2C2C2"/>
	<stop  offset="0.9071" style="stop-color:#ABABAB"/>
</radialGradient>
<circle style="fill:url(#SVGID_1_);" cx="256" cy="238.448" r="88.793"/>
<radialGradient id="SVGID_2_" cx="333.4023" cy="191.2319" r="65.0434" fx="326.0692" fy="191.5549" gradientTransform="matrix(0.1851 0.9827 -1.4858 0.2798 555.8328 -189.9152)" gradientUnits="userSpaceOnUse">
	<stop  offset="0" style="stop-color:#E0E0E0"/>
	<stop  offset="0.4695" style="stop-color:#C9C9C9"/>
	<stop  offset="1" style="stop-color:#ABABAB"/>
</radialGradient>
<circle style="fill:url(#SVGID_2_);" cx="335.311" cy="238.759" r="59.482"/>
<radialGradient id="SVGID_3_" cx="374.5234" cy="197.1963" r="80.4165" fx="365.4488" fy="197.1036" gradientTransform="matrix(0.0926 0.9957 -1.4518 0.1351 626.1146 -202.3518)" gradientUnits="userSpaceOnUse">
	<stop  offset="0" style="stop-color:#E0E0E0"/>
	<stop  offset="0.2662" style="stop-color:#DCDCDC"/>
	<stop  offset="0.5515" style="stop-color:#CFCFCF"/>
	<stop  offset="0.8448" style="stop-color:#B9B9B9"/>
	<stop  offset="1" style="stop-color:#ABABAB"/>
</radialGradient>
<circle style="fill:url(#SVGID_3_);" cx="374.881" cy="275.778" r="52.462"/>
<radialGradient id="SVGID_4_" cx="155.168" cy="237.0645" r="63.9384" fx="147.9528" fy="236.9908" gradientTransform="matrix(0.0055 1 -1.458 0.008 499.9629 80.0016)" gradientUnits="userSpaceOnUse">
	<stop  offset="0" style="stop-color:#E0E0E0"/>
	<stop  offset="0.2662" style="stop-color:#DCDCDC"/>
	<stop  offset="0.5515" style="stop-color:#CFCFCF"/>
	<stop  offset="0.8448" style="stop-color:#B9B9B9"/>
	<stop  offset="1" style="stop-color:#ABABAB"/>
</radialGradient>
<circle style="fill:url(#SVGID_4_);" cx="164.103" cy="269.482" r="57.758"/>
<radialGradient id="SVGID_5_" cx="259.6699" cy="224.3628" r="72.0419" fx="251.5405" fy="224.4633" gradientTransform="matrix(0.0968 0.9953 -1.4277 0.1389 554.853 -65.2509)" gradientUnits="userSpaceOnUse">
	<stop  offset="0" style="stop-color:#E0E0E0"/>
	<stop  offset="0.2662" style="stop-color:#DCDCDC"/>
	<stop  offset="0.5515" style="stop-color:#CFCFCF"/>
	<stop  offset="0.8448" style="stop-color:#B9B9B9"/>
	<stop  offset="1" style="stop-color:#ABABAB"/>
</radialGradient>
<circle style="fill:url(#SVGID_5_);" cx="271.707" cy="262.155" r="65.086"/>
<g id="raindrop_8_">
	<path style="fill:#00BFEF;" d="M206.914,454.55c-10.604,0-20.353-4.843-26.746-13.285c-9.596-12.663-8.712-28.902,2.366-43.439
		c8.812-11.547,35.392-27.961,36.519-28.654l4.079-2.508l2.25,4.226c0.49,0.919,12.027,22.77,14.943,44.602
		c1.585,11.905-3.835,25.168-13.179,32.255C221.264,452.197,214.269,454.55,206.914,454.55z"/>
	<path style="fill:#2A9CDE;" d="M221.409,373.004c0,0,11.612,21.803,14.455,43.082c1.331,10.003-3.104,21.752-11.438,28.073
		c-5.245,3.971-11.405,5.891-17.512,5.891c-8.778,0-17.451-3.964-23.159-11.502c-8.472-11.179-7.528-25.022,2.357-37.995
		C194.517,389.541,221.409,373.004,221.409,373.004 M224.852,360.321l-8.157,5.017c-2.898,1.782-28.582,17.759-37.737,29.755
		c-12.38,16.245-13.267,34.521-2.376,48.891c7.249,9.574,18.305,15.066,30.332,15.066c8.344,0,16.278-2.668,22.945-7.715
		c10.746-8.15,16.743-22.791,14.927-36.437c-3.022-22.631-14.927-45.177-15.433-46.125L224.852,360.321L224.852,360.321z"/>
</g>
<g id="raindrop_lolite_8_">
	<linearGradient id="SVGID_6_" gradientUnits="userSpaceOnUse" x1="196.7451" y1="399.6484" x2="240.0674" y2="445.984">
		<stop  offset="0.1801" style="stop-color:#00FFFF;stop-opacity:0"/>
		<stop  offset="0.4166" style="stop-color:#31FFFF;stop-opacity:0.3348"/>
		<stop  offset="0.7099" style="stop-color:#73FFFF;stop-opacity:0.75"/>
	</linearGradient>
	<path style="fill:url(#SVGID_6_);" d="M221.409,373.004c0,0,11.612,21.803,14.455,43.082c1.331,10.003-3.104,21.752-11.438,28.073
		c-12.783,9.678-30.992,7.171-40.671-5.611c-8.472-11.179-7.528-25.022,2.357-37.995
		C194.517,389.541,221.409,373.004,221.409,373.004z"/>
</g>
<path id="raindrop_hilite_5_" style="fill:#BDFFFF;" d="M199.64,401.671c2.983,1.725,2.866,7.501-0.258,12.899
	c-3.128,5.395-8.079,8.368-11.06,6.644c-2.984-1.728-2.87-7.502,0.251-12.9C191.702,402.914,196.652,399.939,199.64,401.671z"/>
<g id="raindrop_4_">
	<path style="fill:#00BFEF;" d="M316.914,454.55c-10.605,0-20.354-4.843-26.747-13.285c-9.596-12.663-8.712-28.902,2.366-43.439
		c8.812-11.547,35.392-27.961,36.519-28.654l4.078-2.508l2.251,4.226c0.49,0.919,12.027,22.77,14.943,44.602
		c1.585,11.905-3.835,25.168-13.179,32.255C331.264,452.197,324.269,454.55,316.914,454.55z"/>
	<path style="fill:#2A9CDE;" d="M331.409,373.004c0,0,11.612,21.803,14.455,43.082c1.331,10.003-3.104,21.752-11.438,28.073
		c-5.245,3.971-11.404,5.891-17.512,5.891c-8.779,0-17.451-3.964-23.159-11.502c-8.472-11.179-7.528-25.022,2.357-37.995
		C304.517,389.541,331.409,373.004,331.409,373.004 M334.852,360.321l-8.156,5.017c-2.898,1.782-28.582,17.759-37.737,29.755
		c-12.38,16.245-13.267,34.521-2.376,48.891c7.249,9.574,18.306,15.066,30.332,15.066c8.344,0,16.277-2.668,22.944-7.715
		c10.746-8.15,16.743-22.791,14.927-36.437c-3.022-22.631-14.927-45.177-15.433-46.125L334.852,360.321L334.852,360.321z"/>
</g>
<g id="raindrop_lolite_4_">
	<linearGradient id="SVGID_7_" gradientUnits="userSpaceOnUse" x1="306.7451" y1="399.6484" x2="350.0674" y2="445.984">
		<stop  offset="0.1801" style="stop-color:#00FFFF;stop-opacity:0"/>
		<stop  offset="0.4166" style="stop-color:#31FFFF;stop-opacity:0.3348"/>
		<stop  offset="0.7099" style="stop-color:#73FFFF;stop-opacity:0.75"/>
	</linearGradient>
	<path style="fill:url(#SVGID_7_);" d="M331.409,373.004c0,0,11.612,21.803,14.455,43.082c1.331,10.003-3.104,21.752-11.438,28.073
		c-12.783,9.678-30.992,7.171-40.671-5.611c-8.472-11.179-7.528-25.022,2.357-37.995
		C304.517,389.541,331.409,373.004,331.409,373.004z"/>
</g>
<path id="raindrop_hilite_3_" style="fill:#BDFFFF;" d="M309.64,401.671c2.983,1.725,2.866,7.501-0.258,12.899
	c-3.128,5.395-8.079,8.368-11.06,6.644c-2.984-1.728-2.87-7.502,0.251-12.9C301.702,402.914,306.652,399.939,309.64,401.671z"/>
</svg>
