<?xml version="1.0" encoding="iso-8859-1"?>
<!-- Generator: Adobe Illustrator 16.0.4, SVG Export Plug-In . SVG Version: 6.00 Build 0)  -->
<!DOCTYPE svg PUBLIC "-//W3C//DTD SVG 1.1//EN" "http://www.w3.org/Graphics/SVG/1.1/DTD/svg11.dtd">
<svg version="1.1" id="Layer_1" xmlns="http://www.w3.org/2000/svg" xmlns:xlink="http://www.w3.org/1999/xlink" x="0px" y="0px"
	 width="512px" height="512px" viewBox="0 0 512 512" style="enable-background:new 0 0 512 512;" xml:space="preserve">
<rect id="background_1_" style="opacity:0;fill:#929292;" width="512" height="512"/>
<g>
	<radialGradient id="SVGID_1_" cx="166.0684" cy="169.4824" r="112.1479" gradientUnits="userSpaceOnUse">
		<stop  offset="0" style="stop-color:#FFF073"/>
		<stop  offset="0.2495" style="stop-color:#FFEF70"/>
		<stop  offset="0.4482" style="stop-color:#FFEB66"/>
		<stop  offset="0.6295" style="stop-color:#FFE455"/>
		<stop  offset="0.8003" style="stop-color:#FFDA3D"/>
		<stop  offset="0.9624" style="stop-color:#FFCE1F"/>
		<stop  offset="1" style="stop-color:#FFCB17"/>
	</radialGradient>
	<path style="fill:url(#SVGID_1_);" d="M166.069,281.631c-61.839,0-112.148-50.31-112.148-112.149
		c0-61.838,50.31-112.148,112.148-112.148c61.838,0,112.147,50.31,112.147,112.148C278.216,231.321,227.907,281.631,166.069,281.631
		z"/>
	<path style="fill:#FBB040;" d="M166.069,62.334c59.177,0,107.147,47.972,107.147,107.148s-47.97,107.149-107.147,107.149
		S58.92,228.658,58.92,169.482S106.892,62.334,166.069,62.334 M166.069,52.334c-31.292,0-60.71,12.186-82.836,34.312
		C61.106,108.772,48.92,138.19,48.92,169.482s12.186,60.71,34.312,82.836c22.126,22.127,51.545,34.312,82.836,34.312
		s60.71-12.186,82.836-34.312c22.125-22.126,34.311-51.545,34.311-82.836s-12.186-60.71-34.311-82.836
		C226.779,64.52,197.36,52.334,166.069,52.334L166.069,52.334z"/>
</g>
<g>
	<linearGradient id="SVGID_2_" gradientUnits="userSpaceOnUse" x1="166.0679" y1="62.334" x2="166.0679" y2="276.6313">
		<stop  offset="0.6339" style="stop-color:#FFF073;stop-opacity:0"/>
		<stop  offset="1" style="stop-color:#FEFF96"/>
	</linearGradient>
	<circle style="fill:url(#SVGID_2_);" cx="166.068" cy="169.482" r="107.148"/>
</g>
<linearGradient id="SVGID_3_" gradientUnits="userSpaceOnUse" x1="166.1997" y1="143.2563" x2="166.1997" y2="71.5488">
	<stop  offset="0" style="stop-color:#FFFFFF;stop-opacity:0.2"/>
	<stop  offset="0.9081" style="stop-color:#FFFFFF;stop-opacity:0.7449"/>
	<stop  offset="1" style="stop-color:#FFFFFF;stop-opacity:0.8"/>
</linearGradient>
<ellipse style="fill:url(#SVGID_3_);" cx="166.2" cy="107.403" rx="62.146" ry="35.854"/>
<g>
	<path style="fill:#ABABAB;" d="M194.103,333c-16.726,0-32.5-6.6-44.418-18.803c-11.827-12.11-18.34-27.973-18.34-44.775
		c0-34.605,28.153-62.728,62.758-62.728c1.167,0,2.36,0.051,3.571,0.124c6.167-17.174,17.472-32.499,32.151-43.494
		c16.313-12.218,35.738-18.673,56.174-18.673c26.349,0,51.383,11.052,69.143,30.422c3.353-0.531,6.761-0.798,10.168-0.798
		c29.588,0,55.479,20.384,62.571,48.844c20.723,9.074,34.462,29.777,34.462,52.538c0,31.686-25.777,57.343-57.462,57.343H194.103z"
		/>
	<path style="fill:#A0A0A0;" d="M286,149.655c26.892,0,50.99,11.956,67.272,30.841c3.888-0.799,7.914-1.22,12.038-1.22
		c28.741,0,52.722,20.385,58.271,47.484c19.737,7.535,33.762,26.513,33.762,48.896c0,28.975-23.488,52.343-52.462,52.343H194.103
		c-31.899,0-57.758-26.739-57.758-58.639c0-31.898,25.859-57.697,57.758-57.697c2.392,0,4.744,0.193,7.059,0.475
		C212.365,175.93,246.109,149.655,286,149.655 M286,139.655c-21.526,0-41.987,6.941-59.172,19.812
		C212.352,170.311,200.99,185,194.27,202c-0.056,0-0.111,0-0.167,0c-37.362,0-67.758,30.258-67.758,67.62
		c0,18.116,7.019,35.089,19.763,48.14C158.975,330.934,176.02,338,194.103,338h210.779c34.441,0,62.462-27.9,62.462-62.343
		c0-12.902-3.905-25.229-11.293-35.76c-6.172-8.798-14.382-15.744-23.951-20.372c-3.856-13.393-11.75-25.451-22.592-34.397
		c-12.4-10.232-28.097-15.859-44.197-15.859c-2.773,0-5.549,0.169-8.298,0.497C338.437,150.561,312.866,139.655,286,139.655
		L286,139.655z"/>
</g>
<radialGradient id="SVGID_4_" cx="261.3389" cy="177.1841" r="73.9755" fx="253.0829" fy="178.4218" gradientTransform="matrix(0.2416 0.9704 -1.6294 0.4057 486.9043 -148.2982)" gradientUnits="userSpaceOnUse">
	<stop  offset="0" style="stop-color:#E0E0E0"/>
	<stop  offset="0.2841" style="stop-color:#DDDDDD"/>
	<stop  offset="0.5103" style="stop-color:#D3D3D3"/>
	<stop  offset="0.7159" style="stop-color:#C2C2C2"/>
	<stop  offset="0.9071" style="stop-color:#ABABAB"/>
</radialGradient>
<circle style="fill:url(#SVGID_4_);" cx="286" cy="238.448" r="88.793"/>
<radialGradient id="SVGID_5_" cx="363.4023" cy="191.2319" r="65.0434" fx="356.0692" fy="191.5549" gradientTransform="matrix(0.1851 0.9827 -1.4858 0.2798 580.2812 -219.397)" gradientUnits="userSpaceOnUse">
	<stop  offset="0" style="stop-color:#E0E0E0"/>
	<stop  offset="0.4695" style="stop-color:#C9C9C9"/>
	<stop  offset="1" style="stop-color:#ABABAB"/>
</radialGradient>
<circle style="fill:url(#SVGID_5_);" cx="365.311" cy="238.759" r="59.482"/>
<radialGradient id="SVGID_6_" cx="404.5234" cy="197.1963" r="80.4165" fx="395.4488" fy="197.1036" gradientTransform="matrix(0.0926 0.9957 -1.4518 0.1351 653.3354 -232.2228)" gradientUnits="userSpaceOnUse">
	<stop  offset="0" style="stop-color:#E0E0E0"/>
	<stop  offset="0.2662" style="stop-color:#DCDCDC"/>
	<stop  offset="0.5515" style="stop-color:#CFCFCF"/>
	<stop  offset="0.8448" style="stop-color:#B9B9B9"/>
	<stop  offset="1" style="stop-color:#ABABAB"/>
</radialGradient>
<circle style="fill:url(#SVGID_6_);" cx="404.881" cy="275.778" r="52.462"/>
<radialGradient id="SVGID_7_" cx="185.168" cy="237.0645" r="63.9384" fx="177.9528" fy="236.9908" gradientTransform="matrix(0.0055 1 -1.458 0.008 529.7982 50.002)" gradientUnits="userSpaceOnUse">
	<stop  offset="0" style="stop-color:#E0E0E0"/>
	<stop  offset="0.2662" style="stop-color:#DCDCDC"/>
	<stop  offset="0.5515" style="stop-color:#CFCFCF"/>
	<stop  offset="0.8448" style="stop-color:#B9B9B9"/>
	<stop  offset="1" style="stop-color:#ABABAB"/>
</radialGradient>
<circle style="fill:url(#SVGID_7_);" cx="194.103" cy="269.482" r="57.758"/>
<radialGradient id="SVGID_8_" cx="289.6699" cy="224.3628" r="72.0419" fx="281.5405" fy="224.4633" gradientTransform="matrix(0.0968 0.9953 -1.4277 0.1389 581.948 -95.1099)" gradientUnits="userSpaceOnUse">
	<stop  offset="0" style="stop-color:#E0E0E0"/>
	<stop  offset="0.2662" style="stop-color:#DCDCDC"/>
	<stop  offset="0.5515" style="stop-color:#CFCFCF"/>
	<stop  offset="0.8448" style="stop-color:#B9B9B9"/>
	<stop  offset="1" style="stop-color:#ABABAB"/>
</radialGradient>
<circle style="fill:url(#SVGID_8_);" cx="301.707" cy="262.155" r="65.086"/>
<radialGradient id="glow_1_" cx="293.4932" cy="336.1064" r="111.5071" gradientTransform="matrix(1 -0.0082 0.0065 0.8 -2.1857 69.6266)" gradientUnits="userSpaceOnUse">
	<stop  offset="0.1858" style="stop-color:#F9FFD1"/>
	<stop  offset="1" style="stop-color:#FFFFFF;stop-opacity:0"/>
</radialGradient>
<path id="glow" style="fill:url(#glow_1_);" d="M405.76,329c0.001-0.237,0.019-0.472,0.019-0.71
	c0-61.622-49.954-111.574-111.575-111.574c-61.62,0-111.573,49.952-111.573,111.574c0,0.238,0.017,0.473,0.018,0.71H405.76z"/>
<g id="lightning_flash">
	<radialGradient id="SVGID_9_" cx="287.5957" cy="305.2217" r="185.2038" gradientUnits="userSpaceOnUse">
		<stop  offset="0" style="stop-color:#FFF073"/>
		<stop  offset="0.2276" style="stop-color:#FFF070"/>
		<stop  offset="0.4089" style="stop-color:#FFEF66"/>
		<stop  offset="0.5743" style="stop-color:#FFED55"/>
		<stop  offset="0.7301" style="stop-color:#FFEB3D"/>
		<stop  offset="0.878" style="stop-color:#FFE91F"/>
		<stop  offset="1" style="stop-color:#FFE600"/>
	</radialGradient>
	<polygon style="fill:url(#SVGID_9_);" points="249.733,488 265.811,431 244.41,431 266.156,380.274 241.164,379.896 275.022,301 
		332.138,301 304.263,345 334.673,345 305.029,395 326.604,395 260.371,488 	"/>
	<path style="fill:#FFCD17;" d="M323.045,305.83L295.214,350h30.605l-29.645,50h20.771l-59.162,83h-1.457l16.077-57H252
		l21.705-50.628l-24.994-0.379L278.316,306H323 M341,296h-17.911h-44.772h-6.589l-2.6,6.054l-29.605,68.938l-5.906,13.752
		l14.965,0.193l10.027,0.13l-15.796,36.875L236.819,436H252h7.217l-12.52,44.5L243.14,493h13.186h1.457h5.177l2.988-4.141
		l59.162-83.379L336.264,390h-19.318h-3.062l20.5-34.415L343.527,340h-17.708h-12.507l18.148-28.848L341,295.915V296z"/>
</g>
</svg>
