<?xml version="1.0" encoding="iso-8859-1"?>
<!-- Generator: Adobe Illustrator 16.0.4, SVG Export Plug-In . SVG Version: 6.00 Build 0)  -->
<!DOCTYPE svg PUBLIC "-//W3C//DTD SVG 1.1//EN" "http://www.w3.org/Graphics/SVG/1.1/DTD/svg11.dtd">
<svg version="1.1" id="Layer_1" xmlns="http://www.w3.org/2000/svg" xmlns:xlink="http://www.w3.org/1999/xlink" x="0px" y="0px"
	 width="512px" height="512px" viewBox="0 0 512 512" style="enable-background:new 0 0 512 512;" xml:space="preserve">
<rect id="background_1_" style="opacity:0;fill:#929292;" width="512" height="512"/>
<g>
	<path style="fill:#D6D6D6;" d="M164.103,333c-16.726,0-32.5-6.6-44.418-18.803c-11.827-12.11-18.34-27.973-18.34-44.775
		c0-34.605,28.153-62.728,62.758-62.728c1.167,0,2.36,0.051,3.571,0.124c6.167-17.174,17.472-32.499,32.151-43.494
		c16.313-12.218,35.738-18.673,56.174-18.673c26.349,0,51.383,11.052,69.143,30.422c3.353-0.531,6.761-0.798,10.168-0.798
		c29.588,0,55.479,20.384,62.571,48.844c20.723,9.074,34.462,29.777,34.462,52.538c0,31.686-25.777,57.343-57.462,57.343H164.103z"
		/>
	<path style="fill:#E6E7E8;" d="M256,149.655c26.892,0,50.99,11.956,67.272,30.841c3.888-0.799,7.914-1.22,12.038-1.22
		c28.741,0,52.722,20.385,58.271,47.484c19.737,7.535,33.762,26.513,33.762,48.896c0,28.975-23.488,52.343-52.462,52.343H164.103
		c-31.899,0-57.758-26.739-57.758-58.639c0-31.898,25.859-57.697,57.758-57.697c2.392,0,4.744,0.193,7.059,0.475
		C182.365,175.93,216.109,149.655,256,149.655 M256,139.655c-21.526,0-41.987,6.941-59.172,19.812
		C182.352,170.311,170.99,185,164.27,202c-0.056,0-0.111,0-0.167,0c-37.362,0-67.758,30.258-67.758,67.62
		c0,18.116,7.019,35.089,19.763,48.14C128.975,330.934,146.02,338,164.103,338h210.779c34.441,0,62.462-27.9,62.462-62.343
		c0-12.902-3.905-25.229-11.293-35.76c-6.172-8.798-14.382-15.744-23.951-20.372c-3.856-13.393-11.75-25.451-22.592-34.397
		c-12.4-10.232-28.097-15.859-44.197-15.859c-2.773,0-5.549,0.169-8.298,0.497C308.437,150.561,282.866,139.655,256,139.655
		L256,139.655z"/>
</g>
<radialGradient id="SVGID_1_" cx="231.3394" cy="177.1841" r="73.9754" fx="223.0834" fy="178.4218" gradientTransform="matrix(0.2416 0.9704 -1.6294 0.4057 464.1532 -119.1875)" gradientUnits="userSpaceOnUse">
	<stop  offset="0" style="stop-color:#FFFFFF"/>
	<stop  offset="0.3158" style="stop-color:#FCFCFC"/>
	<stop  offset="0.5672" style="stop-color:#F2F2F2"/>
	<stop  offset="0.7958" style="stop-color:#E1E1E1"/>
	<stop  offset="0.9071" style="stop-color:#D6D6D6"/>
</radialGradient>
<circle style="fill:url(#SVGID_1_);" cx="256" cy="238.448" r="88.793"/>
<radialGradient id="SVGID_2_" cx="333.4023" cy="191.2319" r="65.0434" fx="326.0692" fy="191.5549" gradientTransform="matrix(0.1851 0.9827 -1.4858 0.2798 555.8328 -189.9152)" gradientUnits="userSpaceOnUse">
	<stop  offset="0" style="stop-color:#FFFFFF"/>
	<stop  offset="0.5878" style="stop-color:#E8E8E8"/>
	<stop  offset="1" style="stop-color:#D6D6D6"/>
</radialGradient>
<circle style="fill:url(#SVGID_2_);" cx="335.311" cy="238.759" r="59.482"/>
<radialGradient id="SVGID_3_" cx="374.5234" cy="197.1963" r="80.4165" fx="365.4488" fy="197.1036" gradientTransform="matrix(0.0926 0.9957 -1.4518 0.1351 626.1146 -202.3518)" gradientUnits="userSpaceOnUse">
	<stop  offset="0" style="stop-color:#FFFFFF"/>
	<stop  offset="0.3049" style="stop-color:#FBFBFB"/>
	<stop  offset="0.6317" style="stop-color:#EEEEEE"/>
	<stop  offset="0.9678" style="stop-color:#D8D8D8"/>
	<stop  offset="1" style="stop-color:#D6D6D6"/>
</radialGradient>
<circle style="fill:url(#SVGID_3_);" cx="374.881" cy="275.778" r="52.462"/>
<radialGradient id="SVGID_4_" cx="155.168" cy="237.0645" r="63.9384" fx="147.9528" fy="236.9908" gradientTransform="matrix(0.0055 1 -1.458 0.008 499.9629 80.0016)" gradientUnits="userSpaceOnUse">
	<stop  offset="0" style="stop-color:#FFFFFF"/>
	<stop  offset="0.3049" style="stop-color:#FBFBFB"/>
	<stop  offset="0.6317" style="stop-color:#EEEEEE"/>
	<stop  offset="0.9678" style="stop-color:#D8D8D8"/>
	<stop  offset="1" style="stop-color:#D6D6D6"/>
</radialGradient>
<circle style="fill:url(#SVGID_4_);" cx="164.103" cy="269.482" r="57.758"/>
<radialGradient id="SVGID_5_" cx="259.6699" cy="224.3628" r="72.0419" fx="251.5405" fy="224.4633" gradientTransform="matrix(0.0968 0.9953 -1.4277 0.1389 554.853 -65.2509)" gradientUnits="userSpaceOnUse">
	<stop  offset="0" style="stop-color:#FFFFFF"/>
	<stop  offset="0.3049" style="stop-color:#FBFBFB"/>
	<stop  offset="0.6317" style="stop-color:#EEEEEE"/>
	<stop  offset="0.9678" style="stop-color:#D8D8D8"/>
	<stop  offset="1" style="stop-color:#D6D6D6"/>
</radialGradient>
<circle style="fill:url(#SVGID_5_);" cx="271.707" cy="262.155" r="65.086"/>
<g>
	<path style="fill:#ABABAB;" d="M164.103,333c-16.726,0-32.5-6.6-44.418-18.803c-11.827-12.11-18.34-27.973-18.34-44.775
		c0-34.605,28.153-62.728,62.758-62.728c1.167,0,2.36,0.051,3.571,0.124c6.167-17.174,17.472-32.499,32.151-43.494
		c16.313-12.218,35.738-18.673,56.174-18.673c26.349,0,51.383,11.052,69.143,30.422c3.353-0.531,6.761-0.798,10.168-0.798
		c29.588,0,55.479,20.384,62.571,48.844c20.723,9.074,34.462,29.777,34.462,52.538c0,31.686-25.777,57.343-57.462,57.343H164.103z"
		/>
	<path style="fill:#A0A0A0;" d="M256,149.655c26.892,0,50.99,11.956,67.272,30.841c3.888-0.799,7.914-1.22,12.038-1.22
		c28.741,0,52.722,20.385,58.271,47.484c19.737,7.535,33.762,26.513,33.762,48.896c0,28.975-23.488,52.343-52.462,52.343H164.103
		c-31.899,0-57.758-26.739-57.758-58.639c0-31.898,25.859-57.697,57.758-57.697c2.392,0,4.744,0.193,7.059,0.475
		C182.365,175.93,216.109,149.655,256,149.655 M256,139.655c-21.526,0-41.987,6.941-59.172,19.812
		C182.352,170.311,170.99,185,164.27,202c-0.056,0-0.111,0-0.167,0c-37.362,0-67.758,30.258-67.758,67.62
		c0,18.116,7.019,35.089,19.763,48.14C128.975,330.934,146.02,338,164.103,338h210.779c34.441,0,62.462-27.9,62.462-62.343
		c0-12.902-3.905-25.229-11.293-35.76c-6.172-8.798-14.382-15.744-23.951-20.372c-3.856-13.393-11.75-25.451-22.592-34.397
		c-12.4-10.232-28.097-15.859-44.197-15.859c-2.773,0-5.549,0.169-8.298,0.497C308.437,150.561,282.866,139.655,256,139.655
		L256,139.655z"/>
</g>
<radialGradient id="SVGID_6_" cx="231.3394" cy="177.1841" r="73.9754" fx="223.0834" fy="178.4218" gradientTransform="matrix(0.2416 0.9704 -1.6294 0.4057 464.1532 -119.1875)" gradientUnits="userSpaceOnUse">
	<stop  offset="0" style="stop-color:#E0E0E0"/>
	<stop  offset="0.2841" style="stop-color:#DDDDDD"/>
	<stop  offset="0.5103" style="stop-color:#D3D3D3"/>
	<stop  offset="0.7159" style="stop-color:#C2C2C2"/>
	<stop  offset="0.9071" style="stop-color:#ABABAB"/>
</radialGradient>
<circle style="fill:url(#SVGID_6_);" cx="256" cy="238.448" r="88.793"/>
<radialGradient id="SVGID_7_" cx="333.4023" cy="191.2319" r="65.0434" fx="326.0692" fy="191.5549" gradientTransform="matrix(0.1851 0.9827 -1.4858 0.2798 555.8328 -189.9152)" gradientUnits="userSpaceOnUse">
	<stop  offset="0" style="stop-color:#E0E0E0"/>
	<stop  offset="0.4695" style="stop-color:#C9C9C9"/>
	<stop  offset="1" style="stop-color:#ABABAB"/>
</radialGradient>
<circle style="fill:url(#SVGID_7_);" cx="335.311" cy="238.759" r="59.482"/>
<radialGradient id="SVGID_8_" cx="374.5234" cy="197.1963" r="80.4165" fx="365.4488" fy="197.1036" gradientTransform="matrix(0.0926 0.9957 -1.4518 0.1351 626.1146 -202.3518)" gradientUnits="userSpaceOnUse">
	<stop  offset="0" style="stop-color:#E0E0E0"/>
	<stop  offset="0.2662" style="stop-color:#DCDCDC"/>
	<stop  offset="0.5515" style="stop-color:#CFCFCF"/>
	<stop  offset="0.8448" style="stop-color:#B9B9B9"/>
	<stop  offset="1" style="stop-color:#ABABAB"/>
</radialGradient>
<circle style="fill:url(#SVGID_8_);" cx="374.881" cy="275.778" r="52.462"/>
<radialGradient id="SVGID_9_" cx="155.168" cy="237.0645" r="63.9384" fx="147.9528" fy="236.9908" gradientTransform="matrix(0.0055 1 -1.458 0.008 499.9629 80.0016)" gradientUnits="userSpaceOnUse">
	<stop  offset="0" style="stop-color:#E0E0E0"/>
	<stop  offset="0.2662" style="stop-color:#DCDCDC"/>
	<stop  offset="0.5515" style="stop-color:#CFCFCF"/>
	<stop  offset="0.8448" style="stop-color:#B9B9B9"/>
	<stop  offset="1" style="stop-color:#ABABAB"/>
</radialGradient>
<circle style="fill:url(#SVGID_9_);" cx="164.103" cy="269.482" r="57.758"/>
<radialGradient id="SVGID_10_" cx="259.6699" cy="224.3628" r="72.0419" fx="251.5405" fy="224.4633" gradientTransform="matrix(0.0968 0.9953 -1.4277 0.1389 554.853 -65.2509)" gradientUnits="userSpaceOnUse">
	<stop  offset="0" style="stop-color:#E0E0E0"/>
	<stop  offset="0.2662" style="stop-color:#DCDCDC"/>
	<stop  offset="0.5515" style="stop-color:#CFCFCF"/>
	<stop  offset="0.8448" style="stop-color:#B9B9B9"/>
	<stop  offset="1" style="stop-color:#ABABAB"/>
</radialGradient>
<circle style="fill:url(#SVGID_10_);" cx="271.707" cy="262.155" r="65.086"/>
<rect x="244.019" y="293.723" style="opacity:0.4;" width="22.378" height="22.392"/>
<path style="opacity:0.4;" d="M244.019,280.641c0.31-14.445,5.671-25.403,16.084-36.875c2.484-2.689,5.012-5.131,7.576-7.33
	c2.564-2.193,4.896-4.425,6.993-6.691c2.099-2.263,3.807-4.743,5.13-7.436c1.317-2.688,1.98-5.875,1.98-9.559
	c0-7.223-2.449-13.098-7.343-17.632c-4.896-4.531-11.463-6.798-19.698-6.798c-7.459,0-13.484,2.337-18.066,7.01
	c-4.586,4.674-7.033,11.12-7.343,19.332h-22.379c0.153-6.937,1.515-13.241,4.08-18.907c2.564-5.663,6.061-10.548,10.49-14.657
	c4.43-4.106,9.634-7.293,15.619-9.56c5.981-2.264,12.392-3.399,19.232-3.399c6.993,0,13.52,1.135,19.581,3.399
	c6.062,2.267,11.307,5.348,15.735,9.241c4.428,3.897,7.925,8.534,10.489,13.914c2.564,5.384,3.848,11.259,3.848,17.632
	c0,4.673-0.584,8.747-1.749,12.215c-1.165,3.472-2.762,6.659-4.778,9.559c-2.021,2.905-4.313,5.63-6.878,8.179
	c-2.562,2.55-5.245,5.171-8.041,7.86c-2.331,2.125-4.51,4.285-6.528,6.479c-2.021,2.197-3.81,4.566-5.361,7.116
	c-1.555,2.549-2.837,5.347-3.847,8.391c-1.012,3.048-1.595,4.553-1.748,8.516H244.019z"/>
</svg>
