<?xml version="1.0" encoding="iso-8859-1"?>
<!-- Generator: Adobe Illustrator 16.0.4, SVG Export Plug-In . SVG Version: 6.00 Build 0)  -->
<!DOCTYPE svg PUBLIC "-//W3C//DTD SVG 1.1//EN" "http://www.w3.org/Graphics/SVG/1.1/DTD/svg11.dtd">
<svg version="1.1" id="Layer_1" xmlns="http://www.w3.org/2000/svg" xmlns:xlink="http://www.w3.org/1999/xlink" x="0px" y="0px"
	 width="512px" height="512px" viewBox="0 0 512 512" style="enable-background:new 0 0 512 512;" xml:space="preserve">
<rect id="background_1_" style="opacity:0;fill:#929292;" width="512" height="512"/>
<g>
	<path style="fill:#CCCCCC;" d="M164.103,333c-16.726,0-32.5-6.6-44.418-18.803c-11.827-12.11-18.34-27.973-18.34-44.775
		c0-34.605,28.153-62.728,62.758-62.728c1.167,0,2.36,0.051,3.571,0.124c6.167-17.174,17.472-32.499,32.151-43.494
		c16.313-12.218,35.738-18.673,56.174-18.673c26.349,0,51.383,11.052,69.143,30.422c3.353-0.531,6.761-0.798,10.168-0.798
		c29.588,0,55.479,20.384,62.571,48.844c20.723,9.074,34.462,29.777,34.462,52.538c0,31.686-25.777,57.343-57.462,57.343H164.103z"
		/>
	<path style="fill:#BCBEC0;" d="M256,149.655c26.892,0,50.99,11.956,67.272,30.841c3.888-0.799,7.914-1.22,12.038-1.22
		c28.741,0,52.722,20.385,58.271,47.484c19.737,7.535,33.762,26.513,33.762,48.896c0,28.975-23.488,52.343-52.462,52.343H164.103
		c-31.899,0-57.758-26.739-57.758-58.639c0-31.898,25.859-57.697,57.758-57.697c2.392,0,4.744,0.193,7.059,0.475
		C182.365,175.93,216.109,149.655,256,149.655 M256,139.655c-21.526,0-41.987,6.941-59.172,19.812
		C182.352,170.311,170.99,185,164.27,202c-0.056,0-0.111,0-0.167,0c-37.362,0-67.758,30.258-67.758,67.62
		c0,18.116,7.019,35.089,19.763,48.14C128.975,330.934,146.02,338,164.103,338h210.779c34.441,0,62.462-27.9,62.462-62.343
		c0-12.902-3.905-25.229-11.293-35.76c-6.172-8.798-14.382-15.744-23.951-20.372c-3.856-13.393-11.75-25.451-22.592-34.397
		c-12.4-10.232-28.097-15.859-44.197-15.859c-2.773,0-5.549,0.169-8.298,0.497C308.437,150.561,282.866,139.655,256,139.655
		L256,139.655z"/>
</g>
<radialGradient id="SVGID_1_" cx="231.3394" cy="177.1841" r="73.9754" fx="223.0834" fy="178.4218" gradientTransform="matrix(0.2416 0.9704 -1.6294 0.4057 464.1532 -119.1875)" gradientUnits="userSpaceOnUse">
	<stop  offset="0" style="stop-color:#FFFFFF"/>
	<stop  offset="0.2886" style="stop-color:#FCFCFC"/>
	<stop  offset="0.5185" style="stop-color:#F2F2F2"/>
	<stop  offset="0.7274" style="stop-color:#E1E1E1"/>
	<stop  offset="0.9071" style="stop-color:#CCCCCC"/>
</radialGradient>
<circle style="fill:url(#SVGID_1_);" cx="256" cy="238.448" r="88.793"/>
<radialGradient id="SVGID_2_" cx="333.4023" cy="191.2319" r="65.0434" fx="326.0692" fy="191.5549" gradientTransform="matrix(0.1851 0.9827 -1.4858 0.2798 555.8328 -189.9152)" gradientUnits="userSpaceOnUse">
	<stop  offset="0" style="stop-color:#FFFFFF"/>
	<stop  offset="0.4857" style="stop-color:#E8E8E8"/>
	<stop  offset="1" style="stop-color:#CCCCCC"/>
</radialGradient>
<circle style="fill:url(#SVGID_2_);" cx="335.311" cy="238.759" r="59.482"/>
<radialGradient id="SVGID_3_" cx="374.5234" cy="197.1963" r="80.4165" fx="365.4488" fy="197.1036" gradientTransform="matrix(0.0926 0.9957 -1.4518 0.1351 626.1146 -202.3518)" gradientUnits="userSpaceOnUse">
	<stop  offset="0" style="stop-color:#FFFFFF"/>
	<stop  offset="0.2716" style="stop-color:#FBFBFB"/>
	<stop  offset="0.5628" style="stop-color:#EEEEEE"/>
	<stop  offset="0.8622" style="stop-color:#D8D8D8"/>
	<stop  offset="1" style="stop-color:#CCCCCC"/>
</radialGradient>
<circle style="fill:url(#SVGID_3_);" cx="374.881" cy="275.778" r="52.462"/>
<radialGradient id="SVGID_4_" cx="155.168" cy="237.0645" r="63.9384" fx="147.9528" fy="236.9908" gradientTransform="matrix(0.0055 1 -1.458 0.008 499.9629 80.0016)" gradientUnits="userSpaceOnUse">
	<stop  offset="0" style="stop-color:#FFFFFF"/>
	<stop  offset="0.2716" style="stop-color:#FBFBFB"/>
	<stop  offset="0.5628" style="stop-color:#EEEEEE"/>
	<stop  offset="0.8622" style="stop-color:#D8D8D8"/>
	<stop  offset="1" style="stop-color:#CCCCCC"/>
</radialGradient>
<circle style="fill:url(#SVGID_4_);" cx="164.103" cy="269.482" r="57.758"/>
<radialGradient id="SVGID_5_" cx="259.6699" cy="224.3628" r="72.0419" fx="251.5405" fy="224.4633" gradientTransform="matrix(0.0968 0.9953 -1.4277 0.1389 554.853 -65.2509)" gradientUnits="userSpaceOnUse">
	<stop  offset="0" style="stop-color:#FFFFFF"/>
	<stop  offset="0.2716" style="stop-color:#FBFBFB"/>
	<stop  offset="0.5628" style="stop-color:#EEEEEE"/>
	<stop  offset="0.8622" style="stop-color:#D8D8D8"/>
	<stop  offset="1" style="stop-color:#CCCCCC"/>
</radialGradient>
<circle style="fill:url(#SVGID_5_);" cx="271.707" cy="262.155" r="65.086"/>
<g id="raindrop_19_">
	<path style="fill:#00BFEF;" d="M146.977,435.917c-6.163,0-11.829-2.814-15.544-7.722c-5.58-7.363-5.122-16.732,1.225-25.062
		c4.713-6.175,17.953-14.41,19.447-15.329l4.078-2.508l2.25,4.226c0.26,0.488,6.395,12.106,7.952,23.764
		c0.931,6.997-2.143,14.501-7.647,18.676C155.319,434.55,151.253,435.917,146.977,435.917z"/>
	<path style="fill:#2A9CDE;" d="M154.462,391.637c0,0,5.996,11.257,7.463,22.244c0.687,5.165-1.603,11.23-5.906,14.494
		c-2.708,2.051-5.889,3.042-9.042,3.042c-4.532,0-9.01-2.047-11.957-5.938c-4.375-5.772-3.887-12.92,1.217-19.618
		C140.577,400.175,154.462,391.637,154.462,391.637 M157.904,378.955l-8.157,5.015c-2.557,1.572-15.568,9.753-20.665,16.431
		c-7.535,9.889-8.007,21.578-1.235,30.514c4.572,6.038,11.545,9.503,19.129,9.503c5.265,0,10.27-1.683,14.475-4.866
		c6.758-5.126,10.531-14.31,9.395-22.856c-1.664-12.457-8.166-24.771-8.441-25.288L157.904,378.955L157.904,378.955z"/>
</g>
<g id="raindrop_lolite_19_">
	<linearGradient id="SVGID_6_" gradientUnits="userSpaceOnUse" x1="141.7266" y1="405.3936" x2="164.0949" y2="429.3177">
		<stop  offset="0.1801" style="stop-color:#00FFFF;stop-opacity:0"/>
		<stop  offset="0.4166" style="stop-color:#31FFFF;stop-opacity:0.3348"/>
		<stop  offset="0.7099" style="stop-color:#73FFFF;stop-opacity:0.75"/>
	</linearGradient>
	<path style="fill:url(#SVGID_6_);" d="M154.462,391.637c0,0,5.996,11.257,7.463,22.244c0.687,5.165-1.603,11.23-5.906,14.494
		c-6.601,4.997-16.002,3.703-20.999-2.896c-4.375-5.772-3.887-12.92,1.217-19.618C140.577,400.175,154.462,391.637,154.462,391.637z
		"/>
</g>
<ellipse id="raindrop_hilite_10_" transform="matrix(0.5012 -0.8654 0.8654 0.5012 -286.0927 326.6785)" style="fill:#BDFFFF;" cx="140.3" cy="411.483" rx="5.83" ry="3.223"/>
<g id="raindrop_17_">
	<path style="fill:#00BFEF;" d="M256.978,435.917c-6.163,0-11.829-2.814-15.545-7.722c-5.579-7.364-5.122-16.733,1.226-25.062
		c4.713-6.175,17.952-14.41,19.446-15.329l4.079-2.508l2.25,4.226c0.261,0.489,6.395,12.106,7.952,23.763
		c0.931,6.998-2.143,14.502-7.646,18.677C265.319,434.55,261.253,435.917,256.978,435.917z"/>
	<path style="fill:#2A9CDE;" d="M264.462,391.637c0,0,5.995,11.257,7.464,22.244c0.687,5.165-1.603,11.23-5.906,14.495
		c-2.708,2.05-5.889,3.041-9.042,3.041c-4.532,0-9.01-2.047-11.957-5.938c-4.374-5.772-3.888-12.92,1.217-19.618
		C250.577,400.175,264.462,391.637,264.462,391.637 M267.904,378.954l-8.156,5.017c-2.557,1.571-15.568,9.752-20.665,16.429
		c-7.535,9.889-8.007,21.578-1.235,30.515c4.571,6.038,11.545,9.503,19.13,9.503c5.264,0,10.269-1.683,14.474-4.865
		c6.759-5.127,10.532-14.311,9.396-22.856c-1.666-12.458-8.166-24.771-8.442-25.289L267.904,378.954L267.904,378.954z"/>
</g>
<g id="raindrop_lolite_17_">
	<linearGradient id="SVGID_7_" gradientUnits="userSpaceOnUse" x1="251.7266" y1="405.3936" x2="274.0956" y2="429.3185">
		<stop  offset="0.1801" style="stop-color:#00FFFF;stop-opacity:0"/>
		<stop  offset="0.4166" style="stop-color:#31FFFF;stop-opacity:0.3348"/>
		<stop  offset="0.7099" style="stop-color:#73FFFF;stop-opacity:0.75"/>
	</linearGradient>
	<path style="fill:url(#SVGID_7_);" d="M264.462,391.637c0,0,5.995,11.257,7.464,22.244c0.687,5.165-1.603,11.23-5.906,14.495
		c-6.601,4.996-16.002,3.702-20.999-2.897c-4.374-5.772-3.888-12.92,1.217-19.618C250.577,400.175,264.462,391.637,264.462,391.637z
		"/>
</g>
<path id="raindrop_hilite_9_" style="fill:#BDFFFF;" d="M253.222,406.438c1.541,0.89,1.48,3.872-0.133,6.66
	c-1.615,2.785-4.172,4.32-5.71,3.43c-1.541-0.892-1.482-3.873,0.129-6.66C249.124,407.08,251.68,405.544,253.222,406.438z"/>
<g id="raindrop_15_">
	<path style="fill:#00BFEF;" d="M366.978,435.917c-6.163,0-11.829-2.814-15.545-7.722c-5.579-7.364-5.122-16.733,1.226-25.062
		c4.713-6.175,17.952-14.41,19.446-15.329l4.079-2.508l2.25,4.226c0.261,0.489,6.395,12.106,7.952,23.763
		c0.931,6.998-2.143,14.502-7.646,18.677C375.319,434.55,371.253,435.917,366.978,435.917z"/>
	<path style="fill:#2A9CDE;" d="M374.462,391.637c0,0,5.995,11.257,7.464,22.244c0.687,5.165-1.603,11.23-5.906,14.495
		c-2.708,2.05-5.889,3.041-9.042,3.041c-4.532,0-9.01-2.047-11.957-5.938c-4.374-5.772-3.888-12.92,1.217-19.618
		C360.577,400.175,374.462,391.637,374.462,391.637 M377.904,378.954l-8.156,5.017c-2.557,1.571-15.568,9.752-20.665,16.429
		c-7.535,9.889-8.007,21.578-1.235,30.515c4.571,6.038,11.545,9.503,19.13,9.503c5.264,0,10.269-1.683,14.474-4.865
		c6.759-5.127,10.532-14.311,9.396-22.856c-1.666-12.458-8.166-24.771-8.442-25.289L377.904,378.954L377.904,378.954z"/>
</g>
<g id="raindrop_lolite_15_">
	<linearGradient id="SVGID_8_" gradientUnits="userSpaceOnUse" x1="361.7266" y1="405.3936" x2="384.0949" y2="429.3177">
		<stop  offset="0.1801" style="stop-color:#00FFFF;stop-opacity:0"/>
		<stop  offset="0.4166" style="stop-color:#31FFFF;stop-opacity:0.3348"/>
		<stop  offset="0.7099" style="stop-color:#73FFFF;stop-opacity:0.75"/>
	</linearGradient>
	<path style="fill:url(#SVGID_8_);" d="M374.462,391.637c0,0,5.995,11.257,7.464,22.244c0.687,5.165-1.603,11.23-5.906,14.495
		c-6.601,4.996-16.002,3.702-20.999-2.897c-4.374-5.772-3.888-12.92,1.217-19.618C360.577,400.175,374.462,391.637,374.462,391.637z
		"/>
</g>
<path id="raindrop_hilite_8_" style="fill:#BDFFFF;" d="M363.222,406.438c1.541,0.89,1.48,3.872-0.133,6.66
	c-1.615,2.785-4.172,4.32-5.71,3.43c-1.541-0.892-1.482-3.873,0.129-6.66C359.124,407.08,361.68,405.544,363.222,406.438z"/>
</svg>
