<?xml version="1.0" encoding="iso-8859-1"?>
<!-- Generator: Adobe Illustrator 16.0.4, SVG Export Plug-In . SVG Version: 6.00 Build 0)  -->
<!DOCTYPE svg PUBLIC "-//W3C//DTD SVG 1.1//EN" "http://www.w3.org/Graphics/SVG/1.1/DTD/svg11.dtd">
<svg version="1.1" id="Layer_1" xmlns="http://www.w3.org/2000/svg" xmlns:xlink="http://www.w3.org/1999/xlink" x="0px" y="0px"
	 width="512px" height="512px" viewBox="0 0 512 512" style="enable-background:new 0 0 512 512;" xml:space="preserve">
<rect id="background_1_" style="opacity:0;fill:#929292;" width="512" height="512"/>
<g>
	<path style="fill:#FFFFFF;" d="M193.103,333c-16.454,0-31.975-6.492-43.703-18.502c-11.643-11.922-18.055-27.536-18.055-44.076
		c0-34.053,27.705-61.728,61.758-61.728c1.409,0,2.82,0.066,4.261,0.169c6.043-17.276,17.337-32.71,32.061-43.739
		c16.139-12.088,35.356-18.474,55.575-18.474c26.247,0,51.177,11.086,68.769,30.497c3.471-0.58,7.007-0.873,10.542-0.873
		c29.296,0,54.909,20.295,61.719,48.565c20.612,8.81,34.314,29.288,34.314,51.817c0,31.134-25.329,56.343-56.462,56.343H193.103z"/>
	<path style="fill:#FFFFFF;" d="M285,150.655c26.892,0,50.99,11.956,67.272,30.841c3.888-0.799,7.914-1.22,12.038-1.22
		c28.741,0,52.722,20.385,58.271,47.484c19.737,7.535,33.762,26.513,33.762,48.896c0,28.975-23.488,52.343-52.462,52.343H193.103
		c-31.899,0-57.758-26.739-57.758-58.639c0-31.898,25.859-57.697,57.758-57.697c2.392,0,4.744,0.193,7.059,0.475
		C211.365,176.93,245.109,150.655,285,150.655 M285,142.655c-21.09,0-41.137,6.666-57.973,19.275
		c-14.552,10.9-25.891,25.933-32.403,42.813c-0.511-0.013-1.019-0.019-1.521-0.019c-36.259,0-65.758,29.499-65.758,65.758
		c0,17.591,6.816,34.137,19.194,46.811C159.026,330.079,175.562,337,193.103,337h210.779c33.339,0,60.462-27.003,60.462-60.343
		c0-12.489-3.779-24.418-10.931-34.611c-6.147-8.764-14.384-15.631-23.993-20.104c-3.649-13.352-11.421-25.39-22.186-34.271
		c-12.042-9.937-27.286-15.402-42.924-15.402c-3.026,0-6.054,0.207-9.046,0.607C337.011,153.613,311.656,142.655,285,142.655
		L285,142.655z"/>
</g>
<g>
	<radialGradient id="SVGID_1_" cx="166.0684" cy="169.4824" r="112.1479" gradientUnits="userSpaceOnUse">
		<stop  offset="0" style="stop-color:#FFF073"/>
		<stop  offset="0.2495" style="stop-color:#FFEF70"/>
		<stop  offset="0.4482" style="stop-color:#FFEB66"/>
		<stop  offset="0.6295" style="stop-color:#FFE455"/>
		<stop  offset="0.8003" style="stop-color:#FFDA3D"/>
		<stop  offset="0.9624" style="stop-color:#FFCE1F"/>
		<stop  offset="1" style="stop-color:#FFCB17"/>
	</radialGradient>
	<path style="fill:url(#SVGID_1_);" d="M166.069,281.631c-61.839,0-112.148-50.31-112.148-112.149
		c0-61.838,50.31-112.148,112.148-112.148c61.838,0,112.147,50.31,112.147,112.148C278.216,231.321,227.907,281.631,166.069,281.631
		z"/>
	<path style="fill:#FBB040;" d="M166.069,62.334c59.177,0,107.147,47.972,107.147,107.148s-47.97,107.149-107.147,107.149
		S58.92,228.658,58.92,169.482S106.892,62.334,166.069,62.334 M166.069,52.334c-31.292,0-60.71,12.186-82.836,34.312
		C61.106,108.772,48.92,138.19,48.92,169.482s12.186,60.71,34.312,82.836c22.126,22.127,51.545,34.312,82.836,34.312
		s60.71-12.186,82.836-34.312c22.125-22.126,34.311-51.545,34.311-82.836s-12.186-60.71-34.311-82.836
		C226.779,64.52,197.36,52.334,166.069,52.334L166.069,52.334z"/>
</g>
<g>
	<linearGradient id="SVGID_2_" gradientUnits="userSpaceOnUse" x1="166.0679" y1="62.334" x2="166.0679" y2="276.6313">
		<stop  offset="0.6339" style="stop-color:#FFF073;stop-opacity:0"/>
		<stop  offset="1" style="stop-color:#FEFF96"/>
	</linearGradient>
	<circle style="fill:url(#SVGID_2_);" cx="166.068" cy="169.482" r="107.148"/>
</g>
<linearGradient id="SVGID_3_" gradientUnits="userSpaceOnUse" x1="166.1997" y1="143.2563" x2="166.1997" y2="71.5488">
	<stop  offset="0" style="stop-color:#FFFFFF;stop-opacity:0.2"/>
	<stop  offset="0.9081" style="stop-color:#FFFFFF;stop-opacity:0.7449"/>
	<stop  offset="1" style="stop-color:#FFFFFF;stop-opacity:0.8"/>
</linearGradient>
<ellipse style="fill:url(#SVGID_3_);" cx="166.2" cy="107.403" rx="62.146" ry="35.854"/>
<g style="opacity:0.65;">
	<g>
		<path style="fill:#CCCCCC;" d="M193.103,334c-16.726,0-32.5-6.6-44.418-18.803c-11.827-12.11-18.34-27.973-18.34-44.775
			c0-34.605,28.153-62.728,62.758-62.728c1.168,0,2.362,0.051,3.571,0.124c6.168-17.172,17.473-32.499,32.151-43.493
			c16.313-12.219,35.738-18.674,56.174-18.674c26.348,0,51.383,11.053,69.143,30.422c3.353-0.531,6.761-0.798,10.168-0.798
			c29.588,0,55.479,20.384,62.571,48.844c20.723,9.074,34.462,29.777,34.462,52.538c0,31.686-25.777,57.343-57.462,57.343H193.103z"
			/>
		<path style="fill:#BCBEC0;" d="M285,150.655c26.892,0,50.99,11.956,67.272,30.841c3.888-0.799,7.914-1.22,12.038-1.22
			c28.741,0,52.722,20.385,58.271,47.484c19.737,7.535,33.762,26.513,33.762,48.896c0,28.975-23.488,52.343-52.462,52.343H193.103
			c-31.899,0-57.758-26.739-57.758-58.639c0-31.898,25.859-57.697,57.758-57.697c2.392,0,4.744,0.192,7.059,0.476
			C211.365,176.931,245.11,150.655,285,150.655 M285,140.655c-21.525,0-41.987,6.941-59.172,19.813
			C211.353,171.311,199.991,186,193.27,203c-0.056,0-0.111,0-0.167,0c-37.362,0-67.758,30.258-67.758,67.62
			c0,18.116,7.019,35.089,19.763,48.14C157.975,331.934,175.02,339,193.103,339h210.779c34.441,0,62.462-27.9,62.462-62.343
			c0-12.902-3.905-25.229-11.293-35.76c-6.172-8.798-14.382-15.744-23.951-20.372c-3.856-13.393-11.75-25.451-22.592-34.397
			c-12.4-10.232-28.097-15.859-44.197-15.859c-2.773,0-5.548,0.169-8.298,0.497C337.437,151.561,311.866,140.655,285,140.655
			L285,140.655z"/>
	</g>
	
		<radialGradient id="SVGID_4_" cx="260.3389" cy="178.1841" r="73.9755" fx="252.0829" fy="179.4218" gradientTransform="matrix(0.2416 0.9704 -1.6294 0.4057 487.7753 -146.7336)" gradientUnits="userSpaceOnUse">
		<stop  offset="0" style="stop-color:#FFFFFF"/>
		<stop  offset="0.2886" style="stop-color:#FCFCFC"/>
		<stop  offset="0.5185" style="stop-color:#F2F2F2"/>
		<stop  offset="0.7274" style="stop-color:#E1E1E1"/>
		<stop  offset="0.9071" style="stop-color:#CCCCCC"/>
	</radialGradient>
	<circle style="fill:url(#SVGID_4_);" cx="285" cy="239.448" r="88.793"/>
	
		<radialGradient id="SVGID_5_" cx="362.4023" cy="192.2319" r="65.0434" fx="355.0692" fy="192.5549" gradientTransform="matrix(0.1851 0.9827 -1.4858 0.2798 580.952 -217.6941)" gradientUnits="userSpaceOnUse">
		<stop  offset="0" style="stop-color:#FFFFFF"/>
		<stop  offset="0.4857" style="stop-color:#E8E8E8"/>
		<stop  offset="1" style="stop-color:#CCCCCC"/>
	</radialGradient>
	<circle style="fill:url(#SVGID_5_);" cx="364.311" cy="239.759" r="59.482"/>
	
		<radialGradient id="SVGID_6_" cx="403.5234" cy="198.1963" r="80.4165" fx="394.4488" fy="198.1036" gradientTransform="matrix(0.0926 0.9957 -1.4518 0.1351 653.8799 -230.3622)" gradientUnits="userSpaceOnUse">
		<stop  offset="0" style="stop-color:#FFFFFF"/>
		<stop  offset="0.2716" style="stop-color:#FBFBFB"/>
		<stop  offset="0.5628" style="stop-color:#EEEEEE"/>
		<stop  offset="0.8622" style="stop-color:#D8D8D8"/>
		<stop  offset="1" style="stop-color:#CCCCCC"/>
	</radialGradient>
	<circle style="fill:url(#SVGID_6_);" cx="403.881" cy="276.778" r="52.462"/>
	
		<radialGradient id="SVGID_7_" cx="184.1685" cy="238.0645" r="63.9384" fx="176.9533" fy="237.9908" gradientTransform="matrix(0.0055 1 -1.458 0.008 530.2622 51.9935)" gradientUnits="userSpaceOnUse">
		<stop  offset="0" style="stop-color:#FFFFFF"/>
		<stop  offset="0.2716" style="stop-color:#FBFBFB"/>
		<stop  offset="0.5628" style="stop-color:#EEEEEE"/>
		<stop  offset="0.8622" style="stop-color:#D8D8D8"/>
		<stop  offset="1" style="stop-color:#CCCCCC"/>
	</radialGradient>
	<circle style="fill:url(#SVGID_7_);" cx="193.103" cy="270.482" r="57.759"/>
	
		<radialGradient id="SVGID_8_" cx="288.6699" cy="225.3628" r="72.0419" fx="280.5405" fy="225.4633" gradientTransform="matrix(0.0968 0.9953 -1.4277 0.1389 582.4725 -93.2535)" gradientUnits="userSpaceOnUse">
		<stop  offset="0" style="stop-color:#FFFFFF"/>
		<stop  offset="0.2716" style="stop-color:#FBFBFB"/>
		<stop  offset="0.5628" style="stop-color:#EEEEEE"/>
		<stop  offset="0.8622" style="stop-color:#D8D8D8"/>
		<stop  offset="1" style="stop-color:#CCCCCC"/>
	</radialGradient>
	<circle style="fill:url(#SVGID_8_);" cx="300.707" cy="263.155" r="65.086"/>
</g>
<g>
	<path style="fill:#EEEEEE;" d="M285,150.655c26.892,0,50.99,11.956,67.272,30.841c3.888-0.799,7.914-1.22,12.038-1.22
		c28.741,0,52.722,20.385,58.271,47.484c19.737,7.535,33.762,26.513,33.762,48.896c0,28.975-23.488,52.343-52.462,52.343H193.103
		c-31.899,0-57.758-26.739-57.758-58.639c0-31.898,25.859-57.697,57.758-57.697c2.392,0,4.744,0.192,7.059,0.476
		C211.365,176.931,245.11,150.655,285,150.655 M285,140.655c-21.525,0-41.987,6.941-59.172,19.813
		C211.353,171.311,199.991,186,193.27,203c-0.056,0-0.111,0-0.167,0c-37.362,0-67.758,30.258-67.758,67.62
		c0,18.116,7.019,35.089,19.763,48.14C157.975,331.934,175.02,339,193.103,339h210.779c34.441,0,62.462-27.9,62.462-62.343
		c0-12.902-3.905-25.229-11.293-35.76c-6.172-8.798-14.382-15.744-23.951-20.372c-3.856-13.393-11.75-25.451-22.592-34.397
		c-12.4-10.232-28.097-15.859-44.197-15.859c-2.773,0-5.548,0.169-8.298,0.497C337.437,151.561,311.866,140.655,285,140.655
		L285,140.655z"/>
</g>
</svg>
