<?xml version="1.0" encoding="iso-8859-1"?>
<!-- Generator: Adobe Illustrator 16.0.4, SVG Export Plug-In . SVG Version: 6.00 Build 0)  -->
<!DOCTYPE svg PUBLIC "-//W3C//DTD SVG 1.1//EN" "http://www.w3.org/Graphics/SVG/1.1/DTD/svg11.dtd">
<svg version="1.1" id="Layer_1" xmlns="http://www.w3.org/2000/svg" xmlns:xlink="http://www.w3.org/1999/xlink" x="0px" y="0px"
	 width="512px" height="512px" viewBox="0 0 512 512" style="enable-background:new 0 0 512 512;" xml:space="preserve">
<rect id="background_1_" style="opacity:0;fill:#929292;" width="512" height="512"/>
<g>
	<path style="fill:#CCCCCC;" d="M164.103,333c-16.726,0-32.5-6.6-44.418-18.803c-11.827-12.11-18.34-27.973-18.34-44.775
		c0-34.605,28.153-62.728,62.758-62.728c1.167,0,2.36,0.051,3.571,0.124c6.167-17.174,17.472-32.499,32.151-43.494
		c16.313-12.218,35.738-18.673,56.174-18.673c26.349,0,51.383,11.052,69.143,30.422c3.353-0.531,6.761-0.798,10.168-0.798
		c29.588,0,55.479,20.384,62.571,48.844c20.723,9.074,34.462,29.777,34.462,52.538c0,31.686-25.777,57.343-57.462,57.343H164.103z"
		/>
	<path style="fill:#BCBEC0;" d="M256,149.655c26.892,0,50.99,11.956,67.272,30.841c3.888-0.799,7.914-1.22,12.038-1.22
		c28.741,0,52.722,20.385,58.271,47.484c19.737,7.535,33.762,26.513,33.762,48.896c0,28.975-23.488,52.343-52.462,52.343H164.103
		c-31.899,0-57.758-26.739-57.758-58.639c0-31.898,25.859-57.697,57.758-57.697c2.392,0,4.744,0.193,7.059,0.475
		C182.365,175.93,216.109,149.655,256,149.655 M256,139.655c-21.526,0-41.987,6.941-59.172,19.812
		C182.352,170.311,170.99,185,164.27,202c-0.056,0-0.111,0-0.167,0c-37.362,0-67.758,30.258-67.758,67.62
		c0,18.116,7.019,35.089,19.763,48.14C128.975,330.934,146.02,338,164.103,338h210.779c34.441,0,62.462-27.9,62.462-62.343
		c0-12.902-3.905-25.229-11.293-35.76c-6.172-8.798-14.382-15.744-23.951-20.372c-3.856-13.393-11.75-25.451-22.592-34.397
		c-12.4-10.232-28.097-15.859-44.197-15.859c-2.773,0-5.549,0.169-8.298,0.497C308.437,150.561,282.866,139.655,256,139.655
		L256,139.655z"/>
</g>
<radialGradient id="SVGID_1_" cx="231.3394" cy="177.1841" r="73.9754" fx="223.0834" fy="178.4218" gradientTransform="matrix(0.2416 0.9704 -1.6294 0.4057 464.1532 -119.1875)" gradientUnits="userSpaceOnUse">
	<stop  offset="0" style="stop-color:#FFFFFF"/>
	<stop  offset="0.2886" style="stop-color:#FCFCFC"/>
	<stop  offset="0.5185" style="stop-color:#F2F2F2"/>
	<stop  offset="0.7274" style="stop-color:#E1E1E1"/>
	<stop  offset="0.9071" style="stop-color:#CCCCCC"/>
</radialGradient>
<circle style="fill:url(#SVGID_1_);" cx="256" cy="238.448" r="88.793"/>
<radialGradient id="SVGID_2_" cx="333.4023" cy="191.2319" r="65.0434" fx="326.0692" fy="191.5549" gradientTransform="matrix(0.1851 0.9827 -1.4858 0.2798 555.8328 -189.9152)" gradientUnits="userSpaceOnUse">
	<stop  offset="0" style="stop-color:#FFFFFF"/>
	<stop  offset="0.4857" style="stop-color:#E8E8E8"/>
	<stop  offset="1" style="stop-color:#CCCCCC"/>
</radialGradient>
<circle style="fill:url(#SVGID_2_);" cx="335.311" cy="238.759" r="59.482"/>
<radialGradient id="SVGID_3_" cx="374.5234" cy="197.1963" r="80.4165" fx="365.4488" fy="197.1036" gradientTransform="matrix(0.0926 0.9957 -1.4518 0.1351 626.1146 -202.3518)" gradientUnits="userSpaceOnUse">
	<stop  offset="0" style="stop-color:#FFFFFF"/>
	<stop  offset="0.2716" style="stop-color:#FBFBFB"/>
	<stop  offset="0.5628" style="stop-color:#EEEEEE"/>
	<stop  offset="0.8622" style="stop-color:#D8D8D8"/>
	<stop  offset="1" style="stop-color:#CCCCCC"/>
</radialGradient>
<circle style="fill:url(#SVGID_3_);" cx="374.881" cy="275.778" r="52.462"/>
<radialGradient id="SVGID_4_" cx="155.168" cy="237.0645" r="63.9384" fx="147.9528" fy="236.9908" gradientTransform="matrix(0.0055 1 -1.458 0.008 499.9629 80.0016)" gradientUnits="userSpaceOnUse">
	<stop  offset="0" style="stop-color:#FFFFFF"/>
	<stop  offset="0.2716" style="stop-color:#FBFBFB"/>
	<stop  offset="0.5628" style="stop-color:#EEEEEE"/>
	<stop  offset="0.8622" style="stop-color:#D8D8D8"/>
	<stop  offset="1" style="stop-color:#CCCCCC"/>
</radialGradient>
<circle style="fill:url(#SVGID_4_);" cx="164.103" cy="269.482" r="57.758"/>
<radialGradient id="SVGID_5_" cx="259.6699" cy="224.3628" r="72.0419" fx="251.5405" fy="224.4633" gradientTransform="matrix(0.0968 0.9953 -1.4277 0.1389 554.853 -65.2509)" gradientUnits="userSpaceOnUse">
	<stop  offset="0" style="stop-color:#FFFFFF"/>
	<stop  offset="0.2716" style="stop-color:#FBFBFB"/>
	<stop  offset="0.5628" style="stop-color:#EEEEEE"/>
	<stop  offset="0.8622" style="stop-color:#D8D8D8"/>
	<stop  offset="1" style="stop-color:#CCCCCC"/>
</radialGradient>
<circle style="fill:url(#SVGID_5_);" cx="271.707" cy="262.155" r="65.086"/>
<g id="snowflake_1_">
	<path style="fill:#FFFFFF;" d="M166.034,452.566c-2.677,0-5.171-1.438-6.51-3.755l-0.011-0.019
		c-0.518,0.57-1.124,1.062-1.797,1.451c-1.147,0.662-2.448,1.011-3.768,1.011c-1.321,0-2.621-0.349-3.759-1.008l-2.147-1.239
		l-2.15,1.242c-1.14,0.658-2.438,1.006-3.752,1.006c-2.137,0-4.157-0.916-5.565-2.464l-0.01,0.018
		c-0.673,1.154-1.619,2.097-2.747,2.748c-1.141,0.659-2.442,1.008-3.763,1.008c-1.319,0-2.618-0.348-3.755-1.006l-2.37-1.369
		c-1.729-0.994-2.975-2.612-3.497-4.551c-0.522-1.94-0.258-3.967,0.745-5.705l0.012-0.021c-3.38-0.731-5.92-3.745-5.92-7.342
		l0.001-2.265c-0.056-0.03-2.539-1.464-2.539-1.464c-1.734-1-2.978-2.62-3.498-4.561c-0.38-1.418-0.339-2.883,0.103-4.246
		c-1.872-0.089-3.619-0.861-4.953-2.197c-1.419-1.422-2.198-3.309-2.195-5.314l-0.001-2.728c0-2.679,1.443-5.173,3.765-6.511
		c1.032-0.595,2.195-0.937,3.384-0.995c-0.442-1.363-0.483-2.827-0.103-4.245c0.519-1.94,1.762-3.561,3.5-4.563l2.341-1.352
		l0.001-2.71c0-2.676,1.443-5.17,3.767-6.507c0.674-0.39,1.405-0.67,2.164-0.833c-0.858-1.661-1.065-3.56-0.577-5.382
		c0.519-1.939,1.761-3.56,3.499-4.562l2.373-1.37c1.142-0.658,2.438-1.005,3.751-1.005c2.558,0,4.948,1.312,6.323,3.446
		c0.524-0.578,1.135-1.073,1.813-1.464c1.138-0.656,2.439-1.005,3.759-1.005c1.313,0,2.608,0.346,3.745,0.999l2.35,1.357
		l2.343-1.354c1.141-0.658,2.438-1.005,3.752-1.005c2.142,0,4.165,0.919,5.574,2.471c0.65-1.008,1.529-1.845,2.564-2.44
		c1.136-0.656,2.438-1.006,3.759-1.006c1.316,0,2.613,0.347,3.75,1.003l2.375,1.372c3.479,2.013,4.742,6.41,2.921,9.944
		c3.385,0.728,5.931,3.744,5.931,7.343c0,0-0.002,2.865-0.003,2.928l1.962,1.133c3.115,1.798,4.455,5.506,3.397,8.8h0.022
		c2,0,3.882,0.778,5.302,2.192c1.431,1.434,2.211,3.321,2.208,5.325l0.001,2.729c-0.003,2.681-1.443,5.172-3.76,6.509
		c-1.148,0.659-2.442,1.005-3.753,1.005h-0.019c0.439,1.359,0.479,2.82,0.1,4.236c-0.519,1.938-1.76,3.558-3.496,4.561l-2.155,1.244
		l0.003,2.479c-0.009,2.69-1.451,5.178-3.764,6.513c-0.68,0.39-1.408,0.67-2.16,0.833l0.011,0.02
		c1.002,1.737,1.267,3.761,0.748,5.699c-0.52,1.94-1.763,3.562-3.501,4.563l-2.371,1.368
		C168.645,452.219,167.348,452.566,166.034,452.566z M148.042,433.477l1.314-2.275l-1.314-2.275l-1.314,2.275L148.042,433.477z
		 M131.346,422.32l1.313-2.275h-3.012l-1.313,2.275H131.346z M167.367,422.319l-1.313-2.275h-2.628l1.313,2.275H167.367z
		 M129.649,402.284h3.012l-1.507-2.61h-3.012L129.649,402.284z M166.053,402.283l1.506-2.609l-2.629-0.001l-1.507,2.61H166.053z
		 M148.042,393.4l1.506-2.608l-1.506-2.607l-1.505,2.608L148.042,393.4z"/>
	<path style="fill:#CCCCCC;" d="M130.052,374.762c0.869,0,1.716,0.449,2.18,1.254l3.887,6.731c0.104,0.181,0.184,0.215,0.185,0.215
		c0.005-0.026,0.073-0.094,0.142-0.215l3.322-5.755c0.221-0.381,0.536-0.696,0.916-0.915c0.391-0.226,0.827-0.338,1.264-0.338
		c0.433,0,0.866,0.111,1.252,0.333l2.371,1.37c1.199,0.693,1.611,2.232,0.918,3.433l-5.1,8.836c-0.328,0.566-0.326,1.598,0,2.164
		l6.49,11.243c0.104,0.181,0.185,0.215,0.187,0.215c0.003-0.026,0.072-0.095,0.141-0.213l6.49-11.245
		c0.327-0.565,0.328-1.598,0.001-2.164l-5.102-8.837c-0.693-1.199-0.279-2.74,0.918-3.432l2.372-1.37
		c0.394-0.228,0.825-0.335,1.251-0.335c0.869,0,1.717,0.45,2.181,1.255l3.323,5.756c0.102,0.178,0.182,0.214,0.186,0.214l0,0
		c0.004-0.025,0.071-0.095,0.141-0.214l3.885-6.731c0.221-0.381,0.538-0.697,0.918-0.916c0.39-0.226,0.828-0.339,1.264-0.339
		c0.433,0,0.865,0.111,1.251,0.334l2.371,1.37c1.198,0.693,1.61,2.232,0.92,3.432l-3.888,6.731
		c-0.081,0.141-0.093,0.225-0.093,0.256c0.001,0,0.002,0,0.003,0c0.021,0,0.097,0.027,0.247,0.027c0.002,0,0.005,0,0.007,0
		l6.643,0.001c1.387,0,2.514,1.125,2.514,2.511l-0.001,2.738c0,0.894-0.483,1.729-1.259,2.176c-0.381,0.22-0.813,0.335-1.252,0.337
		l-10.205-0.002c-0.311,0.001-0.697,0.121-1.059,0.329c-0.361,0.21-0.659,0.484-0.816,0.755L154.928,407
		c-0.08,0.141-0.094,0.223-0.092,0.254c0,0,0.001,0,0.002,0c0.019,0,0.097,0.028,0.253,0.028l12.598,0.001
		c0.312,0,0.699-0.12,1.061-0.328c0.361-0.209,0.658-0.483,0.815-0.755l5.101-8.837c0.219-0.38,0.537-0.695,0.917-0.915
		c0.389-0.225,0.826-0.337,1.262-0.337c0.434,0,0.867,0.111,1.253,0.334l2.371,1.369c1.199,0.692,1.611,2.231,0.92,3.43L178.064,407
		c-0.081,0.14-0.092,0.224-0.092,0.255c0.001,0,0.002-0.001,0.004-0.001c0.022,0,0.101,0.028,0.252,0.029l8.158,0.001
		c0.001,0,0.002,0,0.004,0c0.667,0,1.295,0.262,1.771,0.735c0.475,0.476,0.737,1.106,0.736,1.775l0.001,2.738
		c-0.001,0.895-0.483,1.729-1.26,2.177c-0.381,0.219-0.813,0.335-1.253,0.335l-8.159-0.001c-0.155,0-0.235,0.031-0.263,0.045
		c0.006,0.015,0.02,0.1,0.1,0.239l3.322,5.756c0.693,1.198,0.281,2.736-0.918,3.43l-2.371,1.368
		c-0.395,0.228-0.827,0.336-1.253,0.336c-0.868,0-1.713-0.45-2.178-1.254l-5.101-8.836c-0.327-0.566-1.222-1.083-1.877-1.084
		l-12.6,0.001c-0.127,0-0.219,0.021-0.263,0.043c0.009,0.017,0.021,0.1,0.103,0.24l6.297,10.908
		c0.328,0.565,1.219,1.083,1.874,1.083c0.001,0,0.001,0,0.002,0l10.203,0.001c0.67,0,1.3,0.263,1.774,0.737
		c0.476,0.475,0.738,1.105,0.736,1.774l0.003,2.738c-0.003,0.894-0.485,1.729-1.264,2.178c-0.378,0.217-0.808,0.334-1.245,0.334
		c-0.002,0-0.003,0-0.005,0l-6.646,0.001c-0.13,0-0.218,0.021-0.263,0.044c0.008,0.015,0.02,0.099,0.102,0.237l4.078,7.065
		c0.691,1.199,0.279,2.74-0.92,3.432l-2.373,1.37c-0.394,0.228-0.824,0.335-1.25,0.335c-0.868,0-1.715-0.45-2.18-1.256l-4.079-7.064
		c-0.102-0.178-0.182-0.213-0.185-0.213l0,0c-0.006,0.025-0.072,0.093-0.143,0.213l-3.322,5.756
		c-0.219,0.38-0.535,0.695-0.916,0.916c-0.389,0.225-0.825,0.337-1.261,0.337c-0.435,0-0.868-0.111-1.254-0.335l-2.372-1.368
		c-1.199-0.692-1.611-2.232-0.92-3.432l5.103-8.836c0.327-0.567,0.327-1.601-0.001-2.167l-6.298-10.908
		c-0.103-0.178-0.183-0.213-0.185-0.213l0,0c-0.006,0.025-0.073,0.094-0.143,0.213l-6.299,10.909c-0.327,0.566-0.326,1.599,0,2.165
		l5.102,8.838c0.692,1.198,0.279,2.737-0.92,3.43l-2.371,1.369c-0.395,0.228-0.826,0.336-1.252,0.336
		c-0.869,0-1.714-0.45-2.179-1.254l-3.323-5.756c-0.104-0.181-0.184-0.213-0.186-0.214c-0.004,0.026-0.072,0.096-0.143,0.214
		l-4.076,7.064c-0.222,0.38-0.537,0.698-0.916,0.917c-0.39,0.226-0.827,0.338-1.264,0.338c-0.434,0-0.867-0.111-1.252-0.334
		l-2.371-1.37c-1.201-0.69-1.613-2.23-0.922-3.43l4.08-7.066c0.082-0.142,0.092-0.225,0.094-0.255c-0.001,0-0.002,0-0.003,0
		c-0.021,0-0.1-0.028-0.254-0.028h-6.646c-1.382,0-2.51-1.126-2.51-2.511l0.001-2.739c-0.002-0.893,0.481-1.726,1.26-2.176
		c0.379-0.219,0.812-0.337,1.25-0.337l10.203,0.001c0.312,0,0.699-0.12,1.062-0.329c0.359-0.208,0.657-0.483,0.813-0.753
		l6.299-10.91c0.081-0.142,0.092-0.225,0.094-0.255c-0.001,0-0.001,0-0.003,0c-0.021,0-0.098-0.028-0.253-0.029l-12.982,0.001
		c-0.312,0-0.699,0.119-1.061,0.328c-0.362,0.209-0.658,0.484-0.815,0.754l-5.101,8.838c-0.22,0.38-0.537,0.696-0.917,0.916
		c-0.389,0.225-0.826,0.337-1.262,0.337c-0.434,0-0.867-0.111-1.253-0.334l-2.371-1.37c-1.201-0.692-1.611-2.232-0.919-3.43
		l3.323-5.756c0.081-0.141,0.092-0.225,0.094-0.255c-0.001,0-0.002,0-0.003,0c-0.023,0-0.101-0.028-0.254-0.029l-7.774,0.001
		c-1.385,0-2.514-1.128-2.511-2.512l-0.001-2.738c0-0.895,0.484-1.729,1.262-2.177c0.379-0.219,0.812-0.335,1.251-0.336h7.773
		c0.003,0,0.005,0,0.008,0c0.126,0,0.212-0.021,0.254-0.044c-0.007-0.016-0.018-0.1-0.099-0.238l-3.323-5.756
		c-0.692-1.199-0.281-2.738,0.919-3.431l2.371-1.369c0.395-0.229,0.826-0.337,1.252-0.337c0.869,0,1.716,0.451,2.18,1.256
		l5.102,8.837c0.326,0.567,1.221,1.082,1.875,1.084h12.982c0.13-0.002,0.221-0.023,0.263-0.045c-0.007-0.017-0.019-0.1-0.1-0.239
		l-6.491-11.243c-0.326-0.566-1.221-1.083-1.875-1.083h-10.205c-0.001,0-0.002,0-0.004,0c-0.667,0-1.295-0.263-1.771-0.738
		c-0.474-0.475-0.735-1.105-0.737-1.773l0.001-2.738c0-0.893,0.482-1.729,1.261-2.177c0.377-0.218,0.807-0.334,1.244-0.334
		c0.002,0,0.004,0,0.006,0l6.646-0.001c0.002,0,0.005,0,0.008,0c0.126,0,0.214-0.023,0.256-0.045
		c-0.008-0.016-0.019-0.098-0.1-0.238l-3.887-6.731c-0.693-1.199-0.281-2.738,0.918-3.431l2.373-1.37
		C129.195,374.869,129.626,374.762,130.052,374.762 M130.052,364.762c-2.189,0-4.349,0.578-6.246,1.672l-2.378,1.373
		c-2.894,1.671-4.964,4.37-5.829,7.6c-0.348,1.301-0.484,2.624-0.413,3.931c-3.132,2.299-5.052,5.975-5.109,9.907
		c-2.812,1.675-4.825,4.335-5.675,7.509c-0.167,0.623-0.285,1.251-0.354,1.88c-0.201,0.103-0.399,0.209-0.595,0.322
		c-3.865,2.228-6.267,6.381-6.267,10.84l0.001,2.742c-0.006,3.321,1.292,6.466,3.656,8.834c0.954,0.956,2.035,1.738,3.205,2.332
		c0.07,0.626,0.188,1.252,0.354,1.873c0.865,3.23,2.937,5.93,5.833,7.601l0.048,0.027c0.191,3.803,2.086,7.162,4.935,9.33
		c-0.134,1.46-0.008,2.947,0.384,4.405c0.87,3.229,2.945,5.926,5.843,7.592l2.351,1.358c1.895,1.096,4.059,1.676,6.255,1.676
		c2.198,0,4.365-0.581,6.267-1.68c0.33-0.19,0.65-0.396,0.961-0.615c1.516,0.64,3.165,0.985,4.858,0.985
		c2.058,0,4.09-0.511,5.903-1.481c1.802,0.967,3.839,1.48,5.906,1.48c1.675,0,3.332-0.338,4.867-0.984
		c2.082,1.468,4.598,2.296,7.218,2.296c2.191,0,4.353-0.579,6.25-1.676l2.372-1.369c4.356-2.512,6.63-7.271,6.203-11.983
		c2.991-2.276,4.83-5.798,4.953-9.57c2.717-1.687,4.655-4.296,5.485-7.394c0.149-0.557,0.259-1.118,0.331-1.681
		c0.337-0.155,0.668-0.326,0.992-0.512c3.875-2.238,6.274-6.386,6.279-10.838l-0.001-2.753c0.005-3.322-1.294-6.467-3.658-8.835
		c-1.072-1.067-2.295-1.917-3.62-2.529c-0.452-3.553-2.414-6.876-5.611-8.942v-0.057c0-4.139-2.019-7.814-5.123-10.093
		c0.244-4.559-2.017-9.091-6.223-11.524l-2.376-1.373c-1.902-1.098-4.063-1.676-6.255-1.676c-2.198,0-4.365,0.581-6.268,1.681
		c-0.199,0.114-0.394,0.234-0.585,0.359c-1.567-0.69-3.282-1.064-5.044-1.064c-2.131,0-4.234,0.548-6.095,1.586
		c-1.871-1.04-3.968-1.584-6.095-1.584c-1.742,0-3.464,0.364-5.05,1.062C134.892,365.494,132.519,364.762,130.052,364.762
		L130.052,364.762z"/>
</g>
<g>
	<path style="fill:#CCCCCC;" d="M245.877,457.078c-19.702,0-35.73-16.029-35.73-35.731c0-16.823,13.687-30.511,30.51-30.511
		c4.678,0,9.28,1.254,13.305,3.582c0.067-19.896,16.274-36.061,36.186-36.061c17.011,0,30.85,13.84,30.85,30.851
		c0,7.202-2.849,13.956-7.818,18.936h99.165v48.935H245.877z"/>
</g>
<g>
	<path style="fill:#FFFFFF;" d="M402.313,427.81H297.259c-18.344,0-33.267-14.924-33.267-33.267
		c0-14.422,11.733-26.156,26.155-26.156c11.48,0,20.819,9.341,20.819,20.821c0,9.275-7.545,16.82-16.818,16.82v-9.636
		c3.961,0,7.183-3.223,7.183-7.185c0-6.168-5.017-11.185-11.184-11.185c-9.109,0-16.52,7.41-16.52,16.52
		c0,13.029,10.601,23.631,23.631,23.631h105.055V427.81z"/>
</g>
<g>
	<path style="fill:#FFFFFF;" d="M402.313,447.048H245.877c-14.171,0-25.701-11.529-25.701-25.701c0-11.293,9.188-20.48,20.48-20.48
		c9.134,0,16.565,7.431,16.565,16.565c0,7.515-6.113,13.628-13.628,13.628v-9.636c2.201,0,3.992-1.791,3.992-3.992
		c0-3.821-3.108-6.93-6.929-6.93c-5.979,0-10.844,4.865-10.844,10.845c0,8.858,7.207,16.065,16.064,16.065h156.437V447.048z"/>
</g>
</svg>
