<?xml version="1.0" encoding="iso-8859-1"?>
<!-- Generator: Adobe Illustrator 16.0.4, SVG Export Plug-In . SVG Version: 6.00 Build 0)  -->
<!DOCTYPE svg PUBLIC "-//W3C//DTD SVG 1.1//EN" "http://www.w3.org/Graphics/SVG/1.1/DTD/svg11.dtd">
<svg version="1.1" id="Layer_1" xmlns="http://www.w3.org/2000/svg" xmlns:xlink="http://www.w3.org/1999/xlink" x="0px" y="0px"
	 width="512px" height="512px" viewBox="0 0 512 512" style="enable-background:new 0 0 512 512;" xml:space="preserve">
<rect id="background_1_" style="opacity:0;fill:#929292;" width="512" height="512"/>
<g>
	<radialGradient id="SVGID_1_" cx="166.0684" cy="169.4824" r="112.1479" gradientUnits="userSpaceOnUse">
		<stop  offset="0" style="stop-color:#FFF073"/>
		<stop  offset="0.2495" style="stop-color:#FFEF70"/>
		<stop  offset="0.4482" style="stop-color:#FFEB66"/>
		<stop  offset="0.6295" style="stop-color:#FFE455"/>
		<stop  offset="0.8003" style="stop-color:#FFDA3D"/>
		<stop  offset="0.9624" style="stop-color:#FFCE1F"/>
		<stop  offset="1" style="stop-color:#FFCB17"/>
	</radialGradient>
	<path style="fill:url(#SVGID_1_);" d="M166.069,281.631c-61.839,0-112.148-50.31-112.148-112.149
		c0-61.838,50.31-112.148,112.148-112.148c61.838,0,112.147,50.31,112.147,112.148C278.216,231.321,227.907,281.631,166.069,281.631
		z"/>
	<path style="fill:#FBB040;" d="M166.069,62.334c59.177,0,107.147,47.972,107.147,107.148s-47.97,107.149-107.147,107.149
		S58.92,228.658,58.92,169.482S106.892,62.334,166.069,62.334 M166.069,52.334c-31.292,0-60.71,12.186-82.836,34.312
		C61.106,108.772,48.92,138.19,48.92,169.482s12.186,60.71,34.312,82.836c22.126,22.127,51.545,34.312,82.836,34.312
		s60.71-12.186,82.836-34.312c22.125-22.126,34.311-51.545,34.311-82.836s-12.186-60.71-34.311-82.836
		C226.779,64.52,197.36,52.334,166.069,52.334L166.069,52.334z"/>
</g>
<g>
	<linearGradient id="SVGID_2_" gradientUnits="userSpaceOnUse" x1="166.0679" y1="62.334" x2="166.0679" y2="276.6313">
		<stop  offset="0.6339" style="stop-color:#FFF073;stop-opacity:0"/>
		<stop  offset="1" style="stop-color:#FEFF96"/>
	</linearGradient>
	<circle style="fill:url(#SVGID_2_);" cx="166.068" cy="169.482" r="107.148"/>
</g>
<linearGradient id="SVGID_3_" gradientUnits="userSpaceOnUse" x1="166.1997" y1="143.2563" x2="166.1997" y2="71.5488">
	<stop  offset="0" style="stop-color:#FFFFFF;stop-opacity:0.2"/>
	<stop  offset="0.9081" style="stop-color:#FFFFFF;stop-opacity:0.7449"/>
	<stop  offset="1" style="stop-color:#FFFFFF;stop-opacity:0.8"/>
</linearGradient>
<ellipse style="fill:url(#SVGID_3_);" cx="166.2" cy="107.403" rx="62.146" ry="35.854"/>
<g id="raindrop_8_">
	<path style="fill:#00BFEF;" d="M236.914,454.55c-10.604,0-20.353-4.843-26.746-13.285c-9.596-12.663-8.712-28.902,2.366-43.439
		c8.812-11.547,35.392-27.961,36.519-28.654l4.079-2.508l2.25,4.226c0.49,0.919,12.027,22.77,14.943,44.602
		c1.585,11.905-3.835,25.168-13.179,32.255C251.264,452.197,244.269,454.55,236.914,454.55z"/>
	<path style="fill:#2A9CDE;" d="M251.409,373.004c0,0,11.612,21.803,14.455,43.082c1.331,10.003-3.104,21.752-11.438,28.073
		c-5.245,3.971-11.405,5.891-17.512,5.891c-8.778,0-17.451-3.964-23.159-11.502c-8.472-11.179-7.528-25.022,2.357-37.995
		C224.517,389.541,251.409,373.004,251.409,373.004 M254.852,360.321l-8.157,5.017c-2.898,1.782-28.582,17.759-37.737,29.755
		c-12.38,16.245-13.267,34.521-2.376,48.891c7.249,9.574,18.305,15.066,30.332,15.066c8.344,0,16.278-2.668,22.945-7.715
		c10.746-8.15,16.743-22.791,14.927-36.437c-3.022-22.631-14.927-45.177-15.433-46.125L254.852,360.321L254.852,360.321z"/>
</g>
<g id="raindrop_lolite_8_">
	<linearGradient id="SVGID_4_" gradientUnits="userSpaceOnUse" x1="226.7446" y1="399.6484" x2="270.0669" y2="445.984">
		<stop  offset="0.1801" style="stop-color:#00FFFF;stop-opacity:0"/>
		<stop  offset="0.4166" style="stop-color:#31FFFF;stop-opacity:0.3348"/>
		<stop  offset="0.7099" style="stop-color:#73FFFF;stop-opacity:0.75"/>
	</linearGradient>
	<path style="fill:url(#SVGID_4_);" d="M251.409,373.004c0,0,11.612,21.803,14.455,43.082c1.331,10.003-3.104,21.752-11.438,28.073
		c-12.783,9.678-30.992,7.171-40.671-5.611c-8.472-11.179-7.528-25.022,2.357-37.995
		C224.517,389.541,251.409,373.004,251.409,373.004z"/>
</g>
<path id="raindrop_hilite_5_" style="fill:#BDFFFF;" d="M229.64,401.671c2.983,1.725,2.866,7.501-0.258,12.899
	c-3.128,5.395-8.079,8.368-11.06,6.644c-2.984-1.728-2.87-7.502,0.251-12.9C221.702,402.914,226.652,399.939,229.64,401.671z"/>
<g id="raindrop_2_">
	<path style="fill:#00BFEF;" d="M346.914,454.55c-10.605,0-20.354-4.843-26.747-13.285c-9.596-12.663-8.712-28.902,2.366-43.439
		c8.812-11.547,35.392-27.961,36.519-28.654l4.078-2.508l2.251,4.226c0.49,0.919,12.027,22.77,14.943,44.602
		c1.585,11.905-3.835,25.168-13.179,32.255C361.264,452.197,354.269,454.55,346.914,454.55z"/>
	<path style="fill:#2A9CDE;" d="M361.409,373.004c0,0,11.612,21.803,14.455,43.082c1.331,10.003-3.104,21.752-11.438,28.073
		c-5.245,3.971-11.404,5.891-17.512,5.891c-8.779,0-17.451-3.964-23.159-11.502c-8.472-11.179-7.528-25.022,2.357-37.995
		C334.517,389.541,361.409,373.004,361.409,373.004 M364.852,360.321l-8.156,5.017c-2.898,1.782-28.582,17.759-37.737,29.755
		c-12.38,16.245-13.267,34.521-2.376,48.891c7.249,9.574,18.306,15.066,30.332,15.066c8.344,0,16.277-2.668,22.944-7.715
		c10.746-8.15,16.743-22.791,14.927-36.437c-3.022-22.631-14.927-45.177-15.433-46.125L364.852,360.321L364.852,360.321z"/>
</g>
<g id="raindrop_lolite_2_">
	<linearGradient id="SVGID_5_" gradientUnits="userSpaceOnUse" x1="336.7451" y1="399.6484" x2="380.0674" y2="445.984">
		<stop  offset="0.1801" style="stop-color:#00FFFF;stop-opacity:0"/>
		<stop  offset="0.4166" style="stop-color:#31FFFF;stop-opacity:0.3348"/>
		<stop  offset="0.7099" style="stop-color:#73FFFF;stop-opacity:0.75"/>
	</linearGradient>
	<path style="fill:url(#SVGID_5_);" d="M361.409,373.004c0,0,11.612,21.803,14.455,43.082c1.331,10.003-3.104,21.752-11.438,28.073
		c-12.783,9.678-30.992,7.171-40.671-5.611c-8.472-11.179-7.528-25.022,2.357-37.995
		C334.517,389.541,361.409,373.004,361.409,373.004z"/>
</g>
<path id="raindrop_hilite_2_" style="fill:#BDFFFF;" d="M339.64,401.671c2.983,1.725,2.866,7.501-0.258,12.899
	c-3.128,5.395-8.079,8.368-11.06,6.644c-2.984-1.728-2.87-7.502,0.251-12.9C331.702,402.914,336.652,399.939,339.64,401.671z"/>
<g>
	<path style="fill:#ABABAB;" d="M194.103,333c-16.726,0-32.5-6.6-44.418-18.803c-11.827-12.11-18.34-27.973-18.34-44.775
		c0-34.605,28.153-62.728,62.758-62.728c1.167,0,2.36,0.051,3.571,0.124c6.167-17.174,17.472-32.499,32.151-43.494
		c16.313-12.218,35.738-18.673,56.174-18.673c26.349,0,51.383,11.052,69.143,30.422c3.353-0.531,6.761-0.798,10.168-0.798
		c29.588,0,55.479,20.384,62.571,48.844c20.723,9.074,34.462,29.777,34.462,52.538c0,31.686-25.777,57.343-57.462,57.343H194.103z"
		/>
	<path style="fill:#A0A0A0;" d="M286,149.655c26.892,0,50.99,11.956,67.272,30.841c3.888-0.799,7.914-1.22,12.038-1.22
		c28.741,0,52.722,20.385,58.271,47.484c19.737,7.535,33.762,26.513,33.762,48.896c0,28.975-23.488,52.343-52.462,52.343H194.103
		c-31.899,0-57.758-26.739-57.758-58.639c0-31.898,25.859-57.697,57.758-57.697c2.392,0,4.744,0.193,7.059,0.475
		C212.365,175.93,246.109,149.655,286,149.655 M286,139.655c-21.526,0-41.987,6.941-59.172,19.812
		C212.352,170.311,200.99,185,194.27,202c-0.056,0-0.111,0-0.167,0c-37.362,0-67.758,30.258-67.758,67.62
		c0,18.116,7.019,35.089,19.763,48.14C158.975,330.934,176.02,338,194.103,338h210.779c34.441,0,62.462-27.9,62.462-62.343
		c0-12.902-3.905-25.229-11.293-35.76c-6.172-8.798-14.382-15.744-23.951-20.372c-3.856-13.393-11.75-25.451-22.592-34.397
		c-12.4-10.232-28.097-15.859-44.197-15.859c-2.773,0-5.549,0.169-8.298,0.497C338.437,150.561,312.866,139.655,286,139.655
		L286,139.655z"/>
</g>
<radialGradient id="SVGID_6_" cx="261.3389" cy="177.1841" r="73.9755" fx="253.0829" fy="178.4218" gradientTransform="matrix(0.2416 0.9704 -1.6294 0.4057 486.9043 -148.2982)" gradientUnits="userSpaceOnUse">
	<stop  offset="0" style="stop-color:#E0E0E0"/>
	<stop  offset="0.2841" style="stop-color:#DDDDDD"/>
	<stop  offset="0.5103" style="stop-color:#D3D3D3"/>
	<stop  offset="0.7159" style="stop-color:#C2C2C2"/>
	<stop  offset="0.9071" style="stop-color:#ABABAB"/>
</radialGradient>
<circle style="fill:url(#SVGID_6_);" cx="286" cy="238.448" r="88.793"/>
<radialGradient id="SVGID_7_" cx="363.4023" cy="191.2319" r="65.0434" fx="356.0692" fy="191.5549" gradientTransform="matrix(0.1851 0.9827 -1.4858 0.2798 580.2812 -219.397)" gradientUnits="userSpaceOnUse">
	<stop  offset="0" style="stop-color:#E0E0E0"/>
	<stop  offset="0.4695" style="stop-color:#C9C9C9"/>
	<stop  offset="1" style="stop-color:#ABABAB"/>
</radialGradient>
<circle style="fill:url(#SVGID_7_);" cx="365.311" cy="238.759" r="59.482"/>
<radialGradient id="SVGID_8_" cx="404.5234" cy="197.1963" r="80.4165" fx="395.4488" fy="197.1036" gradientTransform="matrix(0.0926 0.9957 -1.4518 0.1351 653.3354 -232.2228)" gradientUnits="userSpaceOnUse">
	<stop  offset="0" style="stop-color:#E0E0E0"/>
	<stop  offset="0.2662" style="stop-color:#DCDCDC"/>
	<stop  offset="0.5515" style="stop-color:#CFCFCF"/>
	<stop  offset="0.8448" style="stop-color:#B9B9B9"/>
	<stop  offset="1" style="stop-color:#ABABAB"/>
</radialGradient>
<circle style="fill:url(#SVGID_8_);" cx="404.881" cy="275.778" r="52.462"/>
<radialGradient id="SVGID_9_" cx="185.168" cy="237.0645" r="63.9384" fx="177.9528" fy="236.9908" gradientTransform="matrix(0.0055 1 -1.458 0.008 529.7982 50.002)" gradientUnits="userSpaceOnUse">
	<stop  offset="0" style="stop-color:#E0E0E0"/>
	<stop  offset="0.2662" style="stop-color:#DCDCDC"/>
	<stop  offset="0.5515" style="stop-color:#CFCFCF"/>
	<stop  offset="0.8448" style="stop-color:#B9B9B9"/>
	<stop  offset="1" style="stop-color:#ABABAB"/>
</radialGradient>
<circle style="fill:url(#SVGID_9_);" cx="194.103" cy="269.482" r="57.758"/>
<radialGradient id="SVGID_10_" cx="289.6699" cy="224.3628" r="72.0419" fx="281.5405" fy="224.4633" gradientTransform="matrix(0.0968 0.9953 -1.4277 0.1389 581.948 -95.1099)" gradientUnits="userSpaceOnUse">
	<stop  offset="0" style="stop-color:#E0E0E0"/>
	<stop  offset="0.2662" style="stop-color:#DCDCDC"/>
	<stop  offset="0.5515" style="stop-color:#CFCFCF"/>
	<stop  offset="0.8448" style="stop-color:#B9B9B9"/>
	<stop  offset="1" style="stop-color:#ABABAB"/>
</radialGradient>
<circle style="fill:url(#SVGID_10_);" cx="301.707" cy="262.155" r="65.086"/>
</svg>
