<?xml version="1.0" encoding="iso-8859-1"?>
<!-- Generator: Adobe Illustrator 16.0.4, SVG Export Plug-In . SVG Version: 6.00 Build 0)  -->
<!DOCTYPE svg PUBLIC "-//W3C//DTD SVG 1.1//EN" "http://www.w3.org/Graphics/SVG/1.1/DTD/svg11.dtd">
<svg version="1.1" id="Layer_1" xmlns="http://www.w3.org/2000/svg" xmlns:xlink="http://www.w3.org/1999/xlink" x="0px" y="0px"
	 width="512px" height="512px" viewBox="0 0 512 512" style="enable-background:new 0 0 512 512;" xml:space="preserve">
<rect id="background_1_" style="opacity:0;fill:#929292;" width="512" height="512"/>
<rect id="background_2_" style="opacity:0;fill:#929292;" width="512" height="512"/>
<g>
	<path style="fill:#ABABAB;" d="M164.103,333c-16.726,0-32.5-6.6-44.418-18.803c-11.827-12.11-18.34-27.973-18.34-44.775
		c0-34.605,28.153-62.728,62.758-62.728c1.167,0,2.36,0.051,3.571,0.124c6.167-17.174,17.472-32.499,32.151-43.494
		c16.313-12.218,35.738-18.673,56.174-18.673c26.349,0,51.383,11.052,69.143,30.422c3.353-0.531,6.761-0.798,10.168-0.798
		c29.588,0,55.479,20.384,62.571,48.844c20.723,9.074,34.462,29.777,34.462,52.538c0,31.686-25.777,57.343-57.462,57.343H164.103z"
		/>
	<path style="fill:#A0A0A0;" d="M256,149.655c26.892,0,50.99,11.956,67.272,30.841c3.888-0.799,7.914-1.22,12.038-1.22
		c28.741,0,52.722,20.385,58.271,47.484c19.737,7.535,33.762,26.513,33.762,48.896c0,28.975-23.488,52.343-52.462,52.343H164.103
		c-31.899,0-57.758-26.739-57.758-58.639c0-31.898,25.859-57.697,57.758-57.697c2.392,0,4.744,0.193,7.059,0.475
		C182.365,175.93,216.109,149.655,256,149.655 M256,139.655c-21.526,0-41.987,6.941-59.172,19.812
		C182.352,170.311,170.99,185,164.27,202c-0.056,0-0.111,0-0.167,0c-37.362,0-67.758,30.258-67.758,67.62
		c0,18.116,7.019,35.089,19.763,48.14C128.975,330.934,146.02,338,164.103,338h210.779c34.441,0,62.462-27.9,62.462-62.343
		c0-12.902-3.905-25.229-11.293-35.76c-6.172-8.798-14.382-15.744-23.951-20.372c-3.856-13.393-11.75-25.451-22.592-34.397
		c-12.4-10.232-28.097-15.859-44.197-15.859c-2.773,0-5.549,0.169-8.298,0.497C308.437,150.561,282.866,139.655,256,139.655
		L256,139.655z"/>
</g>
<radialGradient id="SVGID_1_" cx="231.3394" cy="177.1841" r="73.9754" fx="223.0834" fy="178.4218" gradientTransform="matrix(0.2416 0.9704 -1.6294 0.4057 464.1532 -119.1875)" gradientUnits="userSpaceOnUse">
	<stop  offset="0" style="stop-color:#E0E0E0"/>
	<stop  offset="0.2841" style="stop-color:#DDDDDD"/>
	<stop  offset="0.5103" style="stop-color:#D3D3D3"/>
	<stop  offset="0.7159" style="stop-color:#C2C2C2"/>
	<stop  offset="0.9071" style="stop-color:#ABABAB"/>
</radialGradient>
<circle style="fill:url(#SVGID_1_);" cx="256" cy="238.448" r="88.793"/>
<radialGradient id="SVGID_2_" cx="333.4023" cy="191.2319" r="65.0434" fx="326.0692" fy="191.5549" gradientTransform="matrix(0.1851 0.9827 -1.4858 0.2798 555.8328 -189.9152)" gradientUnits="userSpaceOnUse">
	<stop  offset="0" style="stop-color:#E0E0E0"/>
	<stop  offset="0.4695" style="stop-color:#C9C9C9"/>
	<stop  offset="1" style="stop-color:#ABABAB"/>
</radialGradient>
<circle style="fill:url(#SVGID_2_);" cx="335.311" cy="238.759" r="59.482"/>
<radialGradient id="SVGID_3_" cx="374.5234" cy="197.1963" r="80.4165" fx="365.4488" fy="197.1036" gradientTransform="matrix(0.0926 0.9957 -1.4518 0.1351 626.1146 -202.3518)" gradientUnits="userSpaceOnUse">
	<stop  offset="0" style="stop-color:#E0E0E0"/>
	<stop  offset="0.2662" style="stop-color:#DCDCDC"/>
	<stop  offset="0.5515" style="stop-color:#CFCFCF"/>
	<stop  offset="0.8448" style="stop-color:#B9B9B9"/>
	<stop  offset="1" style="stop-color:#ABABAB"/>
</radialGradient>
<circle style="fill:url(#SVGID_3_);" cx="374.881" cy="275.778" r="52.462"/>
<radialGradient id="SVGID_4_" cx="155.168" cy="237.0645" r="63.9384" fx="147.9528" fy="236.9908" gradientTransform="matrix(0.0055 1 -1.458 0.008 499.9629 80.0016)" gradientUnits="userSpaceOnUse">
	<stop  offset="0" style="stop-color:#E0E0E0"/>
	<stop  offset="0.2662" style="stop-color:#DCDCDC"/>
	<stop  offset="0.5515" style="stop-color:#CFCFCF"/>
	<stop  offset="0.8448" style="stop-color:#B9B9B9"/>
	<stop  offset="1" style="stop-color:#ABABAB"/>
</radialGradient>
<circle style="fill:url(#SVGID_4_);" cx="164.103" cy="269.482" r="57.758"/>
<radialGradient id="SVGID_5_" cx="259.6699" cy="224.3628" r="72.0419" fx="251.5405" fy="224.4633" gradientTransform="matrix(0.0968 0.9953 -1.4277 0.1389 554.853 -65.2509)" gradientUnits="userSpaceOnUse">
	<stop  offset="0" style="stop-color:#E0E0E0"/>
	<stop  offset="0.2662" style="stop-color:#DCDCDC"/>
	<stop  offset="0.5515" style="stop-color:#CFCFCF"/>
	<stop  offset="0.8448" style="stop-color:#B9B9B9"/>
	<stop  offset="1" style="stop-color:#ABABAB"/>
</radialGradient>
<circle style="fill:url(#SVGID_5_);" cx="271.707" cy="262.155" r="65.086"/>
<radialGradient id="glow_1_" cx="303.8721" cy="334.208" r="81.715" gradientTransform="matrix(1 -0.0082 0.0065 0.8 -2.1729 69.3316)" gradientUnits="userSpaceOnUse">
	<stop  offset="0.1858" style="stop-color:#F9FFD1"/>
	<stop  offset="1" style="stop-color:#FFFFFF;stop-opacity:0"/>
</radialGradient>
<path id="glow" style="fill:url(#glow_1_);" d="M386.145,329c0-0.174,0.013-0.346,0.013-0.521c0-45.157-36.606-81.764-81.765-81.764
	c-45.156,0-81.763,36.606-81.763,81.764c0,0.175,0.012,0.347,0.014,0.521H386.145z"/>
<g id="lightning_flash">
	<radialGradient id="SVGID_6_" cx="313.5957" cy="305.2217" r="185.2038" gradientUnits="userSpaceOnUse">
		<stop  offset="0" style="stop-color:#FFF073"/>
		<stop  offset="0.2276" style="stop-color:#FFF070"/>
		<stop  offset="0.4089" style="stop-color:#FFEF66"/>
		<stop  offset="0.5743" style="stop-color:#FFED55"/>
		<stop  offset="0.7301" style="stop-color:#FFEB3D"/>
		<stop  offset="0.878" style="stop-color:#FFE91F"/>
		<stop  offset="1" style="stop-color:#FFE600"/>
	</radialGradient>
	<polygon style="fill:url(#SVGID_6_);" points="275.733,488 291.811,431 270.409,431 292.156,380.274 267.164,379.896 301.022,301 
		358.138,301 330.263,345 360.673,345 331.029,395 352.604,395 286.371,488 	"/>
	<path style="fill:#FFCD17;" d="M349.045,305.83L321.214,350h30.605l-29.645,50h20.771l-59.162,83h-1.457l16.077-57H278
		l21.705-50.628l-24.994-0.379L304.316,306H349 M367,296h-17.911h-44.772h-6.589l-2.6,6.054l-29.605,68.938l-5.905,13.752
		l14.965,0.193l10.026,0.13l-15.796,36.875L262.819,436H278h7.217l-12.52,44.5L269.14,493h13.187h1.457h5.177l2.988-4.141
		l59.162-83.379L362.264,390h-19.318h-3.062l20.5-34.415L369.527,340h-17.708h-12.507l18.148-28.848L367,295.915V296z"/>
</g>
<g id="hailstone_1_">
	<g>
		<radialGradient id="SVGID_7_" cx="207.9492" cy="411.0986" r="44.2051" gradientUnits="userSpaceOnUse">
			<stop  offset="0" style="stop-color:#FFFFFF"/>
			<stop  offset="0.2834" style="stop-color:#FCFCFC"/>
			<stop  offset="0.5091" style="stop-color:#F2F2F2"/>
			<stop  offset="0.7142" style="stop-color:#E1E1E1"/>
			<stop  offset="0.8907" style="stop-color:#CCCCCC"/>
		</radialGradient>
		<path style="fill:url(#SVGID_7_);" d="M207.948,455.304c-24.374,0-44.204-19.83-44.204-44.205s19.83-44.205,44.204-44.205
			c24.375,0,44.206,19.83,44.206,44.205S232.324,455.304,207.948,455.304z"/>
		<path style="fill:#E3E3E3;" d="M207.948,371.894c21.654,0,39.206,17.552,39.206,39.205c0,21.652-17.552,39.205-39.206,39.205
			c-21.652,0-39.204-17.553-39.204-39.205C168.744,389.445,186.296,371.894,207.948,371.894 M207.948,361.894
			c-27.131,0-49.204,22.073-49.204,49.205s22.073,49.205,49.204,49.205c27.132,0,49.206-22.073,49.206-49.205
			S235.081,361.894,207.948,361.894L207.948,361.894z"/>
	</g>
	<g>
		<linearGradient id="SVGID_8_" gradientUnits="userSpaceOnUse" x1="207.9492" y1="371.8936" x2="207.9492" y2="450.3037">
			<stop  offset="0.2077" style="stop-color:#FFFFFF;stop-opacity:0"/>
			<stop  offset="1" style="stop-color:#FFFFFF"/>
		</linearGradient>
		<circle style="fill:url(#SVGID_8_);" cx="207.949" cy="411.099" r="39.205"/>
	</g>
	<linearGradient id="SVGID_9_" gradientUnits="userSpaceOnUse" x1="207.9971" y1="406.4316" x2="207.9971" y2="383.3793">
		<stop  offset="0" style="stop-color:#FFFFFF;stop-opacity:0.2"/>
		<stop  offset="0.8743" style="stop-color:#FFFFFF;stop-opacity:0.8"/>
	</linearGradient>
	<ellipse style="fill:url(#SVGID_9_);" cx="207.997" cy="393.312" rx="22.739" ry="13.12"/>
</g>
</svg>
