<?xml version="1.0" encoding="iso-8859-1"?>
<!-- Generator: Adobe Illustrator 16.0.4, SVG Export Plug-In . SVG Version: 6.00 Build 0)  -->
<!DOCTYPE svg PUBLIC "-//W3C//DTD SVG 1.1//EN" "http://www.w3.org/Graphics/SVG/1.1/DTD/svg11.dtd">
<svg version="1.1" id="Layer_1" xmlns="http://www.w3.org/2000/svg" xmlns:xlink="http://www.w3.org/1999/xlink" x="0px" y="0px"
	 width="512px" height="512px" viewBox="0 0 512 512" style="enable-background:new 0 0 512 512;" xml:space="preserve">
<rect id="background_1_" style="opacity:0;fill:#929292;" width="512" height="512"/>
<g>
	<radialGradient id="SVGID_1_" cx="252.2432" cy="258.7041" r="166.8496" gradientUnits="userSpaceOnUse">
		<stop  offset="0" style="stop-color:#F7F7F7"/>
		<stop  offset="0.5267" style="stop-color:#F4F4F4"/>
		<stop  offset="0.9458" style="stop-color:#EAEAEA"/>
		<stop  offset="1" style="stop-color:#E8E8E8"/>
	</radialGradient>
	<path style="fill:url(#SVGID_1_);" d="M252.246,425.554c-92.002,0-166.852-74.85-166.852-166.852
		c0-92,74.85-166.848,166.852-166.848c92,0,166.847,74.848,166.847,166.848C419.093,350.704,344.246,425.554,252.246,425.554z"/>
	<path style="fill:#808285;" d="M252.246,96.854c89.387,0,161.847,72.462,161.847,161.848c0,89.388-72.46,161.852-161.847,161.852
		c-89.39,0-161.852-72.464-161.852-161.852C90.394,169.316,162.856,96.854,252.246,96.854 M252.246,86.854
		c-23.196,0-45.703,4.545-66.896,13.509c-20.465,8.656-38.843,21.045-54.622,36.824c-15.779,15.779-28.168,34.156-36.825,54.621
		c-8.964,21.193-13.509,43.699-13.509,66.894c0,23.195,4.545,45.702,13.509,66.896c8.656,20.465,21.045,38.843,36.825,54.622
		s34.157,28.169,54.622,36.825c21.193,8.964,43.701,13.509,66.896,13.509c23.195,0,45.701-4.545,66.895-13.509
		c20.464-8.656,38.841-21.046,54.62-36.826c15.778-15.779,28.168-34.156,36.823-54.621c8.964-21.193,13.509-43.7,13.509-66.896
		c0-23.195-4.545-45.701-13.509-66.894c-8.655-20.465-21.045-38.842-36.823-54.621c-15.779-15.779-34.156-28.168-54.62-36.824
		C297.947,91.399,275.441,86.854,252.246,86.854L252.246,86.854z"/>
</g>
<g>
	<path style="fill:#808285;" d="M301.568,104.193c-63.51,21.865-109.147,82.133-109.147,153.068
		c0,72.554,47.744,133.956,113.526,154.509c63.51-21.864,109.146-82.133,109.146-153.067
		C415.093,186.148,367.352,124.747,301.568,104.193z"/>
</g>
<g>
	<linearGradient id="SVGID_2_" gradientUnits="userSpaceOnUse" x1="252.2432" y1="96.8545" x2="252.2431" y2="420.5542">
		<stop  offset="0.6339" style="stop-color:#FFFFFF;stop-opacity:0"/>
		<stop  offset="1" style="stop-color:#FFFFFF;stop-opacity:0.4"/>
	</linearGradient>
	<path style="fill:url(#SVGID_2_);" d="M414.093,258.702c0,89.388-72.46,161.852-161.847,161.852
		c-89.39,0-161.852-72.464-161.852-161.852c0-89.386,72.462-161.848,161.852-161.848
		C341.633,96.854,414.093,169.316,414.093,258.702z"/>
</g>
<linearGradient id="SVGID_3_" gradientUnits="userSpaceOnUse" x1="252.4419" y1="219.0898" x2="252.4419" y2="110.7739">
	<stop  offset="0" style="stop-color:#FFFFFF;stop-opacity:0.2"/>
	<stop  offset="0.9081" style="stop-color:#FFFFFF;stop-opacity:0.7449"/>
	<stop  offset="1" style="stop-color:#FFFFFF;stop-opacity:0.8"/>
</linearGradient>
<ellipse style="fill:url(#SVGID_3_);" cx="252.442" cy="164.932" rx="93.872" ry="54.158"/>
</svg>
